<ttFont>
    <TTGlyph name=".notdef" xMin="64" yMin="0" xMax="579" yMax="515">
      <contour>
        <pt x="64" y="0" on="1"/>
        <pt x="64" y="515" on="1"/>
        <pt x="579" y="515" on="1"/>
        <pt x="579" y="0" on="1"/>
      </contour>
      <contour>
        <pt x="160" y="141" on="1"/>
        <pt x="203" y="92" on="1"/>
        <pt x="321" y="220" on="1"/>
        <pt x="444" y="92" on="1"/>
        <pt x="485" y="133" on="1"/>
        <pt x="358" y="257" on="1"/>
        <pt x="485" y="379" on="1"/>
        <pt x="441" y="421" on="1"/>
        <pt x="322" y="293" on="1"/>
        <pt x="201" y="421" on="1"/>
        <pt x="160" y="379" on="1"/>
        <pt x="285" y="256" on="1"/>
      </contour>
    </TTGlyph>
    <TTGlyph name="A" xMin="-2" yMin="0" xMax="571" yMax="570">
      <contour>
        <pt x="352" y="221" on="1"/>
        <pt x="263" y="486" on="1"/>
        <pt x="178" y="221" on="1"/>
      </contour>
      <contour>
        <pt x="195" y="42" on="1"/>
        <pt x="195" y="0" on="1"/>
        <pt x="-2" y="0" on="1"/>
        <pt x="-2" y="42" on="1"/>
        <pt x="45" y="53" on="1"/>
        <pt x="52" y="55" on="0"/>
        <pt x="63" y="65" on="0"/>
        <pt x="65" y="72" on="1"/>
        <pt x="236" y="570" on="1"/>
        <pt x="331" y="570" on="1"/>
        <pt x="507" y="72" on="1"/>
        <pt x="510" y="65" on="0"/>
        <pt x="521" y="55" on="0"/>
        <pt x="528" y="53" on="1"/>
        <pt x="571" y="42" on="1"/>
        <pt x="571" y="0" on="1"/>
        <pt x="337" y="0" on="1"/>
        <pt x="337" y="42" on="1"/>
        <pt x="408" y="55" on="1"/>
        <pt x="369" y="171" on="1"/>
        <pt x="162" y="171" on="1"/>
        <pt x="125" y="55" on="1"/>
      </contour>
    </TTGlyph>
    <TTGlyph name="AE" xMin="-4" yMin="0" xMax="735" yMax="568">
      <contour>
        <pt x="325" y="517" on="1"/>
        <pt x="214" y="256" on="1"/>
        <pt x="367" y="256" on="1"/>
        <pt x="367" y="517" on="1"/>
      </contour>
      <contour>
        <pt x="200" y="42" on="1"/>
        <pt x="200" y="0" on="1"/>
        <pt x="-4" y="0" on="1"/>
        <pt x="-4" y="42" on="1"/>
        <pt x="47" y="53" on="1"/>
        <pt x="54" y="55" on="0"/>
        <pt x="65" y="64" on="0"/>
        <pt x="68" y="71" on="1"/>
        <pt x="258" y="510" on="1"/>
        <pt x="164" y="525" on="1"/>
        <pt x="164" y="568" on="1"/>
        <pt x="701" y="568" on="1"/>
        <pt x="705" y="533" on="0"/>
        <pt x="705" y="461" on="0"/>
        <pt x="702" y="423" on="1"/>
        <pt x="653" y="423" on="1"/>
        <pt x="636" y="492" on="1"/>
        <pt x="633" y="500" on="0"/>
        <pt x="623" y="510" on="0"/>
        <pt x="614" y="514" on="1"/>
        <pt x="603" y="518" on="0"/>
        <pt x="566" y="522" on="0"/>
        <pt x="544" y="522" on="1"/>
        <pt x="462" y="522" on="1"/>
        <pt x="462" y="314" on="1"/>
        <pt x="633" y="320" on="1"/>
        <pt x="633" y="259" on="1"/>
        <pt x="462" y="263" on="1"/>
        <pt x="462" y="49" on="1"/>
        <pt x="562" y="49" on="1"/>
        <pt x="584" y="49" on="0"/>
        <pt x="626" y="54" on="0"/>
        <pt x="638" y="58" on="1"/>
        <pt x="646" y="61" on="0"/>
        <pt x="655" y="72" on="0"/>
        <pt x="658" y="80" on="1"/>
        <pt x="687" y="163" on="1"/>
        <pt x="735" y="156" on="1"/>
        <pt x="734" y="117" on="0"/>
        <pt x="727" y="40" on="0"/>
        <pt x="720" y="0" on="1"/>
        <pt x="291" y="0" on="1"/>
        <pt x="291" y="42" on="1"/>
        <pt x="348" y="53" on="1"/>
        <pt x="358" y="54" on="0"/>
        <pt x="367" y="66" on="0"/>
        <pt x="367" y="75" on="1"/>
        <pt x="367" y="206" on="1"/>
        <pt x="193" y="206" on="1"/>
        <pt x="128" y="53" on="1"/>
      </contour>
    </TTGlyph>
    <TTGlyph name="Aacute" xMin="-2" yMin="0" xMax="571" yMax="762">
      <component glyphName="A" x="0" y="0" flags="0x204"/>
      <component glyphName="acutecomb.case" x="285" y="0" flags="0x4"/>
    </TTGlyph>
    <TTGlyph name="Abreve" xMin="-2" yMin="0" xMax="571" yMax="745">
      <component glyphName="A" x="0" y="0" flags="0x204"/>
      <component glyphName="uni0306.case" x="285" y="0" flags="0x4"/>
    </TTGlyph>
    <TTGlyph name="Acircumflex" xMin="-2" yMin="0" xMax="571" yMax="754">
      <component glyphName="A" x="0" y="0" flags="0x204"/>
      <component glyphName="uni0302.case" x="285" y="0" flags="0x4"/>
    </TTGlyph>
    <TTGlyph name="Adieresis" xMin="-2" yMin="0" xMax="571" yMax="723">
      <component glyphName="A" x="0" y="0" flags="0x204"/>
      <component glyphName="uni0308.case" x="285" y="0" flags="0x4"/>
    </TTGlyph>
    <TTGlyph name="Agrave" xMin="-2" yMin="0" xMax="571" yMax="766">
      <component glyphName="A" x="0" y="0" flags="0x204"/>
      <component glyphName="gravecomb.case" x="285" y="0" flags="0x4"/>
    </TTGlyph>
    <TTGlyph name="Amacron" xMin="-2" yMin="0" xMax="571" yMax="698">
      <component glyphName="A" x="0" y="0" flags="0x204"/>
      <component glyphName="uni0304.case" x="285" y="0" flags="0x4"/>
    </TTGlyph>
    <TTGlyph name="Aogonek" xMin="-2" yMin="-188" xMax="571" yMax="570">
      <contour>
        <pt x="352" y="221" on="1"/>
        <pt x="263" y="486" on="1"/>
        <pt x="178" y="221" on="1"/>
      </contour>
      <contour>
        <pt x="550" y="-161" on="1"/>
        <pt x="531" y="-174" on="0"/>
        <pt x="477" y="-188" on="0"/>
        <pt x="451" y="-188" on="1"/>
        <pt x="412" y="-188" on="0"/>
        <pt x="357" y="-153" on="0"/>
        <pt x="357" y="-116" on="1"/>
        <pt x="357" y="-77" on="0"/>
        <pt x="419" y="-18" on="0"/>
        <pt x="459" y="-2" on="1"/>
        <pt x="459" y="0" on="1"/>
        <pt x="337" y="0" on="1"/>
        <pt x="337" y="42" on="1"/>
        <pt x="408" y="55" on="1"/>
        <pt x="369" y="171" on="1"/>
        <pt x="162" y="171" on="1"/>
        <pt x="125" y="55" on="1"/>
        <pt x="195" y="42" on="1"/>
        <pt x="195" y="0" on="1"/>
        <pt x="-2" y="0" on="1"/>
        <pt x="-2" y="42" on="1"/>
        <pt x="45" y="53" on="1"/>
        <pt x="52" y="55" on="0"/>
        <pt x="63" y="65" on="0"/>
        <pt x="65" y="72" on="1"/>
        <pt x="236" y="570" on="1"/>
        <pt x="331" y="570" on="1"/>
        <pt x="507" y="72" on="1"/>
        <pt x="510" y="65" on="0"/>
        <pt x="521" y="55" on="0"/>
        <pt x="528" y="53" on="1"/>
        <pt x="571" y="42" on="1"/>
        <pt x="571" y="0" on="1"/>
        <pt x="527" y="0" on="1"/>
        <pt x="488" y="-15" on="0"/>
        <pt x="437" y="-65" on="0"/>
        <pt x="437" y="-92" on="1"/>
        <pt x="437" y="-112" on="0"/>
        <pt x="465" y="-132" on="0"/>
        <pt x="487" y="-132" on="1"/>
        <pt x="498" y="-132" on="0"/>
        <pt x="522" y="-127" on="0"/>
        <pt x="534" y="-122" on="1"/>
      </contour>
    </TTGlyph>
    <TTGlyph name="Aring" xMin="-2" yMin="0" xMax="571" yMax="741">
      <component glyphName="A" x="0" y="0" flags="0x204"/>
      <component glyphName="uni030A.case.low" x="285" y="0" flags="0x4"/>
    </TTGlyph>
    <TTGlyph name="Atilde" xMin="-2" yMin="0" xMax="571" yMax="733">
      <component glyphName="A" x="0" y="0" flags="0x204"/>
      <component glyphName="tildecomb.case" x="285" y="0" flags="0x4"/>
    </TTGlyph>
    <TTGlyph name="B" xMin="37" yMin="-4" xMax="521" yMax="573">
      <contour>
        <pt x="286" y="-4" on="1"/>
        <pt x="252" y="-4" on="0"/>
        <pt x="201" y="0" on="0"/>
        <pt x="162" y="0" on="1"/>
        <pt x="37" y="0" on="1"/>
        <pt x="37" y="42" on="1"/>
        <pt x="97" y="53" on="1"/>
        <pt x="104" y="54" on="0"/>
        <pt x="113" y="66" on="0"/>
        <pt x="113" y="73" on="1"/>
        <pt x="113" y="494" on="1"/>
        <pt x="113" y="501" on="0"/>
        <pt x="105" y="512" on="0"/>
        <pt x="98" y="513" on="1"/>
        <pt x="37" y="525" on="1"/>
        <pt x="37" y="568" on="1"/>
        <pt x="163" y="568" on="1"/>
        <pt x="197" y="568" on="0"/>
        <pt x="256" y="573" on="0"/>
        <pt x="290" y="573" on="1"/>
        <pt x="397" y="573" on="0"/>
        <pt x="482" y="505" on="0"/>
        <pt x="482" y="440" on="1"/>
        <pt x="482" y="388" on="0"/>
        <pt x="430" y="316" on="0"/>
        <pt x="383" y="303" on="1"/>
        <pt x="444" y="300" on="0"/>
        <pt x="521" y="229" on="0"/>
        <pt x="521" y="168" on="1"/>
        <pt x="521" y="95" on="0"/>
        <pt x="420" y="-4" on="0"/>
      </contour>
      <contour>
        <pt x="212" y="527" on="1"/>
        <pt x="212" y="318" on="1"/>
        <pt x="234" y="317" on="0"/>
        <pt x="274" y="318" on="0"/>
        <pt x="286" y="318" on="1"/>
        <pt x="335" y="318" on="0"/>
        <pt x="384" y="374" on="0"/>
        <pt x="384" y="430" on="1"/>
        <pt x="384" y="481" on="0"/>
        <pt x="333" y="531" on="0"/>
        <pt x="275" y="531" on="1"/>
        <pt x="259" y="531" on="0"/>
        <pt x="221" y="528" on="0"/>
      </contour>
      <contour>
        <pt x="282" y="40" on="1"/>
        <pt x="351" y="40" on="0"/>
        <pt x="412" y="101" on="0"/>
        <pt x="412" y="160" on="1"/>
        <pt x="412" y="220" on="0"/>
        <pt x="355" y="270" on="0"/>
        <pt x="296" y="270" on="1"/>
        <pt x="281" y="270" on="0"/>
        <pt x="234" y="269" on="0"/>
        <pt x="212" y="268" on="1"/>
        <pt x="212" y="46" on="1"/>
        <pt x="225" y="44" on="0"/>
        <pt x="266" y="40" on="0"/>
      </contour>
    </TTGlyph>
    <TTGlyph name="C" xMin="42" yMin="-11" xMax="485" yMax="578">
      <contour>
        <pt x="301" y="-11" on="1"/>
        <pt x="170" y="-11" on="0"/>
        <pt x="42" y="140" on="0"/>
        <pt x="42" y="274" on="1"/>
        <pt x="42" y="426" on="0"/>
        <pt x="193" y="578" on="0"/>
        <pt x="318" y="578" on="1"/>
        <pt x="356" y="578" on="0"/>
        <pt x="445" y="564" on="0"/>
        <pt x="483" y="549" on="1"/>
        <pt x="485" y="516" on="0"/>
        <pt x="481" y="441" on="0"/>
        <pt x="475" y="402" on="1"/>
        <pt x="417" y="402" on="1"/>
        <pt x="398" y="488" on="1"/>
        <pt x="396" y="495" on="0"/>
        <pt x="388" y="510" on="0"/>
        <pt x="379" y="514" on="1"/>
        <pt x="368" y="521" on="0"/>
        <pt x="326" y="532" on="0"/>
        <pt x="302" y="532" on="1"/>
        <pt x="234" y="532" on="0"/>
        <pt x="154" y="417" on="0"/>
        <pt x="154" y="287" on="1"/>
        <pt x="154" y="172" on="0"/>
        <pt x="225" y="35" on="0"/>
        <pt x="304" y="35" on="1"/>
        <pt x="326" y="35" on="0"/>
        <pt x="369" y="47" on="0"/>
        <pt x="383" y="57" on="1"/>
        <pt x="389" y="62" on="0"/>
        <pt x="397" y="74" on="0"/>
        <pt x="401" y="84" on="1"/>
        <pt x="426" y="162" on="1"/>
        <pt x="484" y="157" on="1"/>
        <pt x="485" y="126" on="0"/>
        <pt x="481" y="54" on="0"/>
        <pt x="476" y="19" on="1"/>
        <pt x="442" y="6" on="0"/>
        <pt x="347" y="-11" on="0"/>
      </contour>
    </TTGlyph>
    <TTGlyph name="Cacute" xMin="42" yMin="-11" xMax="485" yMax="762">
      <component glyphName="C" x="0" y="0" flags="0x204"/>
      <component glyphName="acutecomb.case" x="305" y="0" flags="0x4"/>
    </TTGlyph>
    <TTGlyph name="Ccaron" xMin="42" yMin="-11" xMax="485" yMax="759">
      <component glyphName="C" x="0" y="0" flags="0x204"/>
      <component glyphName="uni030C.case" x="305" y="0" flags="0x4"/>
    </TTGlyph>
    <TTGlyph name="Ccedilla" xMin="42" yMin="-190" xMax="485" yMax="578">
      <component glyphName="C" x="0" y="0" flags="0x204"/>
      <component glyphName="uni0327" x="294" y="0" flags="0x4"/>
    </TTGlyph>
    <TTGlyph name="Ccircumflex" xMin="42" yMin="-11" xMax="485" yMax="754">
      <component glyphName="C" x="0" y="0" flags="0x204"/>
      <component glyphName="uni0302.case" x="305" y="0" flags="0x4"/>
    </TTGlyph>
    <TTGlyph name="Cdotaccent" xMin="42" yMin="-11" xMax="485" yMax="736">
      <component glyphName="C" x="0" y="0" flags="0x204"/>
      <component glyphName="uni0307.case" x="305" y="0" flags="0x4"/>
    </TTGlyph>
    <TTGlyph name="D" xMin="37" yMin="-8" xMax="568" yMax="573">
      <contour>
        <pt x="162" y="568" on="1"/>
        <pt x="198" y="568" on="0"/>
        <pt x="261" y="573" on="0"/>
        <pt x="294" y="573" on="1"/>
        <pt x="434" y="573" on="0"/>
        <pt x="568" y="437" on="0"/>
        <pt x="568" y="302" on="1"/>
        <pt x="568" y="151" on="0"/>
        <pt x="415" y="-8" on="0"/>
        <pt x="284" y="-6" on="1"/>
        <pt x="259" y="-5" on="0"/>
        <pt x="190" y="0" on="0"/>
        <pt x="163" y="0" on="1"/>
        <pt x="37" y="0" on="1"/>
        <pt x="37" y="42" on="1"/>
        <pt x="96" y="53" on="1"/>
        <pt x="104" y="54" on="0"/>
        <pt x="113" y="66" on="0"/>
        <pt x="113" y="73" on="1"/>
        <pt x="113" y="494" on="1"/>
        <pt x="113" y="501" on="0"/>
        <pt x="105" y="512" on="0"/>
        <pt x="98" y="513" on="1"/>
        <pt x="37" y="525" on="1"/>
        <pt x="37" y="568" on="1"/>
      </contour>
      <contour>
        <pt x="213" y="48" on="1"/>
        <pt x="226" y="44" on="0"/>
        <pt x="272" y="41" on="0"/>
        <pt x="290" y="41" on="1"/>
        <pt x="371" y="43" on="0"/>
        <pt x="460" y="154" on="0"/>
        <pt x="460" y="285" on="1"/>
        <pt x="460" y="407" on="0"/>
        <pt x="372" y="528" on="0"/>
        <pt x="279" y="528" on="1"/>
        <pt x="257" y="528" on="0"/>
        <pt x="222" y="524" on="0"/>
        <pt x="213" y="523" on="1"/>
      </contour>
    </TTGlyph>
    <TTGlyph name="Dcaron" xMin="37" yMin="-8" xMax="568" yMax="759">
      <component glyphName="D" x="0" y="0" flags="0x204"/>
      <component glyphName="uni030C.case" x="295" y="0" flags="0x4"/>
    </TTGlyph>
    <TTGlyph name="Dcroat" xMin="38" yMin="-8" xMax="569" yMax="573">
      <contour>
        <pt x="569" y="302" on="1"/>
        <pt x="569" y="151" on="0"/>
        <pt x="416" y="-8" on="0"/>
        <pt x="285" y="-6" on="1"/>
        <pt x="260" y="-5" on="0"/>
        <pt x="191" y="0" on="0"/>
        <pt x="164" y="0" on="1"/>
        <pt x="38" y="0" on="1"/>
        <pt x="38" y="42" on="1"/>
        <pt x="96" y="53" on="1"/>
        <pt x="104" y="54" on="0"/>
        <pt x="114" y="66" on="0"/>
        <pt x="114" y="73" on="1"/>
        <pt x="114" y="266" on="1"/>
        <pt x="42" y="266" on="1"/>
        <pt x="42" y="317" on="1"/>
        <pt x="114" y="317" on="1"/>
        <pt x="114" y="494" on="1"/>
        <pt x="114" y="501" on="0"/>
        <pt x="105" y="512" on="0"/>
        <pt x="98" y="513" on="1"/>
        <pt x="38" y="525" on="1"/>
        <pt x="38" y="568" on="1"/>
        <pt x="163" y="568" on="1"/>
        <pt x="199" y="568" on="0"/>
        <pt x="261" y="573" on="0"/>
        <pt x="294" y="573" on="1"/>
        <pt x="434" y="573" on="0"/>
        <pt x="569" y="437" on="0"/>
      </contour>
      <contour>
        <pt x="290" y="41" on="1"/>
        <pt x="371" y="43" on="0"/>
        <pt x="461" y="154" on="0"/>
        <pt x="461" y="285" on="1"/>
        <pt x="461" y="407" on="0"/>
        <pt x="372" y="528" on="0"/>
        <pt x="279" y="528" on="1"/>
        <pt x="257" y="528" on="0"/>
        <pt x="223" y="524" on="0"/>
        <pt x="214" y="523" on="1"/>
        <pt x="214" y="317" on="1"/>
        <pt x="330" y="317" on="1"/>
        <pt x="330" y="266" on="1"/>
        <pt x="214" y="266" on="1"/>
        <pt x="214" y="48" on="1"/>
        <pt x="227" y="44" on="0"/>
        <pt x="272" y="41" on="0"/>
      </contour>
    </TTGlyph>
    <TTGlyph name="E" xMin="37" yMin="0" xMax="486" yMax="568">
      <contour>
        <pt x="453" y="423" on="1"/>
        <pt x="404" y="423" on="1"/>
        <pt x="386" y="492" on="1"/>
        <pt x="384" y="500" on="0"/>
        <pt x="374" y="510" on="0"/>
        <pt x="365" y="514" on="1"/>
        <pt x="354" y="518" on="0"/>
        <pt x="316" y="522" on="0"/>
        <pt x="294" y="522" on="1"/>
        <pt x="213" y="522" on="1"/>
        <pt x="213" y="316" on="1"/>
        <pt x="383" y="322" on="1"/>
        <pt x="383" y="260" on="1"/>
        <pt x="213" y="264" on="1"/>
        <pt x="213" y="49" on="1"/>
        <pt x="313" y="49" on="1"/>
        <pt x="335" y="49" on="0"/>
        <pt x="377" y="54" on="0"/>
        <pt x="389" y="58" on="1"/>
        <pt x="397" y="61" on="0"/>
        <pt x="405" y="72" on="0"/>
        <pt x="409" y="80" on="1"/>
        <pt x="437" y="163" on="1"/>
        <pt x="486" y="156" on="1"/>
        <pt x="485" y="117" on="0"/>
        <pt x="478" y="40" on="0"/>
        <pt x="471" y="0" on="1"/>
        <pt x="37" y="0" on="1"/>
        <pt x="37" y="42" on="1"/>
        <pt x="95" y="53" on="1"/>
        <pt x="104" y="54" on="0"/>
        <pt x="113" y="66" on="0"/>
        <pt x="113" y="75" on="1"/>
        <pt x="113" y="491" on="1"/>
        <pt x="113" y="500" on="0"/>
        <pt x="104" y="512" on="0"/>
        <pt x="95" y="513" on="1"/>
        <pt x="37" y="525" on="1"/>
        <pt x="37" y="568" on="1"/>
        <pt x="452" y="568" on="1"/>
        <pt x="456" y="533" on="0"/>
        <pt x="456" y="461" on="0"/>
      </contour>
    </TTGlyph>
    <TTGlyph name="Eacute" xMin="37" yMin="0" xMax="486" yMax="762">
      <component glyphName="E" x="0" y="0" flags="0x204"/>
      <component glyphName="acutecomb.case" x="268" y="0" flags="0x4"/>
    </TTGlyph>
    <TTGlyph name="Ebreve" xMin="37" yMin="0" xMax="486" yMax="745">
      <component glyphName="E" x="0" y="0" flags="0x204"/>
      <component glyphName="uni0306.case" x="268" y="0" flags="0x4"/>
    </TTGlyph>
    <TTGlyph name="Ecaron" xMin="37" yMin="0" xMax="486" yMax="759">
      <component glyphName="E" x="0" y="0" flags="0x204"/>
      <component glyphName="uni030C.case" x="268" y="0" flags="0x4"/>
    </TTGlyph>
    <TTGlyph name="Ecircumflex" xMin="37" yMin="0" xMax="486" yMax="754">
      <component glyphName="E" x="0" y="0" flags="0x204"/>
      <component glyphName="uni0302.case" x="268" y="0" flags="0x4"/>
    </TTGlyph>
    <TTGlyph name="Edieresis" xMin="37" yMin="0" xMax="486" yMax="723">
      <component glyphName="E" x="0" y="0" flags="0x204"/>
      <component glyphName="uni0308.case" x="268" y="0" flags="0x4"/>
    </TTGlyph>
    <TTGlyph name="Edotaccent" xMin="37" yMin="0" xMax="486" yMax="736">
      <component glyphName="E" x="0" y="0" flags="0x204"/>
      <component glyphName="uni0307.case" x="268" y="0" flags="0x4"/>
    </TTGlyph>
    <TTGlyph name="Egrave" xMin="37" yMin="0" xMax="486" yMax="766">
      <component glyphName="E" x="0" y="0" flags="0x204"/>
      <component glyphName="gravecomb.case" x="268" y="0" flags="0x4"/>
    </TTGlyph>
    <TTGlyph name="Emacron" xMin="37" yMin="0" xMax="486" yMax="698">
      <component glyphName="E" x="0" y="0" flags="0x204"/>
      <component glyphName="uni0304.case" x="268" y="0" flags="0x4"/>
    </TTGlyph>
    <TTGlyph name="Eng" xMin="37" yMin="-186" xMax="619" yMax="568">
      <contour>
        <pt x="385" y="-186" on="1"/>
        <pt x="369" y="-186" on="0"/>
        <pt x="342" y="-182" on="0"/>
        <pt x="328" y="-180" on="1"/>
        <pt x="325" y="-134" on="1"/>
        <pt x="347" y="-131" on="0"/>
        <pt x="396" y="-117" on="0"/>
        <pt x="415" y="-106" on="1"/>
        <pt x="438" y="-92" on="0"/>
        <pt x="470" y="-43" on="0"/>
        <pt x="477" y="-6" on="1"/>
        <pt x="174" y="451" on="1"/>
        <pt x="174" y="75" on="1"/>
        <pt x="174" y="66" on="0"/>
        <pt x="183" y="54" on="0"/>
        <pt x="192" y="53" on="1"/>
        <pt x="258" y="42" on="1"/>
        <pt x="258" y="0" on="1"/>
        <pt x="37" y="0" on="1"/>
        <pt x="37" y="42" on="1"/>
        <pt x="95" y="53" on="1"/>
        <pt x="104" y="54" on="0"/>
        <pt x="113" y="66" on="0"/>
        <pt x="113" y="75" on="1"/>
        <pt x="113" y="491" on="1"/>
        <pt x="113" y="500" on="0"/>
        <pt x="104" y="512" on="0"/>
        <pt x="95" y="513" on="1"/>
        <pt x="37" y="525" on="1"/>
        <pt x="37" y="568" on="1"/>
        <pt x="215" y="568" on="1"/>
        <pt x="488" y="151" on="1"/>
        <pt x="488" y="491" on="1"/>
        <pt x="488" y="500" on="0"/>
        <pt x="478" y="512" on="0"/>
        <pt x="469" y="513" on="1"/>
        <pt x="408" y="525" on="1"/>
        <pt x="408" y="568" on="1"/>
        <pt x="619" y="568" on="1"/>
        <pt x="619" y="525" on="1"/>
        <pt x="566" y="513" on="1"/>
        <pt x="558" y="512" on="0"/>
        <pt x="548" y="501" on="0"/>
        <pt x="548" y="491" on="1"/>
        <pt x="548" y="29" on="1"/>
        <pt x="548" y="-66" on="0"/>
        <pt x="480" y="-186" on="0"/>
      </contour>
    </TTGlyph>
    <TTGlyph name="Eogonek" xMin="37" yMin="-188" xMax="486" yMax="568">
      <contour>
        <pt x="479" y="-161" on="1"/>
        <pt x="460" y="-174" on="0"/>
        <pt x="406" y="-188" on="0"/>
        <pt x="381" y="-188" on="1"/>
        <pt x="341" y="-188" on="0"/>
        <pt x="286" y="-152" on="0"/>
        <pt x="286" y="-116" on="1"/>
        <pt x="286" y="-77" on="0"/>
        <pt x="349" y="-18" on="0"/>
        <pt x="391" y="-2" on="1"/>
        <pt x="391" y="0" on="1"/>
        <pt x="37" y="0" on="1"/>
        <pt x="37" y="42" on="1"/>
        <pt x="95" y="53" on="1"/>
        <pt x="104" y="54" on="0"/>
        <pt x="113" y="66" on="0"/>
        <pt x="113" y="75" on="1"/>
        <pt x="113" y="491" on="1"/>
        <pt x="113" y="500" on="0"/>
        <pt x="104" y="512" on="0"/>
        <pt x="95" y="513" on="1"/>
        <pt x="37" y="525" on="1"/>
        <pt x="37" y="568" on="1"/>
        <pt x="452" y="568" on="1"/>
        <pt x="456" y="533" on="0"/>
        <pt x="456" y="461" on="0"/>
        <pt x="453" y="423" on="1"/>
        <pt x="404" y="423" on="1"/>
        <pt x="386" y="492" on="1"/>
        <pt x="384" y="500" on="0"/>
        <pt x="374" y="510" on="0"/>
        <pt x="365" y="514" on="1"/>
        <pt x="354" y="518" on="0"/>
        <pt x="316" y="522" on="0"/>
        <pt x="294" y="522" on="1"/>
        <pt x="213" y="522" on="1"/>
        <pt x="213" y="316" on="1"/>
        <pt x="383" y="322" on="1"/>
        <pt x="383" y="260" on="1"/>
        <pt x="213" y="264" on="1"/>
        <pt x="213" y="49" on="1"/>
        <pt x="313" y="49" on="1"/>
        <pt x="335" y="49" on="0"/>
        <pt x="377" y="54" on="0"/>
        <pt x="389" y="58" on="1"/>
        <pt x="397" y="61" on="0"/>
        <pt x="405" y="72" on="0"/>
        <pt x="409" y="80" on="1"/>
        <pt x="437" y="163" on="1"/>
        <pt x="486" y="156" on="1"/>
        <pt x="485" y="117" on="0"/>
        <pt x="478" y="40" on="0"/>
        <pt x="471" y="0" on="1"/>
        <pt x="428" y="-11" on="0"/>
        <pt x="367" y="-64" on="0"/>
        <pt x="367" y="-92" on="1"/>
        <pt x="367" y="-112" on="0"/>
        <pt x="395" y="-132" on="0"/>
        <pt x="417" y="-132" on="1"/>
        <pt x="427" y="-132" on="0"/>
        <pt x="452" y="-127" on="0"/>
        <pt x="463" y="-122" on="1"/>
      </contour>
    </TTGlyph>
    <TTGlyph name="Eth" xMin="38" yMin="-8" xMax="569" yMax="573">
      <component glyphName="Dcroat" x="0" y="0" flags="0x204"/>
    </TTGlyph>
    <TTGlyph name="Euro" xMin="33" yMin="-8" xMax="494" yMax="508">
      <contour>
        <pt x="485" y="20" on="1"/>
        <pt x="457" y="7" on="0"/>
        <pt x="373" y="-8" on="0"/>
        <pt x="334" y="-8" on="1"/>
        <pt x="240" y="-8" on="0"/>
        <pt x="131" y="84" on="0"/>
        <pt x="118" y="172" on="1"/>
        <pt x="33" y="172" on="1"/>
        <pt x="33" y="217" on="1"/>
        <pt x="113" y="217" on="1"/>
        <pt x="113" y="222" on="0"/>
        <pt x="113" y="232" on="0"/>
        <pt x="113" y="237" on="1"/>
        <pt x="113" y="247" on="0"/>
        <pt x="114" y="267" on="0"/>
        <pt x="115" y="276" on="1"/>
        <pt x="39" y="276" on="1"/>
        <pt x="39" y="320" on="1"/>
        <pt x="121" y="320" on="1"/>
        <pt x="140" y="414" on="0"/>
        <pt x="261" y="508" on="0"/>
        <pt x="350" y="508" on="1"/>
        <pt x="383" y="508" on="0"/>
        <pt x="459" y="495" on="0"/>
        <pt x="491" y="482" on="1"/>
        <pt x="493" y="452" on="0"/>
        <pt x="488" y="384" on="0"/>
        <pt x="484" y="349" on="1"/>
        <pt x="430" y="349" on="1"/>
        <pt x="414" y="421" on="1"/>
        <pt x="412" y="432" on="0"/>
        <pt x="403" y="445" on="0"/>
        <pt x="396" y="450" on="1"/>
        <pt x="386" y="457" on="0"/>
        <pt x="353" y="465" on="0"/>
        <pt x="335" y="465" on="1"/>
        <pt x="290" y="465" on="0"/>
        <pt x="231" y="395" on="0"/>
        <pt x="221" y="320" on="1"/>
        <pt x="376" y="320" on="1"/>
        <pt x="376" y="276" on="1"/>
        <pt x="218" y="276" on="1"/>
        <pt x="217" y="269" on="0"/>
        <pt x="217" y="254" on="0"/>
        <pt x="217" y="247" on="1"/>
        <pt x="217" y="240" on="0"/>
        <pt x="217" y="224" on="0"/>
        <pt x="218" y="217" on="1"/>
        <pt x="370" y="217" on="1"/>
        <pt x="370" y="172" on="1"/>
        <pt x="221" y="172" on="1"/>
        <pt x="230" y="106" on="0"/>
        <pt x="284" y="35" on="0"/>
        <pt x="333" y="35" on="1"/>
        <pt x="353" y="35" on="0"/>
        <pt x="387" y="48" on="0"/>
        <pt x="397" y="56" on="1"/>
        <pt x="403" y="60" on="0"/>
        <pt x="411" y="72" on="0"/>
        <pt x="414" y="80" on="1"/>
        <pt x="438" y="149" on="1"/>
        <pt x="493" y="144" on="1"/>
        <pt x="494" y="116" on="0"/>
        <pt x="491" y="52" on="0"/>
      </contour>
    </TTGlyph>
    <TTGlyph name="Euro.tf" xMin="-1" yMin="-8" xMax="424" yMax="508">
      <contour>
        <pt x="416" y="19" on="1"/>
        <pt x="387" y="6" on="0"/>
        <pt x="309" y="-8" on="0"/>
        <pt x="273" y="-8" on="1"/>
        <pt x="182" y="-8" on="0"/>
        <pt x="80" y="82" on="0"/>
        <pt x="68" y="172" on="1"/>
        <pt x="-1" y="172" on="1"/>
        <pt x="-1" y="217" on="1"/>
        <pt x="64" y="217" on="1"/>
        <pt x="64" y="221" on="0"/>
        <pt x="64" y="232" on="0"/>
        <pt x="64" y="237" on="1"/>
        <pt x="64" y="247" on="0"/>
        <pt x="64" y="267" on="0"/>
        <pt x="65" y="276" on="1"/>
        <pt x="2" y="276" on="1"/>
        <pt x="2" y="320" on="1"/>
        <pt x="71" y="320" on="1"/>
        <pt x="87" y="416" on="0"/>
        <pt x="201" y="508" on="0"/>
        <pt x="285" y="508" on="1"/>
        <pt x="316" y="508" on="0"/>
        <pt x="387" y="495" on="0"/>
        <pt x="418" y="482" on="1"/>
        <pt x="419" y="452" on="0"/>
        <pt x="415" y="384" on="0"/>
        <pt x="410" y="349" on="1"/>
        <pt x="356" y="349" on="1"/>
        <pt x="340" y="421" on="1"/>
        <pt x="338" y="431" on="0"/>
        <pt x="331" y="444" on="0"/>
        <pt x="326" y="449" on="1"/>
        <pt x="317" y="456" on="0"/>
        <pt x="289" y="465" on="0"/>
        <pt x="273" y="465" on="1"/>
        <pt x="233" y="465" on="0"/>
        <pt x="178" y="396" on="0"/>
        <pt x="170" y="320" on="1"/>
        <pt x="307" y="320" on="1"/>
        <pt x="307" y="276" on="1"/>
        <pt x="167" y="276" on="1"/>
        <pt x="166" y="269" on="0"/>
        <pt x="166" y="253" on="0"/>
        <pt x="166" y="245" on="1"/>
        <pt x="166" y="238" on="0"/>
        <pt x="166" y="224" on="0"/>
        <pt x="166" y="217" on="1"/>
        <pt x="304" y="217" on="1"/>
        <pt x="304" y="172" on="1"/>
        <pt x="170" y="172" on="1"/>
        <pt x="177" y="105" on="0"/>
        <pt x="225" y="35" on="0"/>
        <pt x="268" y="35" on="1"/>
        <pt x="287" y="35" on="0"/>
        <pt x="318" y="46" on="0"/>
        <pt x="328" y="54" on="1"/>
        <pt x="335" y="59" on="0"/>
        <pt x="344" y="73" on="0"/>
        <pt x="346" y="83" on="1"/>
        <pt x="367" y="151" on="1"/>
        <pt x="422" y="147" on="1"/>
        <pt x="424" y="118" on="0"/>
        <pt x="421" y="51" on="0"/>
      </contour>
    </TTGlyph>
    <TTGlyph name="F" xMin="37" yMin="0" xMax="456" yMax="568">
      <contour>
        <pt x="383" y="252" on="1"/>
        <pt x="213" y="256" on="1"/>
        <pt x="213" y="73" on="1"/>
        <pt x="213" y="66" on="0"/>
        <pt x="224" y="55" on="0"/>
        <pt x="231" y="54" on="1"/>
        <pt x="323" y="42" on="1"/>
        <pt x="323" y="0" on="1"/>
        <pt x="37" y="0" on="1"/>
        <pt x="37" y="42" on="1"/>
        <pt x="96" y="53" on="1"/>
        <pt x="104" y="54" on="0"/>
        <pt x="113" y="66" on="0"/>
        <pt x="113" y="74" on="1"/>
        <pt x="113" y="491" on="1"/>
        <pt x="113" y="500" on="0"/>
        <pt x="104" y="512" on="0"/>
        <pt x="95" y="513" on="1"/>
        <pt x="37" y="525" on="1"/>
        <pt x="37" y="568" on="1"/>
        <pt x="452" y="568" on="1"/>
        <pt x="456" y="533" on="0"/>
        <pt x="456" y="461" on="0"/>
        <pt x="453" y="423" on="1"/>
        <pt x="404" y="423" on="1"/>
        <pt x="386" y="492" on="1"/>
        <pt x="384" y="500" on="0"/>
        <pt x="374" y="510" on="0"/>
        <pt x="365" y="514" on="1"/>
        <pt x="354" y="518" on="0"/>
        <pt x="316" y="522" on="0"/>
        <pt x="294" y="522" on="1"/>
        <pt x="213" y="522" on="1"/>
        <pt x="213" y="308" on="1"/>
        <pt x="383" y="314" on="1"/>
      </contour>
    </TTGlyph>
    <TTGlyph name="G" xMin="42" yMin="-10" xMax="551" yMax="578">
      <contour>
        <pt x="488" y="-5" on="1"/>
        <pt x="433" y="46" on="1"/>
        <pt x="407" y="20" on="0"/>
        <pt x="332" y="-10" on="0"/>
        <pt x="283" y="-10" on="1"/>
        <pt x="165" y="-10" on="0"/>
        <pt x="42" y="147" on="0"/>
        <pt x="42" y="278" on="1"/>
        <pt x="42" y="429" on="0"/>
        <pt x="196" y="578" on="0"/>
        <pt x="326" y="578" on="1"/>
        <pt x="373" y="578" on="0"/>
        <pt x="464" y="560" on="0"/>
        <pt x="501" y="543" on="1"/>
        <pt x="503" y="509" on="0"/>
        <pt x="498" y="442" on="0"/>
        <pt x="493" y="408" on="1"/>
        <pt x="433" y="408" on="1"/>
        <pt x="415" y="484" on="1"/>
        <pt x="413" y="495" on="0"/>
        <pt x="404" y="508" on="0"/>
        <pt x="397" y="512" on="1"/>
        <pt x="384" y="521" on="0"/>
        <pt x="342" y="533" on="0"/>
        <pt x="316" y="533" on="1"/>
        <pt x="244" y="533" on="0"/>
        <pt x="157" y="412" on="0"/>
        <pt x="157" y="282" on="1"/>
        <pt x="157" y="178" on="0"/>
        <pt x="227" y="48" on="0"/>
        <pt x="314" y="48" on="1"/>
        <pt x="342" y="48" on="0"/>
        <pt x="392" y="63" on="0"/>
        <pt x="412" y="79" on="1"/>
        <pt x="412" y="235" on="1"/>
        <pt x="323" y="242" on="1"/>
        <pt x="323" y="290" on="1"/>
        <pt x="551" y="290" on="1"/>
        <pt x="551" y="242" on="1"/>
        <pt x="509" y="236" on="1"/>
        <pt x="509" y="7" on="1"/>
      </contour>
    </TTGlyph>
    <TTGlyph name="Gbreve" xMin="42" yMin="-10" xMax="551" yMax="745">
      <component glyphName="G" x="0" y="0" flags="0x204"/>
      <component glyphName="uni0306.case" x="317" y="0" flags="0x4"/>
    </TTGlyph>
    <TTGlyph name="Gcircumflex" xMin="42" yMin="-10" xMax="551" yMax="754">
      <component glyphName="G" x="0" y="0" flags="0x204"/>
      <component glyphName="uni0302.case" x="317" y="0" flags="0x4"/>
    </TTGlyph>
    <TTGlyph name="Gcommaaccent" xMin="42" yMin="-216" xMax="551" yMax="578">
      <component glyphName="G" x="0" y="0" flags="0x204"/>
      <component glyphName="uni0326" x="295" y="0" flags="0x4"/>
    </TTGlyph>
    <TTGlyph name="Gdotaccent" xMin="42" yMin="-10" xMax="551" yMax="736">
      <component glyphName="G" x="0" y="0" flags="0x204"/>
      <component glyphName="uni0307.case" x="317" y="0" flags="0x4"/>
    </TTGlyph>
    <TTGlyph name="H" xMin="37" yMin="0" xMax="634" yMax="568">
      <contour>
        <pt x="634" y="568" on="1"/>
        <pt x="634" y="525" on="1"/>
        <pt x="576" y="513" on="1"/>
        <pt x="568" y="512" on="0"/>
        <pt x="558" y="500" on="0"/>
        <pt x="558" y="491" on="1"/>
        <pt x="558" y="75" on="1"/>
        <pt x="558" y="66" on="0"/>
        <pt x="567" y="54" on="0"/>
        <pt x="577" y="53" on="1"/>
        <pt x="634" y="42" on="1"/>
        <pt x="634" y="0" on="1"/>
        <pt x="393" y="0" on="1"/>
        <pt x="393" y="42" on="1"/>
        <pt x="440" y="53" on="1"/>
        <pt x="449" y="55" on="0"/>
        <pt x="458" y="66" on="0"/>
        <pt x="458" y="75" on="1"/>
        <pt x="458" y="264" on="1"/>
        <pt x="213" y="264" on="1"/>
        <pt x="213" y="75" on="1"/>
        <pt x="213" y="66" on="0"/>
        <pt x="222" y="54" on="0"/>
        <pt x="231" y="53" on="1"/>
        <pt x="282" y="42" on="1"/>
        <pt x="282" y="0" on="1"/>
        <pt x="37" y="0" on="1"/>
        <pt x="37" y="42" on="1"/>
        <pt x="95" y="53" on="1"/>
        <pt x="104" y="54" on="0"/>
        <pt x="113" y="66" on="0"/>
        <pt x="113" y="75" on="1"/>
        <pt x="113" y="491" on="1"/>
        <pt x="113" y="500" on="0"/>
        <pt x="104" y="512" on="0"/>
        <pt x="95" y="513" on="1"/>
        <pt x="37" y="525" on="1"/>
        <pt x="37" y="568" on="1"/>
        <pt x="282" y="568" on="1"/>
        <pt x="282" y="525" on="1"/>
        <pt x="231" y="513" on="1"/>
        <pt x="222" y="512" on="0"/>
        <pt x="213" y="501" on="0"/>
        <pt x="213" y="491" on="1"/>
        <pt x="213" y="317" on="1"/>
        <pt x="458" y="317" on="1"/>
        <pt x="458" y="491" on="1"/>
        <pt x="458" y="500" on="0"/>
        <pt x="449" y="511" on="0"/>
        <pt x="441" y="513" on="1"/>
        <pt x="393" y="525" on="1"/>
        <pt x="393" y="568" on="1"/>
      </contour>
    </TTGlyph>
    <TTGlyph name="Hbar" xMin="38" yMin="0" xMax="634" yMax="568">
      <contour>
        <pt x="214" y="299" on="1"/>
        <pt x="458" y="299" on="1"/>
        <pt x="458" y="376" on="1"/>
        <pt x="214" y="376" on="1"/>
      </contour>
      <contour>
        <pt x="283" y="42" on="1"/>
        <pt x="283" y="0" on="1"/>
        <pt x="38" y="0" on="1"/>
        <pt x="38" y="42" on="1"/>
        <pt x="95" y="53" on="1"/>
        <pt x="105" y="54" on="0"/>
        <pt x="114" y="66" on="0"/>
        <pt x="114" y="75" on="1"/>
        <pt x="114" y="376" on="1"/>
        <pt x="41" y="376" on="1"/>
        <pt x="41" y="420" on="1"/>
        <pt x="114" y="420" on="1"/>
        <pt x="114" y="491" on="1"/>
        <pt x="114" y="500" on="0"/>
        <pt x="105" y="512" on="0"/>
        <pt x="96" y="513" on="1"/>
        <pt x="38" y="525" on="1"/>
        <pt x="38" y="568" on="1"/>
        <pt x="282" y="568" on="1"/>
        <pt x="282" y="525" on="1"/>
        <pt x="231" y="513" on="1"/>
        <pt x="222" y="512" on="0"/>
        <pt x="214" y="501" on="0"/>
        <pt x="214" y="491" on="1"/>
        <pt x="214" y="420" on="1"/>
        <pt x="458" y="420" on="1"/>
        <pt x="458" y="491" on="1"/>
        <pt x="458" y="500" on="0"/>
        <pt x="449" y="511" on="0"/>
        <pt x="441" y="513" on="1"/>
        <pt x="394" y="525" on="1"/>
        <pt x="394" y="568" on="1"/>
        <pt x="634" y="568" on="1"/>
        <pt x="634" y="525" on="1"/>
        <pt x="577" y="513" on="1"/>
        <pt x="568" y="512" on="0"/>
        <pt x="558" y="500" on="0"/>
        <pt x="558" y="491" on="1"/>
        <pt x="558" y="420" on="1"/>
        <pt x="631" y="420" on="1"/>
        <pt x="631" y="376" on="1"/>
        <pt x="558" y="376" on="1"/>
        <pt x="558" y="75" on="1"/>
        <pt x="558" y="66" on="0"/>
        <pt x="568" y="54" on="0"/>
        <pt x="577" y="53" on="1"/>
        <pt x="634" y="42" on="1"/>
        <pt x="634" y="0" on="1"/>
        <pt x="393" y="0" on="1"/>
        <pt x="393" y="42" on="1"/>
        <pt x="441" y="53" on="1"/>
        <pt x="449" y="54" on="0"/>
        <pt x="458" y="66" on="0"/>
        <pt x="458" y="75" on="1"/>
        <pt x="458" y="246" on="1"/>
        <pt x="214" y="246" on="1"/>
        <pt x="214" y="75" on="1"/>
        <pt x="214" y="66" on="0"/>
        <pt x="223" y="54" on="0"/>
        <pt x="232" y="53" on="1"/>
      </contour>
    </TTGlyph>
    <TTGlyph name="Hcircumflex" xMin="37" yMin="0" xMax="634" yMax="754">
      <component glyphName="H" x="0" y="0" flags="0x204"/>
      <component glyphName="uni0302.case" x="337" y="0" flags="0x4"/>
    </TTGlyph>
    <TTGlyph name="I" xMin="37" yMin="0" xMax="289" yMax="568">
      <contour>
        <pt x="289" y="568" on="1"/>
        <pt x="289" y="525" on="1"/>
        <pt x="232" y="513" on="1"/>
        <pt x="222" y="512" on="0"/>
        <pt x="213" y="501" on="0"/>
        <pt x="213" y="491" on="1"/>
        <pt x="213" y="75" on="1"/>
        <pt x="213" y="66" on="0"/>
        <pt x="222" y="54" on="0"/>
        <pt x="232" y="53" on="1"/>
        <pt x="289" y="42" on="1"/>
        <pt x="289" y="0" on="1"/>
        <pt x="37" y="0" on="1"/>
        <pt x="37" y="42" on="1"/>
        <pt x="95" y="53" on="1"/>
        <pt x="104" y="54" on="0"/>
        <pt x="113" y="66" on="0"/>
        <pt x="113" y="75" on="1"/>
        <pt x="113" y="491" on="1"/>
        <pt x="113" y="500" on="0"/>
        <pt x="104" y="512" on="0"/>
        <pt x="95" y="513" on="1"/>
        <pt x="37" y="525" on="1"/>
        <pt x="37" y="568" on="1"/>
      </contour>
    </TTGlyph>
    <TTGlyph name="IJ" xMin="37" yMin="-143" xMax="589" yMax="568">
      <component glyphName="I" x="0" y="0" flags="0x204"/>
      <component glyphName="J" x="316" y="0" flags="0x4"/>
    </TTGlyph>
    <TTGlyph name="Iacute" xMin="37" yMin="0" xMax="305" yMax="762">
      <component glyphName="I" x="0" y="0" flags="0x204"/>
      <component glyphName="acutecomb.case" x="163" y="0" flags="0x4"/>
    </TTGlyph>
    <TTGlyph name="Iacute_J.NLD" xMin="37" yMin="-143" xMax="619" yMax="762">
      <component glyphName="I" x="0" y="0" flags="0x204"/>
      <component glyphName="acutecomb.case" x="163" y="0" flags="0x4"/>
      <component glyphName="J" x="327" y="0" flags="0x4"/>
      <component glyphName="acutecomb.case" x="477" y="0" flags="0x4"/>
    </TTGlyph>
    <TTGlyph name="Ibreve" xMin="20" yMin="0" xMax="306" yMax="745">
      <component glyphName="I" x="0" y="0" flags="0x204"/>
      <component glyphName="uni0306.case" x="163" y="0" flags="0x4"/>
    </TTGlyph>
    <TTGlyph name="Icircumflex" xMin="15" yMin="0" xMax="311" yMax="754">
      <component glyphName="I" x="0" y="0" flags="0x204"/>
      <component glyphName="uni0302.case" x="163" y="0" flags="0x4"/>
    </TTGlyph>
    <TTGlyph name="Idieresis" xMin="19" yMin="0" xMax="307" yMax="723">
      <component glyphName="I" x="0" y="0" flags="0x204"/>
      <component glyphName="uni0308.case" x="163" y="0" flags="0x4"/>
    </TTGlyph>
    <TTGlyph name="Idotaccent" xMin="37" yMin="0" xMax="289" yMax="736">
      <component glyphName="I" x="0" y="0" flags="0x204"/>
      <component glyphName="uni0307.case" x="163" y="0" flags="0x4"/>
    </TTGlyph>
    <TTGlyph name="Igrave" xMin="28" yMin="0" xMax="289" yMax="766">
      <component glyphName="I" x="0" y="0" flags="0x204"/>
      <component glyphName="gravecomb.case" x="163" y="0" flags="0x4"/>
    </TTGlyph>
    <TTGlyph name="Imacron" xMin="34" yMin="0" xMax="292" yMax="698">
      <component glyphName="I" x="0" y="0" flags="0x204"/>
      <component glyphName="uni0304.case" x="163" y="0" flags="0x4"/>
    </TTGlyph>
    <TTGlyph name="Iogonek" xMin="37" yMin="-188" xMax="289" yMax="568">
      <contour>
        <pt x="256" y="-161" on="1"/>
        <pt x="237" y="-174" on="0"/>
        <pt x="183" y="-188" on="0"/>
        <pt x="158" y="-188" on="1"/>
        <pt x="118" y="-188" on="0"/>
        <pt x="63" y="-153" on="0"/>
        <pt x="63" y="-116" on="1"/>
        <pt x="63" y="-77" on="0"/>
        <pt x="124" y="-18" on="0"/>
        <pt x="162" y="-2" on="1"/>
        <pt x="162" y="0" on="1"/>
        <pt x="37" y="0" on="1"/>
        <pt x="37" y="42" on="1"/>
        <pt x="95" y="53" on="1"/>
        <pt x="104" y="54" on="0"/>
        <pt x="113" y="66" on="0"/>
        <pt x="113" y="75" on="1"/>
        <pt x="113" y="491" on="1"/>
        <pt x="113" y="500" on="0"/>
        <pt x="104" y="512" on="0"/>
        <pt x="95" y="513" on="1"/>
        <pt x="37" y="525" on="1"/>
        <pt x="37" y="568" on="1"/>
        <pt x="289" y="568" on="1"/>
        <pt x="289" y="525" on="1"/>
        <pt x="232" y="513" on="1"/>
        <pt x="222" y="512" on="0"/>
        <pt x="213" y="501" on="0"/>
        <pt x="213" y="491" on="1"/>
        <pt x="213" y="75" on="1"/>
        <pt x="213" y="66" on="0"/>
        <pt x="222" y="54" on="0"/>
        <pt x="232" y="53" on="1"/>
        <pt x="289" y="42" on="1"/>
        <pt x="289" y="0" on="1"/>
        <pt x="230" y="0" on="1"/>
        <pt x="192" y="-15" on="0"/>
        <pt x="143" y="-65" on="0"/>
        <pt x="143" y="-92" on="1"/>
        <pt x="143" y="-112" on="0"/>
        <pt x="172" y="-132" on="0"/>
        <pt x="193" y="-132" on="1"/>
        <pt x="204" y="-132" on="0"/>
        <pt x="229" y="-127" on="0"/>
        <pt x="240" y="-122" on="1"/>
      </contour>
    </TTGlyph>
    <TTGlyph name="Itilde" xMin="3" yMin="0" xMax="323" yMax="733">
      <component glyphName="I" x="0" y="0" flags="0x204"/>
      <component glyphName="tildecomb.case" x="163" y="0" flags="0x4"/>
    </TTGlyph>
    <TTGlyph name="J" xMin="-7" yMin="-143" xMax="273" yMax="568">
      <contour>
        <pt x="223" y="513" on="1"/>
        <pt x="214" y="511" on="0"/>
        <pt x="205" y="501" on="0"/>
        <pt x="205" y="491" on="1"/>
        <pt x="205" y="146" on="1"/>
        <pt x="205" y="20" on="0"/>
        <pt x="136" y="-98" on="0"/>
        <pt x="14" y="-143" on="1"/>
        <pt x="-7" y="-101" on="1"/>
        <pt x="63" y="-55" on="0"/>
        <pt x="105" y="34" on="0"/>
        <pt x="105" y="130" on="1"/>
        <pt x="105" y="491" on="1"/>
        <pt x="105" y="500" on="0"/>
        <pt x="95" y="512" on="0"/>
        <pt x="87" y="513" on="1"/>
        <pt x="29" y="525" on="1"/>
        <pt x="29" y="568" on="1"/>
        <pt x="273" y="568" on="1"/>
        <pt x="273" y="525" on="1"/>
      </contour>
    </TTGlyph>
    <TTGlyph name="Jacute" xMin="-7" yMin="-143" xMax="294" yMax="762">
      <component glyphName="J" x="0" y="0" flags="0x204"/>
      <component glyphName="acutecomb.case" x="152" y="0" flags="0x4"/>
    </TTGlyph>
    <TTGlyph name="Jcircumflex" xMin="-7" yMin="-143" xMax="300" yMax="754">
      <component glyphName="J" x="0" y="0" flags="0x204"/>
      <component glyphName="uni0302.case" x="152" y="0" flags="0x4"/>
    </TTGlyph>
    <TTGlyph name="K" xMin="37" yMin="0" xMax="583" yMax="568">
      <contour>
        <pt x="292" y="42" on="1"/>
        <pt x="292" y="0" on="1"/>
        <pt x="37" y="0" on="1"/>
        <pt x="37" y="42" on="1"/>
        <pt x="95" y="53" on="1"/>
        <pt x="104" y="54" on="0"/>
        <pt x="113" y="65" on="0"/>
        <pt x="113" y="75" on="1"/>
        <pt x="113" y="491" on="1"/>
        <pt x="113" y="501" on="0"/>
        <pt x="104" y="512" on="0"/>
        <pt x="95" y="513" on="1"/>
        <pt x="37" y="525" on="1"/>
        <pt x="37" y="568" on="1"/>
        <pt x="289" y="568" on="1"/>
        <pt x="289" y="525" on="1"/>
        <pt x="231" y="513" on="1"/>
        <pt x="222" y="512" on="0"/>
        <pt x="213" y="501" on="0"/>
        <pt x="213" y="491" on="1"/>
        <pt x="213" y="262" on="1"/>
        <pt x="427" y="512" on="1"/>
        <pt x="362" y="525" on="1"/>
        <pt x="361" y="568" on="1"/>
        <pt x="567" y="568" on="1"/>
        <pt x="567" y="525" on="1"/>
        <pt x="514" y="513" on="1"/>
        <pt x="507" y="512" on="0"/>
        <pt x="495" y="506" on="0"/>
        <pt x="490" y="501" on="1"/>
        <pt x="349" y="343" on="1"/>
        <pt x="368" y="321" on="0"/>
        <pt x="403" y="268" on="0"/>
        <pt x="425" y="229" on="1"/>
        <pt x="512" y="79" on="1"/>
        <pt x="519" y="68" on="0"/>
        <pt x="532" y="55" on="0"/>
        <pt x="545" y="52" on="1"/>
        <pt x="583" y="42" on="1"/>
        <pt x="583" y="0" on="1"/>
        <pt x="453" y="0" on="1"/>
        <pt x="440" y="0" on="0"/>
        <pt x="410" y="42" on="0"/>
        <pt x="391" y="78" on="1"/>
        <pt x="333" y="187" on="1"/>
        <pt x="319" y="215" on="0"/>
        <pt x="295" y="255" on="0"/>
        <pt x="285" y="271" on="1"/>
        <pt x="213" y="190" on="1"/>
        <pt x="213" y="74" on="1"/>
        <pt x="213" y="64" on="0"/>
        <pt x="222" y="54" on="0"/>
        <pt x="232" y="53" on="1"/>
      </contour>
    </TTGlyph>
    <TTGlyph name="Kcommaaccent" xMin="37" yMin="-216" xMax="583" yMax="568">
      <component glyphName="K" x="0" y="0" flags="0x204"/>
      <component glyphName="uni0326" x="326" y="0" flags="0x4"/>
    </TTGlyph>
    <TTGlyph name="L" xMin="37" yMin="0" xMax="483" yMax="568">
      <contour>
        <pt x="400" y="81" on="1"/>
        <pt x="433" y="186" on="1"/>
        <pt x="483" y="179" on="1"/>
        <pt x="483" y="138" on="0"/>
        <pt x="477" y="44" on="0"/>
        <pt x="468" y="0" on="1"/>
        <pt x="37" y="0" on="1"/>
        <pt x="37" y="42" on="1"/>
        <pt x="95" y="53" on="1"/>
        <pt x="104" y="54" on="0"/>
        <pt x="113" y="65" on="0"/>
        <pt x="113" y="74" on="1"/>
        <pt x="113" y="492" on="1"/>
        <pt x="113" y="501" on="0"/>
        <pt x="104" y="512" on="0"/>
        <pt x="95" y="514" on="1"/>
        <pt x="37" y="525" on="1"/>
        <pt x="37" y="568" on="1"/>
        <pt x="307" y="568" on="1"/>
        <pt x="307" y="525" on="1"/>
        <pt x="232" y="513" on="1"/>
        <pt x="223" y="512" on="0"/>
        <pt x="213" y="500" on="0"/>
        <pt x="213" y="491" on="1"/>
        <pt x="213" y="50" on="1"/>
        <pt x="303" y="50" on="1"/>
        <pt x="328" y="50" on="0"/>
        <pt x="367" y="55" on="0"/>
        <pt x="379" y="59" on="1"/>
        <pt x="386" y="62" on="0"/>
        <pt x="397" y="72" on="0"/>
      </contour>
    </TTGlyph>
    <TTGlyph name="Lacute" xMin="37" yMin="0" xMax="483" yMax="762">
      <component glyphName="L" x="0" y="0" flags="0x204"/>
      <component glyphName="acutecomb.case" x="200" y="0" flags="0x4"/>
    </TTGlyph>
    <TTGlyph name="Lcaron" xMin="37" yMin="0" xMax="483" yMax="604">
      <component glyphName="L" x="0" y="0" flags="0x204"/>
      <component glyphName="uni030C.calt" x="293" y="-81" flags="0x4"/>
    </TTGlyph>
    <TTGlyph name="Lcommaaccent" xMin="37" yMin="-216" xMax="483" yMax="568">
      <component glyphName="L" x="0" y="0" flags="0x204"/>
      <component glyphName="uni0326" x="277" y="0" flags="0x4"/>
    </TTGlyph>
    <TTGlyph name="Ldot" xMin="37" yMin="0" xMax="483" yMax="568">
      <component glyphName="L" x="0" y="0" flags="0x204"/>
      <component glyphName="periodcentered" x="292" y="77" flags="0x4"/>
    </TTGlyph>
    <TTGlyph name="Lslash" xMin="37" yMin="0" xMax="484" yMax="568">
      <contour>
        <pt x="469" y="0" on="1"/>
        <pt x="38" y="0" on="1"/>
        <pt x="38" y="42" on="1"/>
        <pt x="96" y="53" on="1"/>
        <pt x="105" y="54" on="0"/>
        <pt x="114" y="65" on="0"/>
        <pt x="114" y="74" on="1"/>
        <pt x="114" y="224" on="1"/>
        <pt x="37" y="193" on="1"/>
        <pt x="37" y="247" on="1"/>
        <pt x="114" y="278" on="1"/>
        <pt x="114" y="492" on="1"/>
        <pt x="114" y="501" on="0"/>
        <pt x="105" y="512" on="0"/>
        <pt x="96" y="514" on="1"/>
        <pt x="38" y="525" on="1"/>
        <pt x="38" y="568" on="1"/>
        <pt x="308" y="568" on="1"/>
        <pt x="308" y="525" on="1"/>
        <pt x="233" y="513" on="1"/>
        <pt x="224" y="512" on="0"/>
        <pt x="214" y="500" on="0"/>
        <pt x="214" y="491" on="1"/>
        <pt x="214" y="314" on="1"/>
        <pt x="368" y="380" on="1"/>
        <pt x="368" y="323" on="1"/>
        <pt x="214" y="260" on="1"/>
        <pt x="214" y="50" on="1"/>
        <pt x="304" y="50" on="1"/>
        <pt x="329" y="50" on="0"/>
        <pt x="368" y="55" on="0"/>
        <pt x="379" y="59" on="1"/>
        <pt x="387" y="62" on="0"/>
        <pt x="398" y="72" on="0"/>
        <pt x="401" y="81" on="1"/>
        <pt x="434" y="186" on="1"/>
        <pt x="484" y="179" on="1"/>
        <pt x="483" y="138" on="0"/>
        <pt x="478" y="44" on="0"/>
      </contour>
    </TTGlyph>
    <TTGlyph name="M" xMin="20" yMin="0" xMax="793" yMax="568">
      <contour>
        <pt x="231" y="42" on="1"/>
        <pt x="231" y="0" on="1"/>
        <pt x="20" y="0" on="1"/>
        <pt x="20" y="42" on="1"/>
        <pt x="76" y="53" on="1"/>
        <pt x="84" y="55" on="0"/>
        <pt x="93" y="66" on="0"/>
        <pt x="94" y="75" on="1"/>
        <pt x="145" y="490" on="1"/>
        <pt x="146" y="500" on="0"/>
        <pt x="137" y="512" on="0"/>
        <pt x="128" y="513" on="1"/>
        <pt x="63" y="525" on="1"/>
        <pt x="63" y="568" on="1"/>
        <pt x="283" y="568" on="1"/>
        <pt x="407" y="156" on="1"/>
        <pt x="517" y="568" on="1"/>
        <pt x="737" y="568" on="1"/>
        <pt x="737" y="525" on="1"/>
        <pt x="671" y="513" on="1"/>
        <pt x="661" y="512" on="0"/>
        <pt x="653" y="500" on="0"/>
        <pt x="654" y="490" on="1"/>
        <pt x="719" y="74" on="1"/>
        <pt x="720" y="66" on="0"/>
        <pt x="731" y="55" on="0"/>
        <pt x="739" y="53" on="1"/>
        <pt x="793" y="42" on="1"/>
        <pt x="793" y="0" on="1"/>
        <pt x="554" y="0" on="1"/>
        <pt x="554" y="42" on="1"/>
        <pt x="621" y="54" on="1"/>
        <pt x="555" y="492" on="1"/>
        <pt x="429" y="23" on="1"/>
        <pt x="354" y="23" on="1"/>
        <pt x="204" y="491" on="1"/>
        <pt x="155" y="54" on="1"/>
      </contour>
    </TTGlyph>
    <TTGlyph name="N" xMin="37" yMin="0" xMax="619" yMax="568">
      <contour>
        <pt x="258" y="42" on="1"/>
        <pt x="258" y="0" on="1"/>
        <pt x="37" y="0" on="1"/>
        <pt x="37" y="42" on="1"/>
        <pt x="95" y="53" on="1"/>
        <pt x="104" y="54" on="0"/>
        <pt x="113" y="66" on="0"/>
        <pt x="113" y="75" on="1"/>
        <pt x="113" y="491" on="1"/>
        <pt x="113" y="500" on="0"/>
        <pt x="104" y="512" on="0"/>
        <pt x="95" y="513" on="1"/>
        <pt x="37" y="525" on="1"/>
        <pt x="37" y="568" on="1"/>
        <pt x="215" y="568" on="1"/>
        <pt x="488" y="143" on="1"/>
        <pt x="488" y="491" on="1"/>
        <pt x="488" y="500" on="0"/>
        <pt x="478" y="512" on="0"/>
        <pt x="469" y="513" on="1"/>
        <pt x="408" y="525" on="1"/>
        <pt x="408" y="568" on="1"/>
        <pt x="619" y="568" on="1"/>
        <pt x="619" y="525" on="1"/>
        <pt x="566" y="513" on="1"/>
        <pt x="558" y="512" on="0"/>
        <pt x="548" y="501" on="0"/>
        <pt x="548" y="491" on="1"/>
        <pt x="548" y="0" on="1"/>
        <pt x="461" y="0" on="1"/>
        <pt x="174" y="449" on="1"/>
        <pt x="174" y="75" on="1"/>
        <pt x="174" y="66" on="0"/>
        <pt x="183" y="54" on="0"/>
        <pt x="192" y="53" on="1"/>
      </contour>
    </TTGlyph>
    <TTGlyph name="Nacute" xMin="37" yMin="0" xMax="619" yMax="762">
      <component glyphName="N" x="0" y="0" flags="0x204"/>
      <component glyphName="acutecomb.case" x="325" y="0" flags="0x4"/>
    </TTGlyph>
    <TTGlyph name="Ncaron" xMin="37" yMin="0" xMax="619" yMax="759">
      <component glyphName="N" x="0" y="0" flags="0x204"/>
      <component glyphName="uni030C.case" x="325" y="0" flags="0x4"/>
    </TTGlyph>
    <TTGlyph name="Ncommaaccent" xMin="37" yMin="-216" xMax="619" yMax="568">
      <component glyphName="N" x="0" y="0" flags="0x204"/>
      <component glyphName="uni0326" x="343" y="0" flags="0x4"/>
    </TTGlyph>
    <TTGlyph name="Ntilde" xMin="37" yMin="0" xMax="619" yMax="733">
      <component glyphName="N" x="0" y="0" flags="0x204"/>
      <component glyphName="tildecomb.case" x="325" y="0" flags="0x4"/>
    </TTGlyph>
    <TTGlyph name="O" xMin="42" yMin="-10" xMax="541" yMax="578">
      <contour>
        <pt x="282" y="-10" on="1"/>
        <pt x="161" y="-10" on="0"/>
        <pt x="42" y="143" on="0"/>
        <pt x="42" y="274" on="1"/>
        <pt x="42" y="420" on="0"/>
        <pt x="181" y="578" on="0"/>
        <pt x="301" y="578" on="1"/>
        <pt x="422" y="578" on="0"/>
        <pt x="541" y="425" on="0"/>
        <pt x="541" y="294" on="1"/>
        <pt x="541" y="150" on="0"/>
        <pt x="403" y="-10" on="0"/>
      </contour>
      <contour>
        <pt x="292" y="531" on="1"/>
        <pt x="225" y="531" on="0"/>
        <pt x="152" y="410" on="0"/>
        <pt x="152" y="282" on="1"/>
        <pt x="152" y="159" on="0"/>
        <pt x="221" y="38" on="0"/>
        <pt x="290" y="38" on="1"/>
        <pt x="356" y="38" on="0"/>
        <pt x="430" y="159" on="0"/>
        <pt x="430" y="287" on="1"/>
        <pt x="430" y="410" on="0"/>
        <pt x="361" y="531" on="0"/>
      </contour>
    </TTGlyph>
    <TTGlyph name="OE" xMin="42" yMin="-8" xMax="749" yMax="574">
      <contour>
        <pt x="298" y="36" on="1"/>
        <pt x="319" y="36" on="0"/>
        <pt x="359" y="46" on="0"/>
        <pt x="377" y="59" on="1"/>
        <pt x="377" y="510" on="1"/>
        <pt x="359" y="521" on="0"/>
        <pt x="320" y="531" on="0"/>
        <pt x="301" y="531" on="1"/>
        <pt x="227" y="531" on="0"/>
        <pt x="151" y="411" on="0"/>
        <pt x="151" y="282" on="1"/>
        <pt x="151" y="157" on="0"/>
        <pt x="225" y="36" on="0"/>
      </contour>
      <contour>
        <pt x="377" y="0" on="1"/>
        <pt x="377" y="1" on="1"/>
        <pt x="356" y="-3" on="0"/>
        <pt x="312" y="-8" on="0"/>
        <pt x="290" y="-8" on="1"/>
        <pt x="166" y="-8" on="0"/>
        <pt x="42" y="137" on="0"/>
        <pt x="42" y="273" on="1"/>
        <pt x="42" y="419" on="0"/>
        <pt x="182" y="574" on="0"/>
        <pt x="304" y="574" on="1"/>
        <pt x="321" y="574" on="0"/>
        <pt x="358" y="571" on="0"/>
        <pt x="377" y="568" on="1"/>
        <pt x="377" y="568" on="1"/>
        <pt x="715" y="568" on="1"/>
        <pt x="719" y="533" on="0"/>
        <pt x="719" y="461" on="0"/>
        <pt x="715" y="423" on="1"/>
        <pt x="667" y="423" on="1"/>
        <pt x="649" y="492" on="1"/>
        <pt x="647" y="501" on="0"/>
        <pt x="636" y="511" on="0"/>
        <pt x="628" y="514" on="1"/>
        <pt x="617" y="518" on="0"/>
        <pt x="579" y="522" on="0"/>
        <pt x="557" y="522" on="1"/>
        <pt x="477" y="522" on="1"/>
        <pt x="477" y="316" on="1"/>
        <pt x="647" y="322" on="1"/>
        <pt x="647" y="260" on="1"/>
        <pt x="477" y="264" on="1"/>
        <pt x="477" y="49" on="1"/>
        <pt x="577" y="49" on="1"/>
        <pt x="599" y="49" on="0"/>
        <pt x="641" y="54" on="0"/>
        <pt x="652" y="58" on="1"/>
        <pt x="660" y="61" on="0"/>
        <pt x="669" y="72" on="0"/>
        <pt x="672" y="80" on="1"/>
        <pt x="700" y="163" on="1"/>
        <pt x="749" y="156" on="1"/>
        <pt x="748" y="117" on="0"/>
        <pt x="741" y="40" on="0"/>
        <pt x="734" y="0" on="1"/>
      </contour>
    </TTGlyph>
    <TTGlyph name="Oacute" xMin="42" yMin="-10" xMax="541" yMax="762">
      <component glyphName="O" x="0" y="0" flags="0x204"/>
      <component glyphName="acutecomb.case" x="292" y="0" flags="0x4"/>
    </TTGlyph>
    <TTGlyph name="Obreve" xMin="42" yMin="-10" xMax="541" yMax="745">
      <component glyphName="O" x="0" y="0" flags="0x204"/>
      <component glyphName="uni0306.case" x="292" y="0" flags="0x4"/>
    </TTGlyph>
    <TTGlyph name="Ocircumflex" xMin="42" yMin="-10" xMax="541" yMax="754">
      <component glyphName="O" x="0" y="0" flags="0x204"/>
      <component glyphName="uni0302.case" x="292" y="0" flags="0x4"/>
    </TTGlyph>
    <TTGlyph name="Odieresis" xMin="42" yMin="-10" xMax="541" yMax="723">
      <component glyphName="O" x="0" y="0" flags="0x204"/>
      <component glyphName="uni0308.case" x="292" y="0" flags="0x4"/>
    </TTGlyph>
    <TTGlyph name="Ograve" xMin="42" yMin="-10" xMax="541" yMax="766">
      <component glyphName="O" x="0" y="0" flags="0x204"/>
      <component glyphName="gravecomb.case" x="292" y="0" flags="0x4"/>
    </TTGlyph>
    <TTGlyph name="Ohungarumlaut" xMin="42" yMin="-10" xMax="541" yMax="767">
      <component glyphName="O" x="0" y="0" flags="0x204"/>
      <component glyphName="uni030B.case" x="292" y="0" flags="0x4"/>
    </TTGlyph>
    <TTGlyph name="Omacron" xMin="42" yMin="-10" xMax="541" yMax="698">
      <component glyphName="O" x="0" y="0" flags="0x204"/>
      <component glyphName="uni0304.case" x="292" y="0" flags="0x4"/>
    </TTGlyph>
    <TTGlyph name="Oslash" xMin="40" yMin="-74" xMax="539" yMax="628">
      <contour>
        <pt x="145" y="282" on="1"/>
        <pt x="145" y="221" on="0"/>
        <pt x="162" y="130" on="0"/>
        <pt x="178" y="100" on="1"/>
        <pt x="372" y="505" on="1"/>
        <pt x="356" y="518" on="0"/>
        <pt x="316" y="532" on="0"/>
        <pt x="291" y="532" on="1"/>
        <pt x="221" y="532" on="0"/>
        <pt x="145" y="413" on="0"/>
      </contour>
      <contour>
        <pt x="288" y="36" on="1"/>
        <pt x="357" y="36" on="0"/>
        <pt x="434" y="157" on="0"/>
        <pt x="434" y="287" on="1"/>
        <pt x="434" y="346" on="0"/>
        <pt x="418" y="435" on="0"/>
        <pt x="402" y="465" on="1"/>
        <pt x="209" y="62" on="1"/>
        <pt x="225" y="49" on="0"/>
        <pt x="264" y="36" on="0"/>
      </contour>
      <contour>
        <pt x="280" y="-10" on="1"/>
        <pt x="253" y="-10" on="0"/>
        <pt x="206" y="-2" on="0"/>
        <pt x="185" y="6" on="1"/>
        <pt x="145" y="-74" on="1"/>
        <pt x="97" y="-49" on="1"/>
        <pt x="138" y="31" on="1"/>
        <pt x="89" y="65" on="0"/>
        <pt x="40" y="190" on="0"/>
        <pt x="40" y="274" on="1"/>
        <pt x="40" y="420" on="0"/>
        <pt x="179" y="578" on="0"/>
        <pt x="299" y="578" on="1"/>
        <pt x="327" y="578" on="0"/>
        <pt x="376" y="569" on="0"/>
        <pt x="397" y="561" on="1"/>
        <pt x="431" y="628" on="1"/>
        <pt x="478" y="603" on="1"/>
        <pt x="444" y="536" on="1"/>
        <pt x="492" y="501" on="0"/>
        <pt x="539" y="377" on="0"/>
        <pt x="539" y="294" on="1"/>
        <pt x="539" y="150" on="0"/>
        <pt x="401" y="-10" on="0"/>
      </contour>
    </TTGlyph>
    <TTGlyph name="Otilde" xMin="42" yMin="-10" xMax="541" yMax="733">
      <component glyphName="O" x="0" y="0" flags="0x204"/>
      <component glyphName="tildecomb.case" x="292" y="0" flags="0x4"/>
    </TTGlyph>
    <TTGlyph name="P" xMin="37" yMin="0" xMax="495" yMax="573">
      <contour>
        <pt x="275" y="257" on="1"/>
        <pt x="322" y="257" on="0"/>
        <pt x="392" y="321" on="0"/>
        <pt x="392" y="408" on="1"/>
        <pt x="392" y="473" on="0"/>
        <pt x="333" y="529" on="0"/>
        <pt x="275" y="529" on="1"/>
        <pt x="252" y="529" on="0"/>
        <pt x="225" y="525" on="0"/>
        <pt x="213" y="525" on="1"/>
        <pt x="213" y="260" on="1"/>
        <pt x="228" y="259" on="0"/>
        <pt x="256" y="257" on="0"/>
      </contour>
      <contour>
        <pt x="320" y="42" on="1"/>
        <pt x="320" y="0" on="1"/>
        <pt x="37" y="0" on="1"/>
        <pt x="37" y="42" on="1"/>
        <pt x="96" y="53" on="1"/>
        <pt x="104" y="54" on="0"/>
        <pt x="113" y="66" on="0"/>
        <pt x="113" y="73" on="1"/>
        <pt x="113" y="493" on="1"/>
        <pt x="113" y="500" on="0"/>
        <pt x="105" y="511" on="0"/>
        <pt x="98" y="513" on="1"/>
        <pt x="37" y="525" on="1"/>
        <pt x="37" y="568" on="1"/>
        <pt x="164" y="568" on="1"/>
        <pt x="195" y="568" on="0"/>
        <pt x="247" y="573" on="0"/>
        <pt x="292" y="573" on="1"/>
        <pt x="408" y="572" on="0"/>
        <pt x="495" y="488" on="0"/>
        <pt x="495" y="410" on="1"/>
        <pt x="495" y="317" on="0"/>
        <pt x="376" y="212" on="0"/>
        <pt x="277" y="212" on="1"/>
        <pt x="261" y="212" on="0"/>
        <pt x="229" y="214" on="0"/>
        <pt x="213" y="215" on="1"/>
        <pt x="213" y="73" on="1"/>
        <pt x="213" y="66" on="0"/>
        <pt x="224" y="55" on="0"/>
        <pt x="231" y="54" on="1"/>
      </contour>
    </TTGlyph>
    <TTGlyph name="Q" xMin="42" yMin="-152" xMax="600" yMax="578">
      <contour>
        <pt x="500" y="-152" on="1"/>
        <pt x="460" y="-152" on="0"/>
        <pt x="403" y="-118" on="0"/>
        <pt x="355" y="-73" on="0"/>
        <pt x="307" y="-25" on="0"/>
        <pt x="276" y="-10" on="1"/>
        <pt x="158" y="-8" on="0"/>
        <pt x="42" y="146" on="0"/>
        <pt x="42" y="274" on="1"/>
        <pt x="42" y="418" on="0"/>
        <pt x="181" y="578" on="0"/>
        <pt x="301" y="578" on="1"/>
        <pt x="422" y="578" on="0"/>
        <pt x="541" y="424" on="0"/>
        <pt x="541" y="294" on="1"/>
        <pt x="541" y="179" on="0"/>
        <pt x="448" y="27" on="0"/>
        <pt x="367" y="2" on="1"/>
        <pt x="387" y="-5" on="0"/>
        <pt x="421" y="-25" on="0"/>
        <pt x="439" y="-37" on="1"/>
        <pt x="467" y="-56" on="0"/>
        <pt x="520" y="-81" on="0"/>
        <pt x="553" y="-81" on="1"/>
        <pt x="563" y="-81" on="0"/>
        <pt x="583" y="-79" on="0"/>
        <pt x="590" y="-78" on="1"/>
        <pt x="600" y="-115" on="1"/>
        <pt x="587" y="-128" on="0"/>
        <pt x="532" y="-152" on="0"/>
      </contour>
      <contour>
        <pt x="292" y="531" on="1"/>
        <pt x="225" y="531" on="0"/>
        <pt x="151" y="411" on="0"/>
        <pt x="151" y="282" on="1"/>
        <pt x="151" y="158" on="0"/>
        <pt x="220" y="38" on="0"/>
        <pt x="289" y="38" on="1"/>
        <pt x="357" y="38" on="0"/>
        <pt x="431" y="158" on="0"/>
        <pt x="431" y="287" on="1"/>
        <pt x="431" y="411" on="0"/>
        <pt x="361" y="531" on="0"/>
      </contour>
    </TTGlyph>
    <TTGlyph name="R" xMin="37" yMin="0" xMax="567" yMax="573">
      <contour>
        <pt x="295" y="290" on="1"/>
        <pt x="338" y="291" on="0"/>
        <pt x="392" y="351" on="0"/>
        <pt x="392" y="417" on="1"/>
        <pt x="392" y="473" on="0"/>
        <pt x="340" y="529" on="0"/>
        <pt x="275" y="529" on="1"/>
        <pt x="256" y="529" on="0"/>
        <pt x="223" y="526" on="0"/>
        <pt x="213" y="525" on="1"/>
        <pt x="213" y="292" on="1"/>
        <pt x="235" y="291" on="0"/>
        <pt x="285" y="290" on="0"/>
      </contour>
      <contour>
        <pt x="292" y="42" on="1"/>
        <pt x="292" y="0" on="1"/>
        <pt x="37" y="0" on="1"/>
        <pt x="37" y="42" on="1"/>
        <pt x="95" y="53" on="1"/>
        <pt x="104" y="54" on="0"/>
        <pt x="113" y="65" on="0"/>
        <pt x="113" y="75" on="1"/>
        <pt x="113" y="492" on="1"/>
        <pt x="113" y="501" on="0"/>
        <pt x="104" y="512" on="0"/>
        <pt x="95" y="513" on="1"/>
        <pt x="37" y="525" on="1"/>
        <pt x="37" y="568" on="1"/>
        <pt x="162" y="568" on="1"/>
        <pt x="193" y="568" on="0"/>
        <pt x="251" y="573" on="0"/>
        <pt x="288" y="573" on="1"/>
        <pt x="401" y="573" on="0"/>
        <pt x="498" y="500" on="0"/>
        <pt x="498" y="422" on="1"/>
        <pt x="498" y="338" on="0"/>
        <pt x="415" y="273" on="0"/>
        <pt x="375" y="263" on="1"/>
        <pt x="399" y="250" on="0"/>
        <pt x="433" y="208" on="0"/>
        <pt x="449" y="176" on="1"/>
        <pt x="499" y="77" on="1"/>
        <pt x="505" y="64" on="0"/>
        <pt x="518" y="54" on="0"/>
        <pt x="529" y="51" on="1"/>
        <pt x="567" y="42" on="1"/>
        <pt x="567" y="0" on="1"/>
        <pt x="441" y="0" on="1"/>
        <pt x="425" y="0" on="0"/>
        <pt x="397" y="46" on="0"/>
        <pt x="380" y="83" on="1"/>
        <pt x="343" y="167" on="1"/>
        <pt x="332" y="192" on="0"/>
        <pt x="309" y="234" on="0"/>
        <pt x="297" y="247" on="1"/>
        <pt x="213" y="247" on="1"/>
        <pt x="213" y="74" on="1"/>
        <pt x="213" y="64" on="0"/>
        <pt x="222" y="54" on="0"/>
        <pt x="232" y="53" on="1"/>
      </contour>
    </TTGlyph>
    <TTGlyph name="Racute" xMin="37" yMin="0" xMax="567" yMax="762">
      <component glyphName="R" x="0" y="0" flags="0x204"/>
      <component glyphName="acutecomb.case" x="277" y="0" flags="0x4"/>
    </TTGlyph>
    <TTGlyph name="Rcaron" xMin="37" yMin="0" xMax="567" yMax="759">
      <component glyphName="R" x="0" y="0" flags="0x204"/>
      <component glyphName="uni030C.case" x="277" y="0" flags="0x4"/>
    </TTGlyph>
    <TTGlyph name="Rcommaaccent" xMin="37" yMin="-216" xMax="567" yMax="573">
      <component glyphName="R" x="0" y="0" flags="0x204"/>
      <component glyphName="uni0326" x="320" y="0" flags="0x4"/>
    </TTGlyph>
    <TTGlyph name="S" xMin="45" yMin="-12" xMax="433" yMax="578">
      <contour>
        <pt x="433" y="155" on="1"/>
        <pt x="433" y="94" on="0"/>
        <pt x="337" y="-12" on="0"/>
        <pt x="229" y="-12" on="1"/>
        <pt x="172" y="-12" on="0"/>
        <pt x="78" y="17" on="0"/>
        <pt x="47" y="34" on="1"/>
        <pt x="45" y="71" on="0"/>
        <pt x="50" y="148" on="0"/>
        <pt x="55" y="182" on="1"/>
        <pt x="113" y="182" on="1"/>
        <pt x="126" y="94" on="1"/>
        <pt x="127" y="87" on="0"/>
        <pt x="134" y="74" on="0"/>
        <pt x="141" y="68" on="1"/>
        <pt x="154" y="55" on="0"/>
        <pt x="203" y="33" on="0"/>
        <pt x="234" y="33" on="1"/>
        <pt x="282" y="33" on="0"/>
        <pt x="332" y="81" on="0"/>
        <pt x="332" y="122" on="1"/>
        <pt x="332" y="173" on="0"/>
        <pt x="260" y="225" on="0"/>
        <pt x="206" y="251" on="1"/>
        <pt x="152" y="277" on="0"/>
        <pt x="54" y="350" on="0"/>
        <pt x="54" y="423" on="1"/>
        <pt x="54" y="489" on="0"/>
        <pt x="151" y="578" on="0"/>
        <pt x="247" y="578" on="1"/>
        <pt x="288" y="578" on="0"/>
        <pt x="371" y="562" on="0"/>
        <pt x="402" y="548" on="1"/>
        <pt x="404" y="512" on="0"/>
        <pt x="400" y="441" on="0"/>
        <pt x="395" y="408" on="1"/>
        <pt x="339" y="408" on="1"/>
        <pt x="324" y="485" on="1"/>
        <pt x="323" y="494" on="0"/>
        <pt x="316" y="507" on="0"/>
        <pt x="309" y="513" on="1"/>
        <pt x="298" y="522" on="0"/>
        <pt x="258" y="535" on="0"/>
        <pt x="236" y="535" on="1"/>
        <pt x="193" y="535" on="0"/>
        <pt x="148" y="493" on="0"/>
        <pt x="148" y="456" on="1"/>
        <pt x="148" y="409" on="0"/>
        <pt x="217" y="360" on="0"/>
        <pt x="278" y="330" on="1"/>
        <pt x="338" y="300" on="0"/>
        <pt x="433" y="223" on="0"/>
      </contour>
    </TTGlyph>
    <TTGlyph name="Sacute" xMin="45" yMin="-12" xMax="433" yMax="762">
      <component glyphName="S" x="0" y="0" flags="0x204"/>
      <component glyphName="acutecomb.case" x="241" y="0" flags="0x4"/>
    </TTGlyph>
    <TTGlyph name="Scaron" xMin="45" yMin="-12" xMax="433" yMax="759">
      <component glyphName="S" x="0" y="0" flags="0x204"/>
      <component glyphName="uni030C.case" x="241" y="0" flags="0x4"/>
    </TTGlyph>
    <TTGlyph name="Scedilla" xMin="45" yMin="-190" xMax="433" yMax="578">
      <component glyphName="S" x="0" y="0" flags="0x204"/>
      <component glyphName="uni0327" x="223" y="0" flags="0x4"/>
    </TTGlyph>
    <TTGlyph name="Scircumflex" xMin="45" yMin="-12" xMax="433" yMax="754">
      <component glyphName="S" x="0" y="0" flags="0x204"/>
      <component glyphName="uni0302.case" x="241" y="0" flags="0x4"/>
    </TTGlyph>
    <TTGlyph name="Scommaaccent" xMin="45" yMin="-216" xMax="433" yMax="578">
      <component glyphName="S" x="0" y="0" flags="0x204"/>
      <component glyphName="uni0326" x="223" y="0" flags="0x4"/>
    </TTGlyph>
    <TTGlyph name="T" xMin="26" yMin="0" xMax="537" yMax="568">
      <contour>
        <pt x="435" y="0" on="1"/>
        <pt x="127" y="0" on="1"/>
        <pt x="127" y="42" on="1"/>
        <pt x="213" y="56" on="1"/>
        <pt x="222" y="57" on="0"/>
        <pt x="232" y="67" on="0"/>
        <pt x="232" y="77" on="1"/>
        <pt x="232" y="522" on="1"/>
        <pt x="193" y="522" on="1"/>
        <pt x="172" y="522" on="0"/>
        <pt x="136" y="518" on="0"/>
        <pt x="126" y="515" on="1"/>
        <pt x="118" y="512" on="0"/>
        <pt x="109" y="502" on="0"/>
        <pt x="107" y="493" on="1"/>
        <pt x="81" y="383" on="1"/>
        <pt x="30" y="383" on="1"/>
        <pt x="26" y="433" on="0"/>
        <pt x="26" y="521" on="0"/>
        <pt x="31" y="568" on="1"/>
        <pt x="532" y="568" on="1"/>
        <pt x="537" y="521" on="0"/>
        <pt x="536" y="432" on="0"/>
        <pt x="532" y="383" on="1"/>
        <pt x="481" y="383" on="1"/>
        <pt x="454" y="494" on="1"/>
        <pt x="453" y="502" on="0"/>
        <pt x="443" y="512" on="0"/>
        <pt x="436" y="515" on="1"/>
        <pt x="426" y="518" on="0"/>
        <pt x="392" y="522" on="0"/>
        <pt x="370" y="522" on="1"/>
        <pt x="331" y="522" on="1"/>
        <pt x="331" y="77" on="1"/>
        <pt x="331" y="67" on="0"/>
        <pt x="341" y="57" on="0"/>
        <pt x="350" y="56" on="1"/>
        <pt x="435" y="42" on="1"/>
      </contour>
    </TTGlyph>
    <TTGlyph name="Tbar" xMin="26" yMin="0" xMax="537" yMax="568">
      <contour>
        <pt x="435" y="42" on="1"/>
        <pt x="435" y="0" on="1"/>
        <pt x="127" y="0" on="1"/>
        <pt x="127" y="42" on="1"/>
        <pt x="213" y="56" on="1"/>
        <pt x="222" y="57" on="0"/>
        <pt x="232" y="67" on="0"/>
        <pt x="232" y="77" on="1"/>
        <pt x="232" y="234" on="1"/>
        <pt x="138" y="234" on="1"/>
        <pt x="138" y="284" on="1"/>
        <pt x="232" y="284" on="1"/>
        <pt x="232" y="522" on="1"/>
        <pt x="193" y="522" on="1"/>
        <pt x="172" y="522" on="0"/>
        <pt x="136" y="518" on="0"/>
        <pt x="126" y="515" on="1"/>
        <pt x="118" y="512" on="0"/>
        <pt x="109" y="502" on="0"/>
        <pt x="107" y="493" on="1"/>
        <pt x="81" y="383" on="1"/>
        <pt x="30" y="383" on="1"/>
        <pt x="26" y="433" on="0"/>
        <pt x="26" y="521" on="0"/>
        <pt x="31" y="568" on="1"/>
        <pt x="532" y="568" on="1"/>
        <pt x="537" y="521" on="0"/>
        <pt x="536" y="432" on="0"/>
        <pt x="532" y="383" on="1"/>
        <pt x="481" y="383" on="1"/>
        <pt x="454" y="494" on="1"/>
        <pt x="453" y="502" on="0"/>
        <pt x="443" y="512" on="0"/>
        <pt x="436" y="515" on="1"/>
        <pt x="426" y="518" on="0"/>
        <pt x="392" y="522" on="0"/>
        <pt x="370" y="522" on="1"/>
        <pt x="331" y="522" on="1"/>
        <pt x="331" y="284" on="1"/>
        <pt x="424" y="284" on="1"/>
        <pt x="424" y="234" on="1"/>
        <pt x="331" y="234" on="1"/>
        <pt x="331" y="77" on="1"/>
        <pt x="331" y="67" on="0"/>
        <pt x="341" y="57" on="0"/>
        <pt x="350" y="56" on="1"/>
      </contour>
    </TTGlyph>
    <TTGlyph name="Tcaron" xMin="26" yMin="0" xMax="537" yMax="759">
      <component glyphName="T" x="0" y="0" flags="0x204"/>
      <component glyphName="uni030C.case" x="282" y="0" flags="0x4"/>
    </TTGlyph>
    <TTGlyph name="Thorn" xMin="41" yMin="0" xMax="489" yMax="568">
      <contour>
        <pt x="281" y="163" on="1"/>
        <pt x="327" y="163" on="0"/>
        <pt x="383" y="220" on="0"/>
        <pt x="383" y="289" on="1"/>
        <pt x="383" y="340" on="0"/>
        <pt x="336" y="402" on="0"/>
        <pt x="277" y="401" on="1"/>
        <pt x="260" y="401" on="0"/>
        <pt x="225" y="399" on="0"/>
        <pt x="209" y="397" on="1"/>
        <pt x="209" y="168" on="1"/>
        <pt x="228" y="166" on="0"/>
        <pt x="264" y="163" on="0"/>
      </contour>
      <contour>
        <pt x="288" y="42" on="1"/>
        <pt x="288" y="0" on="1"/>
        <pt x="41" y="0" on="1"/>
        <pt x="41" y="42" on="1"/>
        <pt x="92" y="53" on="1"/>
        <pt x="101" y="54" on="0"/>
        <pt x="110" y="66" on="0"/>
        <pt x="110" y="75" on="1"/>
        <pt x="110" y="491" on="1"/>
        <pt x="110" y="500" on="0"/>
        <pt x="101" y="512" on="0"/>
        <pt x="92" y="513" on="1"/>
        <pt x="41" y="525" on="1"/>
        <pt x="41" y="568" on="1"/>
        <pt x="288" y="568" on="1"/>
        <pt x="288" y="525" on="1"/>
        <pt x="227" y="513" on="1"/>
        <pt x="218" y="512" on="0"/>
        <pt x="209" y="501" on="0"/>
        <pt x="209" y="491" on="1"/>
        <pt x="209" y="441" on="1"/>
        <pt x="237" y="444" on="0"/>
        <pt x="290" y="448" on="0"/>
        <pt x="316" y="448" on="1"/>
        <pt x="401" y="448" on="0"/>
        <pt x="489" y="372" on="0"/>
        <pt x="489" y="293" on="1"/>
        <pt x="489" y="204" on="0"/>
        <pt x="388" y="120" on="0"/>
        <pt x="295" y="120" on="1"/>
        <pt x="268" y="120" on="0"/>
        <pt x="228" y="122" on="0"/>
        <pt x="209" y="124" on="1"/>
        <pt x="209" y="75" on="1"/>
        <pt x="209" y="66" on="0"/>
        <pt x="218" y="54" on="0"/>
        <pt x="227" y="53" on="1"/>
      </contour>
    </TTGlyph>
    <TTGlyph name="U" xMin="35" yMin="-8" xMax="586" yMax="568">
      <contour>
        <pt x="379" y="568" on="1"/>
        <pt x="586" y="568" on="1"/>
        <pt x="586" y="525" on="1"/>
        <pt x="543" y="514" on="1"/>
        <pt x="534" y="512" on="0"/>
        <pt x="526" y="501" on="0"/>
        <pt x="526" y="492" on="1"/>
        <pt x="526" y="210" on="1"/>
        <pt x="526" y="94" on="0"/>
        <pt x="410" y="-8" on="0"/>
        <pt x="309" y="-8" on="1"/>
        <pt x="199" y="-8" on="0"/>
        <pt x="92" y="102" on="0"/>
        <pt x="92" y="217" on="1"/>
        <pt x="92" y="492" on="1"/>
        <pt x="92" y="501" on="0"/>
        <pt x="83" y="512" on="0"/>
        <pt x="75" y="514" on="1"/>
        <pt x="35" y="525" on="1"/>
        <pt x="35" y="568" on="1"/>
        <pt x="276" y="568" on="1"/>
        <pt x="276" y="525" on="1"/>
        <pt x="213" y="513" on="1"/>
        <pt x="205" y="512" on="0"/>
        <pt x="195" y="499" on="0"/>
        <pt x="195" y="490" on="1"/>
        <pt x="195" y="208" on="1"/>
        <pt x="195" y="118" on="0"/>
        <pt x="263" y="37" on="0"/>
        <pt x="326" y="37" on="1"/>
        <pt x="398" y="37" on="0"/>
        <pt x="459" y="127" on="0"/>
        <pt x="459" y="205" on="1"/>
        <pt x="459" y="491" on="1"/>
        <pt x="459" y="501" on="0"/>
        <pt x="451" y="512" on="0"/>
        <pt x="442" y="513" on="1"/>
        <pt x="379" y="525" on="1"/>
      </contour>
    </TTGlyph>
    <TTGlyph name="Uacute" xMin="35" yMin="-8" xMax="586" yMax="762">
      <component glyphName="U" x="0" y="0" flags="0x204"/>
      <component glyphName="acutecomb.case" x="318" y="0" flags="0x4"/>
    </TTGlyph>
    <TTGlyph name="Ubreve" xMin="35" yMin="-8" xMax="586" yMax="745">
      <component glyphName="U" x="0" y="0" flags="0x204"/>
      <component glyphName="uni0306.case" x="318" y="0" flags="0x4"/>
    </TTGlyph>
    <TTGlyph name="Ucircumflex" xMin="35" yMin="-8" xMax="586" yMax="754">
      <component glyphName="U" x="0" y="0" flags="0x204"/>
      <component glyphName="uni0302.case" x="318" y="0" flags="0x4"/>
    </TTGlyph>
    <TTGlyph name="Udieresis" xMin="35" yMin="-8" xMax="586" yMax="723">
      <component glyphName="U" x="0" y="0" flags="0x204"/>
      <component glyphName="uni0308.case" x="318" y="0" flags="0x4"/>
    </TTGlyph>
    <TTGlyph name="Ugrave" xMin="35" yMin="-8" xMax="586" yMax="766">
      <component glyphName="U" x="0" y="0" flags="0x204"/>
      <component glyphName="gravecomb.case" x="318" y="0" flags="0x4"/>
    </TTGlyph>
    <TTGlyph name="Uhungarumlaut" xMin="35" yMin="-8" xMax="586" yMax="767">
      <component glyphName="U" x="0" y="0" flags="0x204"/>
      <component glyphName="uni030B.case" x="318" y="0" flags="0x4"/>
    </TTGlyph>
    <TTGlyph name="Umacron" xMin="35" yMin="-8" xMax="586" yMax="698">
      <component glyphName="U" x="0" y="0" flags="0x204"/>
      <component glyphName="uni0304.case" x="318" y="0" flags="0x4"/>
    </TTGlyph>
    <TTGlyph name="Uogonek" xMin="35" yMin="-188" xMax="586" yMax="568">
      <contour>
        <pt x="350" y="-188" on="1"/>
        <pt x="310" y="-188" on="0"/>
        <pt x="255" y="-152" on="0"/>
        <pt x="255" y="-116" on="1"/>
        <pt x="255" y="-77" on="0"/>
        <pt x="317" y="-23" on="0"/>
        <pt x="349" y="-8" on="1"/>
        <pt x="349" y="-6" on="1"/>
        <pt x="339" y="-7" on="0"/>
        <pt x="319" y="-8" on="0"/>
        <pt x="309" y="-8" on="1"/>
        <pt x="199" y="-8" on="0"/>
        <pt x="92" y="102" on="0"/>
        <pt x="92" y="217" on="1"/>
        <pt x="92" y="492" on="1"/>
        <pt x="92" y="501" on="0"/>
        <pt x="83" y="512" on="0"/>
        <pt x="75" y="514" on="1"/>
        <pt x="35" y="525" on="1"/>
        <pt x="35" y="568" on="1"/>
        <pt x="276" y="568" on="1"/>
        <pt x="276" y="525" on="1"/>
        <pt x="213" y="513" on="1"/>
        <pt x="205" y="512" on="0"/>
        <pt x="195" y="499" on="0"/>
        <pt x="195" y="490" on="1"/>
        <pt x="195" y="208" on="1"/>
        <pt x="195" y="118" on="0"/>
        <pt x="263" y="37" on="0"/>
        <pt x="326" y="37" on="1"/>
        <pt x="398" y="37" on="0"/>
        <pt x="459" y="127" on="0"/>
        <pt x="459" y="205" on="1"/>
        <pt x="459" y="491" on="1"/>
        <pt x="459" y="501" on="0"/>
        <pt x="451" y="512" on="0"/>
        <pt x="442" y="513" on="1"/>
        <pt x="379" y="525" on="1"/>
        <pt x="379" y="568" on="1"/>
        <pt x="586" y="568" on="1"/>
        <pt x="586" y="525" on="1"/>
        <pt x="543" y="514" on="1"/>
        <pt x="534" y="512" on="0"/>
        <pt x="526" y="501" on="0"/>
        <pt x="526" y="492" on="1"/>
        <pt x="526" y="210" on="1"/>
        <pt x="526" y="143" on="0"/>
        <pt x="485" y="50" on="0"/>
        <pt x="446" y="25" on="1"/>
        <pt x="395" y="-9" on="0"/>
        <pt x="335" y="-64" on="0"/>
        <pt x="335" y="-92" on="1"/>
        <pt x="335" y="-113" on="0"/>
        <pt x="363" y="-132" on="0"/>
        <pt x="385" y="-132" on="1"/>
        <pt x="395" y="-132" on="0"/>
        <pt x="421" y="-127" on="0"/>
        <pt x="432" y="-122" on="1"/>
        <pt x="448" y="-161" on="1"/>
        <pt x="429" y="-174" on="0"/>
        <pt x="375" y="-188" on="0"/>
      </contour>
    </TTGlyph>
    <TTGlyph name="Uring" xMin="35" yMin="-8" xMax="586" yMax="778">
      <component glyphName="U" x="0" y="0" flags="0x204"/>
      <component glyphName="uni030A.case" x="318" y="0" flags="0x4"/>
    </TTGlyph>
    <TTGlyph name="Utilde" xMin="35" yMin="-8" xMax="586" yMax="733">
      <component glyphName="U" x="0" y="0" flags="0x204"/>
      <component glyphName="tildecomb.case" x="318" y="0" flags="0x4"/>
    </TTGlyph>
    <TTGlyph name="V" xMin="-5" yMin="-2" xMax="568" yMax="568">
      <contour>
        <pt x="335" y="-2" on="1"/>
        <pt x="245" y="-2" on="1"/>
        <pt x="60" y="495" on="1"/>
        <pt x="57" y="503" on="0"/>
        <pt x="46" y="512" on="0"/>
        <pt x="39" y="513" on="1"/>
        <pt x="-5" y="525" on="1"/>
        <pt x="-5" y="568" on="1"/>
        <pt x="233" y="568" on="1"/>
        <pt x="233" y="525" on="1"/>
        <pt x="160" y="511" on="1"/>
        <pt x="309" y="91" on="1"/>
        <pt x="443" y="511" on="1"/>
        <pt x="370" y="525" on="1"/>
        <pt x="370" y="568" on="1"/>
        <pt x="568" y="568" on="1"/>
        <pt x="568" y="525" on="1"/>
        <pt x="522" y="513" on="1"/>
        <pt x="515" y="512" on="0"/>
        <pt x="504" y="503" on="0"/>
        <pt x="501" y="495" on="1"/>
      </contour>
    </TTGlyph>
    <TTGlyph name="W" xMin="-2" yMin="-3" xMax="824" yMax="568">
      <contour>
        <pt x="521" y="-3" on="1"/>
        <pt x="414" y="362" on="1"/>
        <pt x="311" y="-3" on="1"/>
        <pt x="219" y="-3" on="1"/>
        <pt x="63" y="494" on="1"/>
        <pt x="61" y="501" on="0"/>
        <pt x="51" y="512" on="0"/>
        <pt x="43" y="513" on="1"/>
        <pt x="-2" y="525" on="1"/>
        <pt x="-2" y="568" on="1"/>
        <pt x="232" y="568" on="1"/>
        <pt x="232" y="525" on="1"/>
        <pt x="163" y="511" on="1"/>
        <pt x="283" y="91" on="1"/>
        <pt x="386" y="450" on="1"/>
        <pt x="371" y="494" on="1"/>
        <pt x="368" y="501" on="0"/>
        <pt x="358" y="511" on="0"/>
        <pt x="351" y="513" on="1"/>
        <pt x="315" y="525" on="1"/>
        <pt x="315" y="568" on="1"/>
        <pt x="543" y="568" on="1"/>
        <pt x="543" y="525" on="1"/>
        <pt x="469" y="511" on="1"/>
        <pt x="586" y="96" on="1"/>
        <pt x="700" y="511" on="1"/>
        <pt x="630" y="525" on="1"/>
        <pt x="630" y="568" on="1"/>
        <pt x="824" y="568" on="1"/>
        <pt x="824" y="525" on="1"/>
        <pt x="777" y="513" on="1"/>
        <pt x="769" y="512" on="0"/>
        <pt x="759" y="503" on="0"/>
        <pt x="756" y="494" on="1"/>
        <pt x="613" y="-3" on="1"/>
      </contour>
    </TTGlyph>
    <TTGlyph name="Wacute" xMin="-2" yMin="-3" xMax="824" yMax="762">
      <component glyphName="W" x="0" y="0" flags="0x204"/>
      <component glyphName="acutecomb.case" x="414" y="0" flags="0x4"/>
    </TTGlyph>
    <TTGlyph name="Wcircumflex" xMin="-2" yMin="-3" xMax="824" yMax="754">
      <component glyphName="W" x="0" y="0" flags="0x204"/>
      <component glyphName="uni0302.case" x="414" y="0" flags="0x4"/>
    </TTGlyph>
    <TTGlyph name="Wdieresis" xMin="-2" yMin="-3" xMax="824" yMax="723">
      <component glyphName="W" x="0" y="0" flags="0x204"/>
      <component glyphName="uni0308.case" x="414" y="0" flags="0x4"/>
    </TTGlyph>
    <TTGlyph name="Wgrave" xMin="-2" yMin="-3" xMax="824" yMax="766">
      <component glyphName="W" x="0" y="0" flags="0x204"/>
      <component glyphName="gravecomb.case" x="414" y="0" flags="0x4"/>
    </TTGlyph>
    <TTGlyph name="X" xMin="8" yMin="0" xMax="546" yMax="568">
      <contour>
        <pt x="213" y="42" on="1"/>
        <pt x="213" y="0" on="1"/>
        <pt x="8" y="0" on="1"/>
        <pt x="8" y="42" on="1"/>
        <pt x="60" y="53" on="1"/>
        <pt x="67" y="54" on="0"/>
        <pt x="77" y="61" on="0"/>
        <pt x="82" y="68" on="1"/>
        <pt x="227" y="276" on="1"/>
        <pt x="83" y="497" on="1"/>
        <pt x="79" y="504" on="0"/>
        <pt x="68" y="511" on="0"/>
        <pt x="61" y="513" on="1"/>
        <pt x="19" y="525" on="1"/>
        <pt x="19" y="568" on="1"/>
        <pt x="257" y="568" on="1"/>
        <pt x="257" y="525" on="1"/>
        <pt x="191" y="512" on="1"/>
        <pt x="295" y="343" on="1"/>
        <pt x="406" y="512" on="1"/>
        <pt x="341" y="525" on="1"/>
        <pt x="341" y="568" on="1"/>
        <pt x="531" y="568" on="1"/>
        <pt x="531" y="525" on="1"/>
        <pt x="484" y="513" on="1"/>
        <pt x="477" y="512" on="0"/>
        <pt x="466" y="505" on="0"/>
        <pt x="462" y="498" on="1"/>
        <pt x="325" y="304" on="1"/>
        <pt x="481" y="68" on="1"/>
        <pt x="485" y="61" on="0"/>
        <pt x="497" y="54" on="0"/>
        <pt x="504" y="53" on="1"/>
        <pt x="546" y="42" on="1"/>
        <pt x="546" y="0" on="1"/>
        <pt x="307" y="0" on="1"/>
        <pt x="307" y="42" on="1"/>
        <pt x="372" y="54" on="1"/>
        <pt x="258" y="235" on="1"/>
        <pt x="140" y="54" on="1"/>
      </contour>
    </TTGlyph>
    <TTGlyph name="Y" xMin="-5" yMin="0" xMax="534" yMax="568">
      <contour>
        <pt x="413" y="0" on="1"/>
        <pt x="134" y="0" on="1"/>
        <pt x="134" y="42" on="1"/>
        <pt x="203" y="56" on="1"/>
        <pt x="213" y="57" on="0"/>
        <pt x="222" y="67" on="0"/>
        <pt x="222" y="77" on="1"/>
        <pt x="222" y="219" on="1"/>
        <pt x="63" y="497" on="1"/>
        <pt x="59" y="504" on="0"/>
        <pt x="48" y="512" on="0"/>
        <pt x="41" y="514" on="1"/>
        <pt x="-5" y="525" on="1"/>
        <pt x="-5" y="568" on="1"/>
        <pt x="236" y="568" on="1"/>
        <pt x="236" y="525" on="1"/>
        <pt x="172" y="511" on="1"/>
        <pt x="295" y="285" on="1"/>
        <pt x="408" y="511" on="1"/>
        <pt x="342" y="525" on="1"/>
        <pt x="342" y="568" on="1"/>
        <pt x="534" y="568" on="1"/>
        <pt x="534" y="525" on="1"/>
        <pt x="490" y="515" on="1"/>
        <pt x="483" y="513" on="0"/>
        <pt x="472" y="505" on="0"/>
        <pt x="468" y="498" on="1"/>
        <pt x="324" y="218" on="1"/>
        <pt x="324" y="77" on="1"/>
        <pt x="324" y="67" on="0"/>
        <pt x="333" y="57" on="0"/>
        <pt x="343" y="56" on="1"/>
        <pt x="413" y="42" on="1"/>
      </contour>
    </TTGlyph>
    <TTGlyph name="Yacute" xMin="-5" yMin="0" xMax="534" yMax="762">
      <component glyphName="Y" x="0" y="0" flags="0x204"/>
      <component glyphName="acutecomb.case" x="274" y="0" flags="0x4"/>
    </TTGlyph>
    <TTGlyph name="Ycircumflex" xMin="-5" yMin="0" xMax="534" yMax="754">
      <component glyphName="Y" x="0" y="0" flags="0x204"/>
      <component glyphName="uni0302.case" x="274" y="0" flags="0x4"/>
    </TTGlyph>
    <TTGlyph name="Ydieresis" xMin="-5" yMin="0" xMax="534" yMax="723">
      <component glyphName="Y" x="0" y="0" flags="0x204"/>
      <component glyphName="uni0308.case" x="274" y="0" flags="0x4"/>
    </TTGlyph>
    <TTGlyph name="Ygrave" xMin="-5" yMin="0" xMax="534" yMax="766">
      <component glyphName="Y" x="0" y="0" flags="0x204"/>
      <component glyphName="gravecomb.case" x="274" y="0" flags="0x4"/>
    </TTGlyph>
    <TTGlyph name="Z" xMin="23" yMin="0" xMax="464" yMax="569">
      <contour>
        <pt x="450" y="0" on="1"/>
        <pt x="44" y="0" on="1"/>
        <pt x="23" y="37" on="1"/>
        <pt x="342" y="522" on="1"/>
        <pt x="240" y="522" on="1"/>
        <pt x="215" y="522" on="0"/>
        <pt x="176" y="518" on="0"/>
        <pt x="164" y="514" on="1"/>
        <pt x="156" y="511" on="0"/>
        <pt x="146" y="501" on="0"/>
        <pt x="143" y="492" on="1"/>
        <pt x="115" y="398" on="1"/>
        <pt x="60" y="398" on="1"/>
        <pt x="58" y="439" on="0"/>
        <pt x="63" y="529" on="0"/>
        <pt x="70" y="569" on="1"/>
        <pt x="446" y="569" on="1"/>
        <pt x="464" y="532" on="1"/>
        <pt x="149" y="50" on="1"/>
        <pt x="281" y="50" on="1"/>
        <pt x="305" y="50" on="0"/>
        <pt x="344" y="54" on="0"/>
        <pt x="356" y="58" on="1"/>
        <pt x="364" y="61" on="0"/>
        <pt x="374" y="72" on="0"/>
        <pt x="377" y="81" on="1"/>
        <pt x="409" y="180" on="1"/>
        <pt x="463" y="174" on="1"/>
        <pt x="464" y="137" on="0"/>
        <pt x="457" y="38" on="0"/>
      </contour>
    </TTGlyph>
    <TTGlyph name="Zacute" xMin="23" yMin="0" xMax="464" yMax="762">
      <component glyphName="Z" x="0" y="0" flags="0x204"/>
      <component glyphName="acutecomb.case" x="267" y="0" flags="0x4"/>
    </TTGlyph>
    <TTGlyph name="Zcaron" xMin="23" yMin="0" xMax="464" yMax="759">
      <component glyphName="Z" x="0" y="0" flags="0x204"/>
      <component glyphName="uni030C.case" x="267" y="0" flags="0x4"/>
    </TTGlyph>
    <TTGlyph name="Zdotaccent" xMin="23" yMin="0" xMax="464" yMax="736">
      <component glyphName="Z" x="0" y="0" flags="0x204"/>
      <component glyphName="uni0307.case" x="267" y="0" flags="0x4"/>
    </TTGlyph>
    <TTGlyph name="__periodcentered.CAT" xMin="-21" yMin="216" xMax="100" yMax="330">
      <contour>
        <pt x="100" y="273" on="1"/>
        <pt x="100" y="248" on="0"/>
        <pt x="67" y="216" on="0"/>
        <pt x="40" y="216" on="1"/>
        <pt x="13" y="216" on="0"/>
        <pt x="-21" y="248" on="0"/>
        <pt x="-21" y="273" on="1"/>
        <pt x="-21" y="299" on="0"/>
        <pt x="13" y="330" on="0"/>
        <pt x="40" y="330" on="1"/>
        <pt x="67" y="330" on="0"/>
        <pt x="100" y="299" on="0"/>
      </contour>
    </TTGlyph>
    <TTGlyph name="__periodcentered.CAT.case" xMin="-153" yMin="262" xMax="-33" yMax="376">
      <contour>
        <pt x="-33" y="319" on="1"/>
        <pt x="-33" y="294" on="0"/>
        <pt x="-66" y="262" on="0"/>
        <pt x="-93" y="262" on="1"/>
        <pt x="-120" y="262" on="0"/>
        <pt x="-153" y="294" on="0"/>
        <pt x="-153" y="319" on="1"/>
        <pt x="-153" y="345" on="0"/>
        <pt x="-120" y="376" on="0"/>
        <pt x="-93" y="376" on="1"/>
        <pt x="-66" y="376" on="0"/>
        <pt x="-33" y="345" on="0"/>
      </contour>
    </TTGlyph>
    <TTGlyph name="a" xMin="32" yMin="-8" xMax="426" yMax="423">
      <contour>
        <pt x="187" y="50" on="1"/>
        <pt x="210" y="50" on="0"/>
        <pt x="256" y="66" on="0"/>
        <pt x="272" y="80" on="1"/>
        <pt x="272" y="174" on="1"/>
        <pt x="213" y="169" on="1"/>
        <pt x="172" y="167" on="0"/>
        <pt x="132" y="133" on="0"/>
        <pt x="132" y="103" on="1"/>
        <pt x="132" y="78" on="0"/>
        <pt x="159" y="50" on="0"/>
      </contour>
      <contour>
        <pt x="351" y="-7" on="1"/>
        <pt x="323" y="-7" on="0"/>
        <pt x="285" y="19" on="0"/>
        <pt x="277" y="45" on="1"/>
        <pt x="255" y="20" on="0"/>
        <pt x="188" y="-8" on="0"/>
        <pt x="150" y="-8" on="1"/>
        <pt x="99" y="-8" on="0"/>
        <pt x="32" y="45" on="0"/>
        <pt x="32" y="93" on="1"/>
        <pt x="32" y="154" on="0"/>
        <pt x="134" y="206" on="0"/>
        <pt x="192" y="210" on="1"/>
        <pt x="272" y="216" on="1"/>
        <pt x="272" y="263" on="1"/>
        <pt x="272" y="315" on="0"/>
        <pt x="229" y="356" on="0"/>
        <pt x="186" y="356" on="1"/>
        <pt x="152" y="356" on="0"/>
        <pt x="91" y="334" on="0"/>
        <pt x="66" y="311" on="1"/>
        <pt x="44" y="332" on="1"/>
        <pt x="60" y="375" on="0"/>
        <pt x="150" y="423" on="0"/>
        <pt x="213" y="423" on="1"/>
        <pt x="291" y="423" on="0"/>
        <pt x="366" y="347" on="0"/>
        <pt x="366" y="271" on="1"/>
        <pt x="366" y="74" on="1"/>
        <pt x="366" y="62" on="0"/>
        <pt x="376" y="52" on="0"/>
        <pt x="386" y="51" on="1"/>
        <pt x="426" y="46" on="1"/>
        <pt x="426" y="7" on="1"/>
        <pt x="415" y="4" on="0"/>
        <pt x="370" y="-7" on="0"/>
      </contour>
    </TTGlyph>
    <TTGlyph name="aacute" xMin="32" yMin="-8" xMax="426" yMax="647">
      <component glyphName="a" x="0" y="0" flags="0x204"/>
      <component glyphName="acutecomb" x="214" y="0" flags="0x4"/>
    </TTGlyph>
    <TTGlyph name="abreve" xMin="32" yMin="-8" xMax="426" yMax="607">
      <component glyphName="a" x="0" y="0" flags="0x204"/>
      <component glyphName="uni0306" x="214" y="0" flags="0x4"/>
    </TTGlyph>
    <TTGlyph name="acircumflex" xMin="32" yMin="-8" xMax="426" yMax="635">
      <component glyphName="a" x="0" y="0" flags="0x204"/>
      <component glyphName="uni0302" x="214" y="0" flags="0x4"/>
    </TTGlyph>
    <TTGlyph name="acute" xMin="120" yMin="457" xMax="316" yMax="647">
      <component glyphName="acutecomb" x="182" y="0" flags="0x4"/>
    </TTGlyph>
    <TTGlyph name="acutecomb" xMin="-62" yMin="457" xMax="134" yMax="647">
      <contour>
        <pt x="-35" y="457" on="1"/>
        <pt x="-62" y="488" on="1"/>
        <pt x="74" y="647" on="1"/>
        <pt x="134" y="594" on="1"/>
        <pt x="109" y="563" on="0"/>
        <pt x="14" y="486" on="0"/>
      </contour>
    </TTGlyph>
    <TTGlyph name="acutecomb.case" xMin="-84" yMin="607" xMax="142" yMax="762">
      <contour>
        <pt x="142" y="696" on="1"/>
        <pt x="108" y="671" on="0"/>
        <pt x="-15" y="623" on="0"/>
        <pt x="-66" y="607" on="1"/>
        <pt x="-84" y="642" on="1"/>
        <pt x="96" y="762" on="1"/>
      </contour>
    </TTGlyph>
    <TTGlyph name="adieresis" xMin="32" yMin="-8" xMax="426" yMax="587">
      <component glyphName="a" x="0" y="0" flags="0x204"/>
      <component glyphName="uni0308" x="214" y="0" flags="0x4"/>
    </TTGlyph>
    <TTGlyph name="ae" xMin="32" yMin="-9" xMax="623" yMax="425">
      <contour>
        <pt x="456" y="379" on="1"/>
        <pt x="422" y="379" on="0"/>
        <pt x="377" y="328" on="0"/>
        <pt x="370" y="271" on="1"/>
        <pt x="530" y="271" on="1"/>
        <pt x="531" y="275" on="0"/>
        <pt x="531" y="283" on="0"/>
        <pt x="531" y="288" on="1"/>
        <pt x="531" y="328" on="0"/>
        <pt x="493" y="379" on="0"/>
      </contour>
      <contour>
        <pt x="621" y="91" on="1"/>
        <pt x="606" y="44" on="0"/>
        <pt x="515" y="-9" on="0"/>
        <pt x="456" y="-9" on="1"/>
        <pt x="403" y="-9" on="0"/>
        <pt x="329" y="30" on="0"/>
        <pt x="307" y="64" on="1"/>
        <pt x="282" y="30" on="0"/>
        <pt x="201" y="-8" on="0"/>
        <pt x="153" y="-8" on="1"/>
        <pt x="98" y="-8" on="0"/>
        <pt x="32" y="45" on="0"/>
        <pt x="32" y="92" on="1"/>
        <pt x="32" y="154" on="0"/>
        <pt x="134" y="207" on="0"/>
        <pt x="192" y="210" on="1"/>
        <pt x="272" y="216" on="1"/>
        <pt x="272" y="263" on="1"/>
        <pt x="272" y="314" on="0"/>
        <pt x="226" y="356" on="0"/>
        <pt x="183" y="356" on="1"/>
        <pt x="153" y="356" on="0"/>
        <pt x="91" y="335" on="0"/>
        <pt x="66" y="311" on="1"/>
        <pt x="44" y="332" on="1"/>
        <pt x="59" y="376" on="0"/>
        <pt x="152" y="423" on="0"/>
        <pt x="207" y="423" on="1"/>
        <pt x="251" y="423" on="0"/>
        <pt x="310" y="395" on="0"/>
        <pt x="326" y="368" on="1"/>
        <pt x="351" y="396" on="0"/>
        <pt x="422" y="425" on="0"/>
        <pt x="467" y="425" on="1"/>
        <pt x="539" y="425" on="0"/>
        <pt x="623" y="349" on="0"/>
        <pt x="623" y="282" on="1"/>
        <pt x="623" y="271" on="0"/>
        <pt x="620" y="241" on="0"/>
        <pt x="618" y="229" on="1"/>
        <pt x="367" y="229" on="1"/>
        <pt x="367" y="224" on="1"/>
        <pt x="367" y="129" on="0"/>
        <pt x="432" y="54" on="0"/>
        <pt x="483" y="54" on="1"/>
        <pt x="515" y="54" on="0"/>
        <pt x="576" y="83" on="0"/>
        <pt x="594" y="108" on="1"/>
      </contour>
      <contour>
        <pt x="187" y="50" on="1"/>
        <pt x="212" y="50" on="0"/>
        <pt x="269" y="71" on="0"/>
        <pt x="292" y="92" on="1"/>
        <pt x="284" y="110" on="0"/>
        <pt x="274" y="152" on="0"/>
        <pt x="273" y="174" on="1"/>
        <pt x="213" y="169" on="1"/>
        <pt x="171" y="167" on="0"/>
        <pt x="132" y="133" on="0"/>
        <pt x="132" y="103" on="1"/>
        <pt x="132" y="78" on="0"/>
        <pt x="159" y="50" on="0"/>
      </contour>
    </TTGlyph>
    <TTGlyph name="agrave" xMin="32" yMin="-8" xMax="426" yMax="647">
      <component glyphName="a" x="0" y="0" flags="0x204"/>
      <component glyphName="gravecomb" x="214" y="0" flags="0x4"/>
    </TTGlyph>
    <TTGlyph name="amacron" xMin="32" yMin="-8" xMax="426" yMax="555">
      <component glyphName="a" x="0" y="0" flags="0x204"/>
      <component glyphName="uni0304" x="214" y="0" flags="0x4"/>
    </TTGlyph>
    <TTGlyph name="ampersand" xMin="37" yMin="-10" xMax="557" yMax="577">
      <contour>
        <pt x="178" y="455" on="1"/>
        <pt x="178" y="431" on="0"/>
        <pt x="200" y="373" on="0"/>
        <pt x="234" y="327" on="1"/>
        <pt x="267" y="353" on="0"/>
        <pt x="305" y="421" on="0"/>
        <pt x="305" y="460" on="1"/>
        <pt x="305" y="495" on="0"/>
        <pt x="276" y="541" on="0"/>
        <pt x="246" y="541" on="1"/>
        <pt x="213" y="541" on="0"/>
        <pt x="178" y="491" on="0"/>
      </contour>
      <contour>
        <pt x="241" y="37" on="1"/>
        <pt x="265" y="37" on="0"/>
        <pt x="315" y="50" on="0"/>
        <pt x="337" y="65" on="1"/>
        <pt x="294" y="105" on="0"/>
        <pt x="205" y="210" on="0"/>
        <pt x="177" y="246" on="1"/>
        <pt x="157" y="229" on="0"/>
        <pt x="126" y="183" on="0"/>
        <pt x="126" y="147" on="1"/>
        <pt x="126" y="98" on="0"/>
        <pt x="187" y="37" on="0"/>
      </contour>
      <contour>
        <pt x="473" y="-6" on="1"/>
        <pt x="448" y="-6" on="0"/>
        <pt x="399" y="13" on="0"/>
        <pt x="370" y="36" on="1"/>
        <pt x="339" y="12" on="0"/>
        <pt x="258" y="-10" on="0"/>
        <pt x="218" y="-10" on="1"/>
        <pt x="143" y="-10" on="0"/>
        <pt x="37" y="59" on="0"/>
        <pt x="37" y="134" on="1"/>
        <pt x="37" y="199" on="0"/>
        <pt x="111" y="266" on="0"/>
        <pt x="151" y="281" on="1"/>
        <pt x="122" y="323" on="0"/>
        <pt x="88" y="397" on="0"/>
        <pt x="88" y="435" on="1"/>
        <pt x="88" y="495" on="0"/>
        <pt x="173" y="577" on="0"/>
        <pt x="248" y="577" on="1"/>
        <pt x="313" y="577" on="0"/>
        <pt x="388" y="511" on="0"/>
        <pt x="388" y="454" on="1"/>
        <pt x="388" y="401" on="0"/>
        <pt x="320" y="322" on="0"/>
        <pt x="257" y="297" on="1"/>
        <pt x="288" y="257" on="0"/>
        <pt x="371" y="162" on="0"/>
        <pt x="408" y="125" on="1"/>
        <pt x="425" y="150" on="0"/>
        <pt x="438" y="211" on="0"/>
        <pt x="438" y="236" on="1"/>
        <pt x="438" y="243" on="0"/>
        <pt x="433" y="257" on="0"/>
        <pt x="423" y="259" on="1"/>
        <pt x="366" y="271" on="1"/>
        <pt x="366" y="314" on="1"/>
        <pt x="557" y="314" on="1"/>
        <pt x="557" y="271" on="1"/>
        <pt x="520" y="259" on="1"/>
        <pt x="511" y="256" on="0"/>
        <pt x="505" y="247" on="0"/>
        <pt x="504" y="237" on="1"/>
        <pt x="497" y="198" on="0"/>
        <pt x="467" y="127" on="0"/>
        <pt x="436" y="97" on="1"/>
        <pt x="467" y="67" on="0"/>
        <pt x="513" y="52" on="0"/>
        <pt x="555" y="52" on="1"/>
        <pt x="555" y="9" on="1"/>
        <pt x="538" y="3" on="0"/>
        <pt x="494" y="-6" on="0"/>
      </contour>
    </TTGlyph>
    <TTGlyph name="aogonek" xMin="32" yMin="-188" xMax="426" yMax="423">
      <contour>
        <pt x="320" y="-188" on="1"/>
        <pt x="281" y="-188" on="0"/>
        <pt x="226" y="-153" on="0"/>
        <pt x="226" y="-116" on="1"/>
        <pt x="226" y="-78" on="0"/>
        <pt x="288" y="-20" on="0"/>
        <pt x="325" y="-4" on="1"/>
        <pt x="325" y="-4" on="1"/>
        <pt x="308" y="1" on="0"/>
        <pt x="283" y="26" on="0"/>
        <pt x="277" y="45" on="1"/>
        <pt x="255" y="20" on="0"/>
        <pt x="188" y="-8" on="0"/>
        <pt x="150" y="-8" on="1"/>
        <pt x="99" y="-8" on="0"/>
        <pt x="32" y="45" on="0"/>
        <pt x="32" y="93" on="1"/>
        <pt x="32" y="154" on="0"/>
        <pt x="134" y="206" on="0"/>
        <pt x="192" y="210" on="1"/>
        <pt x="272" y="216" on="1"/>
        <pt x="272" y="263" on="1"/>
        <pt x="272" y="315" on="0"/>
        <pt x="229" y="356" on="0"/>
        <pt x="186" y="356" on="1"/>
        <pt x="152" y="356" on="0"/>
        <pt x="91" y="334" on="0"/>
        <pt x="66" y="311" on="1"/>
        <pt x="44" y="332" on="1"/>
        <pt x="60" y="375" on="0"/>
        <pt x="150" y="423" on="0"/>
        <pt x="213" y="423" on="1"/>
        <pt x="291" y="423" on="0"/>
        <pt x="366" y="347" on="0"/>
        <pt x="366" y="271" on="1"/>
        <pt x="366" y="74" on="1"/>
        <pt x="366" y="62" on="0"/>
        <pt x="376" y="52" on="0"/>
        <pt x="386" y="51" on="1"/>
        <pt x="426" y="46" on="1"/>
        <pt x="426" y="7" on="1"/>
        <pt x="420" y="6" on="0"/>
        <pt x="400" y="0" on="0"/>
        <pt x="389" y="-2" on="1"/>
        <pt x="353" y="-18" on="0"/>
        <pt x="306" y="-66" on="0"/>
        <pt x="306" y="-92" on="1"/>
        <pt x="306" y="-112" on="0"/>
        <pt x="334" y="-132" on="0"/>
        <pt x="355" y="-132" on="1"/>
        <pt x="366" y="-132" on="0"/>
        <pt x="391" y="-127" on="0"/>
        <pt x="402" y="-122" on="1"/>
        <pt x="417" y="-161" on="1"/>
        <pt x="398" y="-174" on="0"/>
        <pt x="345" y="-188" on="0"/>
      </contour>
      <contour>
        <pt x="187" y="50" on="1"/>
        <pt x="210" y="50" on="0"/>
        <pt x="256" y="66" on="0"/>
        <pt x="272" y="80" on="1"/>
        <pt x="272" y="174" on="1"/>
        <pt x="213" y="169" on="1"/>
        <pt x="172" y="167" on="0"/>
        <pt x="132" y="133" on="0"/>
        <pt x="132" y="103" on="1"/>
        <pt x="132" y="78" on="0"/>
        <pt x="159" y="50" on="0"/>
      </contour>
    </TTGlyph>
    <TTGlyph name="approxequal" xMin="52" yMin="87" xMax="424" yMax="360">
      <component glyphName="asciitilde" x="1" y="-76" flags="0x4"/>
      <component glyphName="asciitilde" x="1" y="77" flags="0x4"/>
    </TTGlyph>
    <TTGlyph name="aring" xMin="32" yMin="-8" xMax="426" yMax="641">
      <component glyphName="a" x="0" y="0" flags="0x204"/>
      <component glyphName="uni030A" x="214" y="0" flags="0x4"/>
    </TTGlyph>
    <TTGlyph name="asciicircum" xMin="34" yMin="284" xMax="422" yMax="562">
      <contour>
        <pt x="379" y="284" on="1"/>
        <pt x="223" y="471" on="1"/>
        <pt x="72" y="284" on="1"/>
        <pt x="34" y="313" on="1"/>
        <pt x="184" y="556" on="1"/>
        <pt x="261" y="562" on="1"/>
        <pt x="422" y="313" on="1"/>
      </contour>
    </TTGlyph>
    <TTGlyph name="asciitilde" xMin="51" yMin="163" xMax="423" yMax="283">
      <contour>
        <pt x="423" y="254" on="1"/>
        <pt x="405" y="214" on="0"/>
        <pt x="342" y="163" on="0"/>
        <pt x="305" y="163" on="1"/>
        <pt x="262" y="163" on="0"/>
        <pt x="189" y="213" on="0"/>
        <pt x="155" y="213" on="1"/>
        <pt x="133" y="213" on="0"/>
        <pt x="95" y="187" on="0"/>
        <pt x="81" y="169" on="1"/>
        <pt x="51" y="192" on="1"/>
        <pt x="69" y="232" on="0"/>
        <pt x="132" y="283" on="0"/>
        <pt x="169" y="283" on="1"/>
        <pt x="212" y="283" on="0"/>
        <pt x="285" y="234" on="0"/>
        <pt x="319" y="234" on="1"/>
        <pt x="341" y="234" on="0"/>
        <pt x="379" y="259" on="0"/>
        <pt x="393" y="278" on="1"/>
      </contour>
    </TTGlyph>
    <TTGlyph name="asterisk" xMin="46" yMin="297" xMax="394" yMax="652">
      <contour>
        <pt x="253" y="379" on="1"/>
        <pt x="261" y="297" on="1"/>
        <pt x="179" y="297" on="1"/>
        <pt x="188" y="379" on="1"/>
        <pt x="207" y="453" on="1"/>
        <pt x="153" y="399" on="1"/>
        <pt x="87" y="351" on="1"/>
        <pt x="46" y="422" on="1"/>
        <pt x="121" y="455" on="1"/>
        <pt x="194" y="475" on="1"/>
        <pt x="121" y="495" on="1"/>
        <pt x="46" y="528" on="1"/>
        <pt x="87" y="599" on="1"/>
        <pt x="153" y="551" on="1"/>
        <pt x="207" y="497" on="1"/>
        <pt x="188" y="571" on="1"/>
        <pt x="179" y="652" on="1"/>
        <pt x="261" y="652" on="1"/>
        <pt x="253" y="571" on="1"/>
        <pt x="233" y="497" on="1"/>
        <pt x="288" y="551" on="1"/>
        <pt x="353" y="599" on="1"/>
        <pt x="394" y="528" on="1"/>
        <pt x="319" y="495" on="1"/>
        <pt x="246" y="475" on="1"/>
        <pt x="319" y="455" on="1"/>
        <pt x="394" y="422" on="1"/>
        <pt x="353" y="351" on="1"/>
        <pt x="288" y="399" on="1"/>
        <pt x="233" y="453" on="1"/>
      </contour>
    </TTGlyph>
    <TTGlyph name="asterisk.gujr" xMin="46" yMin="333" xMax="394" yMax="688">
      <component glyphName="asterisk" x="0" y="36" flags="0x4"/>
    </TTGlyph>
    <TTGlyph name="at" xMin="37" yMin="-189" xMax="731" yMax="565">
      <contour>
        <pt x="336" y="-189" on="1"/>
        <pt x="196" y="-189" on="0"/>
        <pt x="38" y="-12" on="0"/>
        <pt x="37" y="131" on="1"/>
        <pt x="37" y="227" on="0"/>
        <pt x="103" y="387" on="0"/>
        <pt x="215" y="501" on="0"/>
        <pt x="366" y="565" on="0"/>
        <pt x="448" y="565" on="1"/>
        <pt x="570" y="565" on="0"/>
        <pt x="731" y="422" on="0"/>
        <pt x="731" y="288" on="1"/>
        <pt x="731" y="213" on="0"/>
        <pt x="681" y="100" on="0"/>
        <pt x="612" y="26" on="0"/>
        <pt x="537" y="-12" on="0"/>
        <pt x="512" y="-12" on="1"/>
        <pt x="484" y="-12" on="0"/>
        <pt x="456" y="33" on="0"/>
        <pt x="456" y="69" on="1"/>
        <pt x="456" y="84" on="0"/>
        <pt x="461" y="129" on="0"/>
        <pt x="466" y="159" on="1"/>
        <pt x="441" y="93" on="0"/>
        <pt x="361" y="-17" on="0"/>
        <pt x="310" y="-17" on="1"/>
        <pt x="266" y="-17" on="0"/>
        <pt x="201" y="69" on="0"/>
        <pt x="201" y="139" on="1"/>
        <pt x="201" y="182" on="0"/>
        <pt x="228" y="271" on="0"/>
        <pt x="280" y="342" on="0"/>
        <pt x="354" y="387" on="0"/>
        <pt x="400" y="387" on="1"/>
        <pt x="421" y="387" on="0"/>
        <pt x="466" y="375" on="0"/>
        <pt x="491" y="362" on="1"/>
        <pt x="510" y="386" on="1"/>
        <pt x="566" y="368" on="1"/>
        <pt x="562" y="349" on="0"/>
        <pt x="549" y="281" on="0"/>
        <pt x="536" y="205" on="0"/>
        <pt x="527" y="129" on="0"/>
        <pt x="527" y="101" on="1"/>
        <pt x="527" y="72" on="0"/>
        <pt x="538" y="51" on="0"/>
        <pt x="550" y="51" on="1"/>
        <pt x="565" y="51" on="0"/>
        <pt x="607" y="79" on="0"/>
        <pt x="645" y="134" on="0"/>
        <pt x="672" y="215" on="0"/>
        <pt x="672" y="268" on="1"/>
        <pt x="672" y="334" on="0"/>
        <pt x="628" y="427" on="0"/>
        <pt x="557" y="485" on="0"/>
        <pt x="467" y="511" on="0"/>
        <pt x="421" y="511" on="1"/>
        <pt x="355" y="511" on="0"/>
        <pt x="239" y="461" on="0"/>
        <pt x="153" y="368" on="0"/>
        <pt x="104" y="235" on="0"/>
        <pt x="104" y="154" on="1"/>
        <pt x="104" y="8" on="0"/>
        <pt x="249" y="-135" on="0"/>
        <pt x="352" y="-135" on="1"/>
        <pt x="393" y="-135" on="0"/>
        <pt x="484" y="-116" on="0"/>
        <pt x="506" y="-101" on="1"/>
        <pt x="523" y="-135" on="1"/>
        <pt x="493" y="-160" on="0"/>
        <pt x="393" y="-189" on="0"/>
      </contour>
      <contour>
        <pt x="330" y="59" on="1"/>
        <pt x="361" y="59" on="0"/>
        <pt x="430" y="160" on="0"/>
        <pt x="453" y="233" on="1"/>
        <pt x="458" y="249" on="0"/>
        <pt x="467" y="281" on="0"/>
        <pt x="470" y="295" on="1"/>
        <pt x="453" y="313" on="0"/>
        <pt x="406" y="332" on="0"/>
        <pt x="387" y="332" on="1"/>
        <pt x="335" y="332" on="0"/>
        <pt x="282" y="228" on="0"/>
        <pt x="282" y="166" on="1"/>
        <pt x="282" y="126" on="0"/>
        <pt x="305" y="59" on="0"/>
      </contour>
    </TTGlyph>
    <TTGlyph name="atilde" xMin="32" yMin="-8" xMax="426" yMax="590">
      <component glyphName="a" x="0" y="0" flags="0x204"/>
      <component glyphName="tildecomb" x="214" y="0" flags="0x4"/>
    </TTGlyph>
    <TTGlyph name="b" xMin="-7" yMin="-8" xMax="438" yMax="654">
      <contour>
        <pt x="216" y="-8" on="1"/>
        <pt x="169" y="-8" on="0"/>
        <pt x="84" y="12" on="0"/>
        <pt x="64" y="20" on="1"/>
        <pt x="64" y="564" on="1"/>
        <pt x="64" y="573" on="0"/>
        <pt x="54" y="584" on="0"/>
        <pt x="45" y="585" on="1"/>
        <pt x="-7" y="593" on="1"/>
        <pt x="-7" y="633" on="1"/>
        <pt x="27" y="642" on="0"/>
        <pt x="112" y="653" on="0"/>
        <pt x="146" y="654" on="1"/>
        <pt x="159" y="642" on="1"/>
        <pt x="159" y="377" on="1"/>
        <pt x="181" y="399" on="0"/>
        <pt x="241" y="425" on="0"/>
        <pt x="279" y="425" on="1"/>
        <pt x="346" y="425" on="0"/>
        <pt x="438" y="331" on="0"/>
        <pt x="438" y="228" on="1"/>
        <pt x="438" y="118" on="0"/>
        <pt x="324" y="-8" on="0"/>
      </contour>
      <contour>
        <pt x="223" y="36" on="1"/>
        <pt x="277" y="36" on="0"/>
        <pt x="335" y="117" on="0"/>
        <pt x="336" y="206" on="1"/>
        <pt x="337" y="294" on="0"/>
        <pt x="284" y="364" on="0"/>
        <pt x="238" y="364" on="1"/>
        <pt x="215" y="364" on="0"/>
        <pt x="175" y="350" on="0"/>
        <pt x="159" y="337" on="1"/>
        <pt x="159" y="52" on="1"/>
        <pt x="171" y="45" on="0"/>
        <pt x="203" y="36" on="0"/>
      </contour>
    </TTGlyph>
    <TTGlyph name="backslash" xMin="23" yMin="-105" xMax="335" yMax="633">
      <contour>
        <pt x="335" y="-105" on="1"/>
        <pt x="256" y="-105" on="1"/>
        <pt x="23" y="633" on="1"/>
        <pt x="103" y="633" on="1"/>
      </contour>
    </TTGlyph>
    <TTGlyph name="bar" xMin="79" yMin="-112" xMax="154" yMax="690">
      <contour>
        <pt x="79" y="-112" on="1"/>
        <pt x="79" y="690" on="1"/>
        <pt x="154" y="690" on="1"/>
        <pt x="154" y="-112" on="1"/>
      </contour>
    </TTGlyph>
    <TTGlyph name="braceleft" xMin="11" yMin="-150" xMax="312" yMax="723">
      <contour>
        <pt x="312" y="-105" on="1"/>
        <pt x="306" y="-150" on="1"/>
        <pt x="290" y="-150" on="0"/>
        <pt x="248" y="-148" on="0"/>
        <pt x="227" y="-146" on="1"/>
        <pt x="158" y="-141" on="0"/>
        <pt x="94" y="-75" on="0"/>
        <pt x="94" y="-18" on="1"/>
        <pt x="94" y="36" on="0"/>
        <pt x="107" y="128" on="0"/>
        <pt x="107" y="168" on="1"/>
        <pt x="107" y="202" on="0"/>
        <pt x="76" y="248" on="0"/>
        <pt x="11" y="254" on="1"/>
        <pt x="11" y="320" on="1"/>
        <pt x="76" y="325" on="0"/>
        <pt x="107" y="372" on="0"/>
        <pt x="107" y="406" on="1"/>
        <pt x="107" y="445" on="0"/>
        <pt x="94" y="538" on="0"/>
        <pt x="94" y="590" on="1"/>
        <pt x="94" y="647" on="0"/>
        <pt x="158" y="714" on="0"/>
        <pt x="227" y="719" on="1"/>
        <pt x="248" y="720" on="0"/>
        <pt x="290" y="723" on="0"/>
        <pt x="306" y="723" on="1"/>
        <pt x="312" y="678" on="1"/>
        <pt x="263" y="668" on="1"/>
        <pt x="222" y="659" on="0"/>
        <pt x="183" y="618" on="0"/>
        <pt x="183" y="573" on="1"/>
        <pt x="183" y="533" on="0"/>
        <pt x="191" y="437" on="0"/>
        <pt x="191" y="395" on="1"/>
        <pt x="191" y="348" on="0"/>
        <pt x="135" y="299" on="0"/>
        <pt x="84" y="288" on="1"/>
        <pt x="135" y="278" on="0"/>
        <pt x="191" y="225" on="0"/>
        <pt x="191" y="178" on="1"/>
        <pt x="191" y="136" on="0"/>
        <pt x="183" y="39" on="0"/>
        <pt x="183" y="-1" on="1"/>
        <pt x="183" y="-45" on="0"/>
        <pt x="222" y="-87" on="0"/>
        <pt x="263" y="-95" on="1"/>
      </contour>
    </TTGlyph>
    <TTGlyph name="braceleft.gujr" xMin="11" yMin="-150" xMax="312" yMax="672">
      <contour>
        <pt x="312" y="-105" on="1"/>
        <pt x="306" y="-150" on="1"/>
        <pt x="290" y="-150" on="0"/>
        <pt x="248" y="-148" on="0"/>
        <pt x="227" y="-146" on="1"/>
        <pt x="158" y="-141" on="0"/>
        <pt x="94" y="-75" on="0"/>
        <pt x="94" y="-18" on="1"/>
        <pt x="94" y="28" on="0"/>
        <pt x="107" y="108" on="0"/>
        <pt x="107" y="142" on="1"/>
        <pt x="107" y="176" on="0"/>
        <pt x="76" y="223" on="0"/>
        <pt x="11" y="228" on="1"/>
        <pt x="11" y="294" on="1"/>
        <pt x="76" y="300" on="0"/>
        <pt x="107" y="346" on="0"/>
        <pt x="107" y="380" on="1"/>
        <pt x="107" y="414" on="0"/>
        <pt x="94" y="494" on="0"/>
        <pt x="94" y="539" on="1"/>
        <pt x="94" y="597" on="0"/>
        <pt x="158" y="663" on="0"/>
        <pt x="227" y="668" on="1"/>
        <pt x="248" y="669" on="0"/>
        <pt x="290" y="672" on="0"/>
        <pt x="306" y="672" on="1"/>
        <pt x="312" y="627" on="1"/>
        <pt x="263" y="617" on="1"/>
        <pt x="222" y="608" on="0"/>
        <pt x="183" y="567" on="0"/>
        <pt x="183" y="522" on="1"/>
        <pt x="183" y="488" on="0"/>
        <pt x="191" y="406" on="0"/>
        <pt x="191" y="369" on="1"/>
        <pt x="191" y="323" on="0"/>
        <pt x="135" y="273" on="0"/>
        <pt x="84" y="263" on="1"/>
        <pt x="135" y="253" on="0"/>
        <pt x="191" y="200" on="0"/>
        <pt x="191" y="153" on="1"/>
        <pt x="191" y="117" on="0"/>
        <pt x="183" y="33" on="0"/>
        <pt x="183" y="-1" on="1"/>
        <pt x="183" y="-45" on="0"/>
        <pt x="222" y="-87" on="0"/>
        <pt x="263" y="-95" on="1"/>
      </contour>
    </TTGlyph>
    <TTGlyph name="braceright" xMin="14" yMin="-150" xMax="316" yMax="723">
      <contour>
        <pt x="99" y="-146" on="1"/>
        <pt x="78" y="-148" on="0"/>
        <pt x="37" y="-150" on="0"/>
        <pt x="20" y="-150" on="1"/>
        <pt x="14" y="-105" on="1"/>
        <pt x="63" y="-96" on="1"/>
        <pt x="104" y="-87" on="0"/>
        <pt x="142" y="-45" on="0"/>
        <pt x="142" y="-1" on="1"/>
        <pt x="142" y="39" on="0"/>
        <pt x="134" y="136" on="0"/>
        <pt x="134" y="178" on="1"/>
        <pt x="134" y="225" on="0"/>
        <pt x="191" y="277" on="0"/>
        <pt x="241" y="287" on="1"/>
        <pt x="191" y="297" on="0"/>
        <pt x="134" y="348" on="0"/>
        <pt x="134" y="395" on="1"/>
        <pt x="134" y="437" on="0"/>
        <pt x="142" y="534" on="0"/>
        <pt x="142" y="574" on="1"/>
        <pt x="142" y="618" on="0"/>
        <pt x="104" y="660" on="0"/>
        <pt x="63" y="669" on="1"/>
        <pt x="14" y="678" on="1"/>
        <pt x="20" y="723" on="1"/>
        <pt x="37" y="723" on="0"/>
        <pt x="78" y="721" on="0"/>
        <pt x="99" y="719" on="1"/>
        <pt x="168" y="714" on="0"/>
        <pt x="232" y="648" on="0"/>
        <pt x="232" y="591" on="1"/>
        <pt x="232" y="538" on="0"/>
        <pt x="219" y="445" on="0"/>
        <pt x="219" y="406" on="1"/>
        <pt x="219" y="372" on="0"/>
        <pt x="250" y="325" on="0"/>
        <pt x="316" y="320" on="1"/>
        <pt x="316" y="254" on="1"/>
        <pt x="250" y="248" on="0"/>
        <pt x="219" y="202" on="0"/>
        <pt x="219" y="168" on="1"/>
        <pt x="219" y="128" on="0"/>
        <pt x="232" y="35" on="0"/>
        <pt x="232" y="-18" on="1"/>
        <pt x="232" y="-75" on="0"/>
        <pt x="168" y="-142" on="0"/>
      </contour>
    </TTGlyph>
    <TTGlyph name="braceright.gujr" xMin="14" yMin="-150" xMax="316" yMax="672">
      <contour>
        <pt x="99" y="-146" on="1"/>
        <pt x="78" y="-148" on="0"/>
        <pt x="37" y="-150" on="0"/>
        <pt x="20" y="-150" on="1"/>
        <pt x="14" y="-105" on="1"/>
        <pt x="63" y="-96" on="1"/>
        <pt x="104" y="-87" on="0"/>
        <pt x="142" y="-45" on="0"/>
        <pt x="142" y="-1" on="1"/>
        <pt x="142" y="33" on="0"/>
        <pt x="134" y="116" on="0"/>
        <pt x="134" y="153" on="1"/>
        <pt x="134" y="200" on="0"/>
        <pt x="191" y="251" on="0"/>
        <pt x="241" y="261" on="1"/>
        <pt x="191" y="271" on="0"/>
        <pt x="134" y="323" on="0"/>
        <pt x="134" y="369" on="1"/>
        <pt x="134" y="406" on="0"/>
        <pt x="142" y="489" on="0"/>
        <pt x="142" y="523" on="1"/>
        <pt x="142" y="567" on="0"/>
        <pt x="104" y="609" on="0"/>
        <pt x="63" y="618" on="1"/>
        <pt x="14" y="627" on="1"/>
        <pt x="20" y="672" on="1"/>
        <pt x="37" y="672" on="0"/>
        <pt x="78" y="670" on="0"/>
        <pt x="99" y="669" on="1"/>
        <pt x="168" y="663" on="0"/>
        <pt x="232" y="598" on="0"/>
        <pt x="232" y="540" on="1"/>
        <pt x="232" y="494" on="0"/>
        <pt x="219" y="414" on="0"/>
        <pt x="219" y="380" on="1"/>
        <pt x="219" y="346" on="0"/>
        <pt x="250" y="300" on="0"/>
        <pt x="316" y="294" on="1"/>
        <pt x="316" y="228" on="1"/>
        <pt x="250" y="223" on="0"/>
        <pt x="219" y="176" on="0"/>
        <pt x="219" y="142" on="1"/>
        <pt x="219" y="108" on="0"/>
        <pt x="232" y="28" on="0"/>
        <pt x="232" y="-18" on="1"/>
        <pt x="232" y="-75" on="0"/>
        <pt x="168" y="-142" on="0"/>
      </contour>
    </TTGlyph>
    <TTGlyph name="bracketleft" xMin="78" yMin="-150" xMax="275" yMax="723">
      <contour>
        <pt x="275" y="-139" on="1"/>
        <pt x="232" y="-144" on="0"/>
        <pt x="130" y="-150" on="0"/>
        <pt x="91" y="-149" on="1"/>
        <pt x="78" y="-136" on="1"/>
        <pt x="78" y="709" on="1"/>
        <pt x="91" y="722" on="1"/>
        <pt x="130" y="723" on="0"/>
        <pt x="232" y="717" on="0"/>
        <pt x="275" y="711" on="1"/>
        <pt x="275" y="670" on="1"/>
        <pt x="183" y="661" on="1"/>
        <pt x="173" y="660" on="0"/>
        <pt x="163" y="649" on="0"/>
        <pt x="163" y="639" on="1"/>
        <pt x="163" y="-66" on="1"/>
        <pt x="163" y="-76" on="0"/>
        <pt x="173" y="-87" on="0"/>
        <pt x="183" y="-88" on="1"/>
        <pt x="275" y="-97" on="1"/>
      </contour>
    </TTGlyph>
    <TTGlyph name="bracketleft.gujr" xMin="78" yMin="-150" xMax="275" yMax="675">
      <contour>
        <pt x="275" y="-139" on="1"/>
        <pt x="232" y="-144" on="0"/>
        <pt x="130" y="-150" on="0"/>
        <pt x="91" y="-149" on="1"/>
        <pt x="78" y="-136" on="1"/>
        <pt x="78" y="661" on="1"/>
        <pt x="91" y="674" on="1"/>
        <pt x="130" y="675" on="0"/>
        <pt x="232" y="669" on="0"/>
        <pt x="275" y="664" on="1"/>
        <pt x="275" y="623" on="1"/>
        <pt x="183" y="613" on="1"/>
        <pt x="173" y="612" on="0"/>
        <pt x="163" y="602" on="0"/>
        <pt x="163" y="592" on="1"/>
        <pt x="163" y="-66" on="1"/>
        <pt x="163" y="-76" on="0"/>
        <pt x="173" y="-87" on="0"/>
        <pt x="183" y="-88" on="1"/>
        <pt x="275" y="-97" on="1"/>
      </contour>
    </TTGlyph>
    <TTGlyph name="bracketright" xMin="19" yMin="-150" xMax="216" yMax="723">
      <contour>
        <pt x="216" y="-136" on="1"/>
        <pt x="203" y="-149" on="1"/>
        <pt x="164" y="-150" on="0"/>
        <pt x="62" y="-144" on="0"/>
        <pt x="19" y="-139" on="1"/>
        <pt x="19" y="-97" on="1"/>
        <pt x="110" y="-88" on="1"/>
        <pt x="120" y="-87" on="0"/>
        <pt x="131" y="-76" on="0"/>
        <pt x="131" y="-66" on="1"/>
        <pt x="131" y="639" on="1"/>
        <pt x="131" y="649" on="0"/>
        <pt x="120" y="660" on="0"/>
        <pt x="110" y="661" on="1"/>
        <pt x="19" y="670" on="1"/>
        <pt x="19" y="711" on="1"/>
        <pt x="62" y="717" on="0"/>
        <pt x="164" y="723" on="0"/>
        <pt x="203" y="722" on="1"/>
        <pt x="216" y="709" on="1"/>
      </contour>
    </TTGlyph>
    <TTGlyph name="bracketright.gujr" xMin="19" yMin="-150" xMax="216" yMax="675">
      <contour>
        <pt x="216" y="-136" on="1"/>
        <pt x="203" y="-149" on="1"/>
        <pt x="164" y="-150" on="0"/>
        <pt x="62" y="-144" on="0"/>
        <pt x="19" y="-139" on="1"/>
        <pt x="19" y="-97" on="1"/>
        <pt x="110" y="-88" on="1"/>
        <pt x="120" y="-87" on="0"/>
        <pt x="131" y="-76" on="0"/>
        <pt x="131" y="-66" on="1"/>
        <pt x="131" y="592" on="1"/>
        <pt x="131" y="602" on="0"/>
        <pt x="120" y="612" on="0"/>
        <pt x="110" y="613" on="1"/>
        <pt x="19" y="623" on="1"/>
        <pt x="19" y="664" on="1"/>
        <pt x="62" y="669" on="0"/>
        <pt x="164" y="675" on="0"/>
        <pt x="203" y="674" on="1"/>
        <pt x="216" y="661" on="1"/>
      </contour>
    </TTGlyph>
    <TTGlyph name="breve" xMin="41" yMin="472" xMax="323" yMax="607">
      <component glyphName="uni0306" x="182" y="0" flags="0x4"/>
    </TTGlyph>
    <TTGlyph name="brokenbar" xMin="78" yMin="-112" xMax="153" yMax="690">
      <contour>
        <pt x="78" y="345" on="1"/>
        <pt x="78" y="690" on="1"/>
        <pt x="153" y="690" on="1"/>
        <pt x="153" y="345" on="1"/>
      </contour>
      <contour>
        <pt x="78" y="-112" on="1"/>
        <pt x="78" y="232" on="1"/>
        <pt x="153" y="232" on="1"/>
        <pt x="153" y="-112" on="1"/>
      </contour>
    </TTGlyph>
    <TTGlyph name="bullet" xMin="69" yMin="142" xMax="258" yMax="320">
      <contour>
        <pt x="258" y="231" on="1"/>
        <pt x="258" y="191" on="0"/>
        <pt x="206" y="142" on="0"/>
        <pt x="163" y="142" on="1"/>
        <pt x="120" y="142" on="0"/>
        <pt x="69" y="191" on="0"/>
        <pt x="69" y="231" on="1"/>
        <pt x="69" y="271" on="0"/>
        <pt x="120" y="320" on="0"/>
        <pt x="163" y="320" on="1"/>
        <pt x="206" y="320" on="0"/>
        <pt x="258" y="271" on="0"/>
      </contour>
    </TTGlyph>
    <TTGlyph name="bullet.gujr" xMin="107" yMin="173" xMax="296" yMax="351">
      <component glyphName="bullet" x="38" y="31" flags="0x4"/>
    </TTGlyph>
    <TTGlyph name="bulletoperator" xMin="107" yMin="159" xMax="237" yMax="287">
      <contour>
        <pt x="237" y="223" on="1"/>
        <pt x="237" y="195" on="0"/>
        <pt x="201" y="159" on="0"/>
        <pt x="172" y="159" on="1"/>
        <pt x="143" y="159" on="0"/>
        <pt x="107" y="195" on="0"/>
        <pt x="107" y="223" on="1"/>
        <pt x="107" y="251" on="0"/>
        <pt x="143" y="287" on="0"/>
        <pt x="172" y="287" on="1"/>
        <pt x="201" y="287" on="0"/>
        <pt x="237" y="251" on="0"/>
      </contour>
    </TTGlyph>
    <TTGlyph name="c" xMin="37" yMin="-9" xMax="378" yMax="425">
      <contour>
        <pt x="37" y="202" on="1"/>
        <pt x="37" y="303" on="0"/>
        <pt x="145" y="425" on="0"/>
        <pt x="241" y="425" on="1"/>
        <pt x="277" y="425" on="0"/>
        <pt x="350" y="409" on="0"/>
        <pt x="373" y="397" on="1"/>
        <pt x="375" y="366" on="0"/>
        <pt x="370" y="298" on="0"/>
        <pt x="365" y="268" on="1"/>
        <pt x="317" y="268" on="1"/>
        <pt x="300" y="332" on="1"/>
        <pt x="297" y="343" on="0"/>
        <pt x="291" y="358" on="0"/>
        <pt x="285" y="363" on="1"/>
        <pt x="277" y="370" on="0"/>
        <pt x="251" y="378" on="0"/>
        <pt x="235" y="378" on="1"/>
        <pt x="192" y="378" on="0"/>
        <pt x="141" y="301" on="0"/>
        <pt x="141" y="220" on="1"/>
        <pt x="141" y="137" on="0"/>
        <pt x="198" y="54" on="0"/>
        <pt x="253" y="54" on="1"/>
        <pt x="287" y="54" on="0"/>
        <pt x="338" y="79" on="0"/>
        <pt x="354" y="95" on="1"/>
        <pt x="378" y="75" on="1"/>
        <pt x="362" y="38" on="0"/>
        <pt x="281" y="-9" on="0"/>
        <pt x="224" y="-9" on="1"/>
        <pt x="130" y="-9" on="0"/>
        <pt x="37" y="112" on="0"/>
      </contour>
    </TTGlyph>
    <TTGlyph name="cacute" xMin="37" yMin="-9" xMax="378" yMax="647">
      <component glyphName="c" x="0" y="0" flags="0x204"/>
      <component glyphName="acutecomb" x="229" y="0" flags="0x4"/>
    </TTGlyph>
    <TTGlyph name="caron" xMin="44" yMin="473" xMax="329" yMax="649">
      <component glyphName="uni030C" x="182" y="0" flags="0x4"/>
    </TTGlyph>
    <TTGlyph name="ccaron" xMin="37" yMin="-9" xMax="378" yMax="649">
      <component glyphName="c" x="0" y="0" flags="0x204"/>
      <component glyphName="uni030C" x="229" y="0" flags="0x4"/>
    </TTGlyph>
    <TTGlyph name="ccedilla" xMin="37" yMin="-190" xMax="378" yMax="425">
      <component glyphName="c" x="0" y="0" flags="0x204"/>
      <component glyphName="uni0327" x="214" y="0" flags="0x4"/>
    </TTGlyph>
    <TTGlyph name="ccircumflex" xMin="37" yMin="-9" xMax="378" yMax="635">
      <component glyphName="c" x="0" y="0" flags="0x204"/>
      <component glyphName="uni0302" x="229" y="0" flags="0x4"/>
    </TTGlyph>
    <TTGlyph name="cdotaccent" xMin="37" yMin="-9" xMax="378" yMax="593">
      <component glyphName="c" x="0" y="0" flags="0x204"/>
      <component glyphName="uni0307" x="229" y="0" flags="0x4"/>
    </TTGlyph>
    <TTGlyph name="cedilla" xMin="107" yMin="-190" xMax="264" yMax="19">
      <component glyphName="uni0327" x="182" y="0" flags="0x4"/>
    </TTGlyph>
    <TTGlyph name="cent" xMin="39" yMin="-76" xMax="388" yMax="513">
      <contour>
        <pt x="388" y="88" on="1"/>
        <pt x="372" y="54" on="0"/>
        <pt x="296" y="9" on="0"/>
        <pt x="249" y="5" on="1"/>
        <pt x="249" y="-76" on="1"/>
        <pt x="190" y="-76" on="1"/>
        <pt x="190" y="7" on="1"/>
        <pt x="116" y="18" on="0"/>
        <pt x="39" y="134" on="0"/>
        <pt x="39" y="215" on="1"/>
        <pt x="39" y="310" on="0"/>
        <pt x="138" y="427" on="0"/>
        <pt x="224" y="436" on="1"/>
        <pt x="224" y="513" on="1"/>
        <pt x="283" y="513" on="1"/>
        <pt x="283" y="435" on="1"/>
        <pt x="314" y="432" on="0"/>
        <pt x="369" y="417" on="0"/>
        <pt x="387" y="407" on="1"/>
        <pt x="388" y="376" on="0"/>
        <pt x="384" y="310" on="0"/>
        <pt x="379" y="280" on="1"/>
        <pt x="329" y="280" on="1"/>
        <pt x="314" y="345" on="1"/>
        <pt x="312" y="355" on="0"/>
        <pt x="305" y="370" on="0"/>
        <pt x="298" y="375" on="1"/>
        <pt x="290" y="382" on="0"/>
        <pt x="261" y="390" on="0"/>
        <pt x="245" y="390" on="1"/>
        <pt x="199" y="390" on="0"/>
        <pt x="143" y="309" on="0"/>
        <pt x="143" y="231" on="1"/>
        <pt x="143" y="151" on="0"/>
        <pt x="202" y="66" on="0"/>
        <pt x="257" y="66" on="1"/>
        <pt x="292" y="66" on="0"/>
        <pt x="346" y="93" on="0"/>
        <pt x="362" y="112" on="1"/>
      </contour>
    </TTGlyph>
    <TTGlyph name="cent.tf" xMin="45" yMin="-76" xMax="394" yMax="513">
      <component glyphName="cent" x="6" y="0" flags="0x4"/>
    </TTGlyph>
    <TTGlyph name="circumflex" xMin="40" yMin="458" xMax="325" yMax="635">
      <component glyphName="uni0302" x="182" y="0" flags="0x4"/>
    </TTGlyph>
    <TTGlyph name="colon" xMin="57" yMin="-7" xMax="177" yMax="412">
      <contour>
        <pt x="177" y="355" on="1"/>
        <pt x="177" y="330" on="0"/>
        <pt x="144" y="298" on="0"/>
        <pt x="117" y="298" on="1"/>
        <pt x="90" y="298" on="0"/>
        <pt x="57" y="330" on="0"/>
        <pt x="57" y="355" on="1"/>
        <pt x="57" y="381" on="0"/>
        <pt x="90" y="412" on="0"/>
        <pt x="117" y="412" on="1"/>
        <pt x="144" y="412" on="0"/>
        <pt x="177" y="381" on="0"/>
      </contour>
      <contour>
        <pt x="177" y="50" on="1"/>
        <pt x="177" y="25" on="0"/>
        <pt x="144" y="-7" on="0"/>
        <pt x="117" y="-7" on="1"/>
        <pt x="90" y="-7" on="0"/>
        <pt x="57" y="25" on="0"/>
        <pt x="57" y="50" on="1"/>
        <pt x="57" y="76" on="0"/>
        <pt x="90" y="108" on="0"/>
        <pt x="117" y="108" on="1"/>
        <pt x="144" y="108" on="0"/>
        <pt x="177" y="76" on="0"/>
      </contour>
    </TTGlyph>
    <TTGlyph name="colon.gujr" xMin="90" yMin="70" xMax="201" yMax="404">
      <contour>
        <pt x="201" y="351" on="1"/>
        <pt x="201" y="327" on="0"/>
        <pt x="171" y="298" on="0"/>
        <pt x="146" y="298" on="1"/>
        <pt x="121" y="298" on="0"/>
        <pt x="90" y="327" on="0"/>
        <pt x="90" y="351" on="1"/>
        <pt x="90" y="375" on="0"/>
        <pt x="121" y="404" on="0"/>
        <pt x="146" y="404" on="1"/>
        <pt x="171" y="404" on="0"/>
        <pt x="201" y="375" on="0"/>
      </contour>
      <contour>
        <pt x="201" y="123" on="1"/>
        <pt x="201" y="99" on="0"/>
        <pt x="171" y="70" on="0"/>
        <pt x="146" y="70" on="1"/>
        <pt x="121" y="70" on="0"/>
        <pt x="90" y="99" on="0"/>
        <pt x="90" y="123" on="1"/>
        <pt x="90" y="147" on="0"/>
        <pt x="121" y="176" on="0"/>
        <pt x="146" y="176" on="1"/>
        <pt x="171" y="176" on="0"/>
        <pt x="201" y="147" on="0"/>
      </contour>
    </TTGlyph>
    <TTGlyph name="comma" xMin="36" yMin="-155" xMax="175" yMax="117">
      <contour>
        <pt x="175" y="27" on="1"/>
        <pt x="175" y="-31" on="0"/>
        <pt x="105" y="-128" on="0"/>
        <pt x="56" y="-155" on="1"/>
        <pt x="36" y="-129" on="1"/>
        <pt x="65" y="-104" on="0"/>
        <pt x="99" y="-46" on="0"/>
        <pt x="99" y="-21" on="1"/>
        <pt x="99" y="-7" on="0"/>
        <pt x="87" y="3" on="0"/>
        <pt x="78" y="9" on="1"/>
        <pt x="68" y="16" on="0"/>
        <pt x="49" y="41" on="0"/>
        <pt x="49" y="60" on="1"/>
        <pt x="49" y="85" on="0"/>
        <pt x="81" y="117" on="0"/>
        <pt x="106" y="117" on="1"/>
        <pt x="134" y="117" on="0"/>
        <pt x="175" y="71" on="0"/>
      </contour>
    </TTGlyph>
    <TTGlyph name="comma.gujr" xMin="72" yMin="-142" xMax="198" yMax="106">
      <contour>
        <pt x="198" y="24" on="1"/>
        <pt x="198" y="-29" on="0"/>
        <pt x="134" y="-117" on="0"/>
        <pt x="90" y="-142" on="1"/>
        <pt x="72" y="-118" on="1"/>
        <pt x="98" y="-95" on="0"/>
        <pt x="128" y="-42" on="0"/>
        <pt x="128" y="-20" on="1"/>
        <pt x="128" y="-7" on="0"/>
        <pt x="118" y="3" on="0"/>
        <pt x="110" y="8" on="1"/>
        <pt x="100" y="14" on="0"/>
        <pt x="83" y="37" on="0"/>
        <pt x="83" y="54" on="1"/>
        <pt x="83" y="76" on="0"/>
        <pt x="112" y="106" on="0"/>
        <pt x="135" y="106" on="1"/>
        <pt x="161" y="106" on="0"/>
        <pt x="198" y="64" on="0"/>
      </contour>
    </TTGlyph>
    <TTGlyph name="copyright" xMin="38" yMin="-43" xMax="690" yMax="612">
      <contour>
        <pt x="38" y="285" on="1"/>
        <pt x="38" y="355" on="0"/>
        <pt x="88" y="476" on="0"/>
        <pt x="174" y="562" on="0"/>
        <pt x="295" y="612" on="0"/>
        <pt x="365" y="612" on="1"/>
        <pt x="435" y="612" on="0"/>
        <pt x="554" y="562" on="0"/>
        <pt x="641" y="476" on="0"/>
        <pt x="690" y="355" on="0"/>
        <pt x="690" y="285" on="1"/>
        <pt x="690" y="215" on="0"/>
        <pt x="641" y="94" on="0"/>
        <pt x="554" y="7" on="0"/>
        <pt x="435" y="-43" on="0"/>
        <pt x="365" y="-43" on="1"/>
        <pt x="295" y="-43" on="0"/>
        <pt x="174" y="7" on="0"/>
        <pt x="88" y="94" on="0"/>
        <pt x="38" y="215" on="0"/>
      </contour>
      <contour>
        <pt x="88" y="285" on="1"/>
        <pt x="88" y="161" on="0"/>
        <pt x="244" y="0" on="0"/>
        <pt x="365" y="0" on="1"/>
        <pt x="485" y="0" on="0"/>
        <pt x="641" y="161" on="0"/>
        <pt x="641" y="285" on="1"/>
        <pt x="641" y="410" on="0"/>
        <pt x="485" y="570" on="0"/>
        <pt x="365" y="570" on="1"/>
        <pt x="244" y="570" on="0"/>
        <pt x="88" y="410" on="0"/>
      </contour>
      <contour>
        <pt x="363" y="101" on="1"/>
        <pt x="287" y="101" on="0"/>
        <pt x="201" y="200" on="0"/>
        <pt x="201" y="281" on="1"/>
        <pt x="201" y="371" on="0"/>
        <pt x="300" y="469" on="0"/>
        <pt x="378" y="469" on="1"/>
        <pt x="413" y="469" on="0"/>
        <pt x="477" y="451" on="0"/>
        <pt x="493" y="440" on="1"/>
        <pt x="495" y="414" on="0"/>
        <pt x="492" y="358" on="0"/>
        <pt x="487" y="330" on="1"/>
        <pt x="443" y="330" on="1"/>
        <pt x="429" y="385" on="1"/>
        <pt x="428" y="392" on="0"/>
        <pt x="421" y="404" on="0"/>
        <pt x="414" y="409" on="1"/>
        <pt x="406" y="415" on="0"/>
        <pt x="381" y="423" on="0"/>
        <pt x="368" y="423" on="1"/>
        <pt x="329" y="423" on="0"/>
        <pt x="286" y="357" on="0"/>
        <pt x="286" y="295" on="1"/>
        <pt x="286" y="229" on="0"/>
        <pt x="337" y="159" on="0"/>
        <pt x="386" y="159" on="1"/>
        <pt x="412" y="159" on="0"/>
        <pt x="461" y="178" on="0"/>
        <pt x="476" y="194" on="1"/>
        <pt x="498" y="173" on="1"/>
        <pt x="483" y="142" on="0"/>
        <pt x="413" y="101" on="0"/>
      </contour>
    </TTGlyph>
    <TTGlyph name="currency" xMin="45" yMin="61" xMax="469" yMax="502">
      <contour>
        <pt x="256" y="185" on="1"/>
        <pt x="301" y="185" on="0"/>
        <pt x="346" y="241" on="0"/>
        <pt x="346" y="280" on="1"/>
        <pt x="346" y="321" on="0"/>
        <pt x="291" y="378" on="0"/>
        <pt x="254" y="378" on="1"/>
        <pt x="211" y="378" on="0"/>
        <pt x="166" y="317" on="0"/>
        <pt x="166" y="280" on="1"/>
        <pt x="166" y="240" on="0"/>
        <pt x="219" y="185" on="0"/>
      </contour>
      <contour>
        <pt x="255" y="117" on="1"/>
        <pt x="231" y="117" on="0"/>
        <pt x="187" y="130" on="0"/>
        <pt x="168" y="141" on="1"/>
        <pt x="87" y="61" on="1"/>
        <pt x="45" y="104" on="1"/>
        <pt x="123" y="183" on="1"/>
        <pt x="110" y="202" on="0"/>
        <pt x="94" y="250" on="0"/>
        <pt x="94" y="277" on="1"/>
        <pt x="94" y="305" on="0"/>
        <pt x="111" y="356" on="0"/>
        <pt x="125" y="378" on="1"/>
        <pt x="45" y="458" on="1"/>
        <pt x="87" y="501" on="1"/>
        <pt x="168" y="419" on="1"/>
        <pt x="187" y="432" on="0"/>
        <pt x="230" y="446" on="0"/>
        <pt x="255" y="446" on="1"/>
        <pt x="280" y="446" on="0"/>
        <pt x="325" y="433" on="0"/>
        <pt x="344" y="421" on="1"/>
        <pt x="425" y="502" on="1"/>
        <pt x="469" y="458" on="1"/>
        <pt x="389" y="379" on="1"/>
        <pt x="403" y="360" on="0"/>
        <pt x="419" y="312" on="0"/>
        <pt x="419" y="285" on="1"/>
        <pt x="419" y="257" on="0"/>
        <pt x="402" y="207" on="0"/>
        <pt x="387" y="186" on="1"/>
        <pt x="467" y="105" on="1"/>
        <pt x="424" y="63" on="1"/>
        <pt x="343" y="144" on="1"/>
        <pt x="324" y="131" on="0"/>
        <pt x="280" y="117" on="0"/>
      </contour>
    </TTGlyph>
    <TTGlyph name="d" xMin="38" yMin="-8" xMax="473" yMax="654">
      <contour>
        <pt x="236" y="51" on="1"/>
        <pt x="258" y="51" on="0"/>
        <pt x="302" y="66" on="0"/>
        <pt x="318" y="78" on="1"/>
        <pt x="318" y="363" on="1"/>
        <pt x="306" y="369" on="0"/>
        <pt x="270" y="378" on="0"/>
        <pt x="251" y="378" on="1"/>
        <pt x="204" y="378" on="0"/>
        <pt x="140" y="306" on="0"/>
        <pt x="140" y="209" on="1"/>
        <pt x="140" y="119" on="0"/>
        <pt x="195" y="51" on="0"/>
      </contour>
      <contour>
        <pt x="397" y="-7" on="1"/>
        <pt x="367" y="-7" on="0"/>
        <pt x="331" y="22" on="0"/>
        <pt x="323" y="46" on="1"/>
        <pt x="302" y="22" on="0"/>
        <pt x="241" y="-8" on="0"/>
        <pt x="201" y="-8" on="1"/>
        <pt x="133" y="-8" on="0"/>
        <pt x="38" y="89" on="0"/>
        <pt x="38" y="196" on="1"/>
        <pt x="38" y="310" on="0"/>
        <pt x="153" y="425" on="0"/>
        <pt x="251" y="425" on="1"/>
        <pt x="269" y="425" on="0"/>
        <pt x="304" y="421" on="0"/>
        <pt x="318" y="418" on="1"/>
        <pt x="318" y="564" on="1"/>
        <pt x="318" y="574" on="0"/>
        <pt x="308" y="585" on="0"/>
        <pt x="299" y="586" on="1"/>
        <pt x="246" y="593" on="1"/>
        <pt x="246" y="632" on="1"/>
        <pt x="280" y="642" on="0"/>
        <pt x="366" y="653" on="0"/>
        <pt x="400" y="654" on="1"/>
        <pt x="413" y="641" on="1"/>
        <pt x="413" y="74" on="1"/>
        <pt x="413" y="61" on="0"/>
        <pt x="424" y="52" on="0"/>
        <pt x="433" y="51" on="1"/>
        <pt x="473" y="46" on="1"/>
        <pt x="473" y="7" on="1"/>
        <pt x="461" y="3" on="0"/>
        <pt x="416" y="-7" on="0"/>
      </contour>
    </TTGlyph>
    <TTGlyph name="dagger" xMin="26" yMin="-91" xMax="328" yMax="606">
      <contour>
        <pt x="199" y="-91" on="1"/>
        <pt x="155" y="-91" on="1"/>
        <pt x="134" y="371" on="1"/>
        <pt x="132" y="377" on="0"/>
        <pt x="123" y="385" on="0"/>
        <pt x="115" y="386" on="1"/>
        <pt x="26" y="407" on="1"/>
        <pt x="26" y="451" on="1"/>
        <pt x="130" y="448" on="1"/>
        <pt x="126" y="543" on="1"/>
        <pt x="126" y="606" on="1"/>
        <pt x="229" y="606" on="1"/>
        <pt x="229" y="543" on="1"/>
        <pt x="224" y="448" on="1"/>
        <pt x="328" y="451" on="1"/>
        <pt x="328" y="407" on="1"/>
        <pt x="240" y="386" on="1"/>
        <pt x="230" y="384" on="0"/>
        <pt x="221" y="375" on="0"/>
        <pt x="221" y="370" on="1"/>
      </contour>
    </TTGlyph>
    <TTGlyph name="daggerdbl" xMin="32" yMin="-92" xMax="335" yMax="606">
      <contour>
        <pt x="205" y="-92" on="1"/>
        <pt x="162" y="-91" on="1"/>
        <pt x="149" y="194" on="1"/>
        <pt x="148" y="201" on="0"/>
        <pt x="138" y="210" on="0"/>
        <pt x="129" y="212" on="1"/>
        <pt x="32" y="235" on="1"/>
        <pt x="32" y="280" on="1"/>
        <pt x="145" y="276" on="1"/>
        <pt x="140" y="370" on="1"/>
        <pt x="139" y="377" on="0"/>
        <pt x="129" y="384" on="0"/>
        <pt x="121" y="386" on="1"/>
        <pt x="32" y="407" on="1"/>
        <pt x="32" y="451" on="1"/>
        <pt x="137" y="448" on="1"/>
        <pt x="132" y="543" on="1"/>
        <pt x="132" y="606" on="1"/>
        <pt x="235" y="606" on="1"/>
        <pt x="235" y="543" on="1"/>
        <pt x="230" y="448" on="1"/>
        <pt x="335" y="451" on="1"/>
        <pt x="335" y="407" on="1"/>
        <pt x="246" y="386" on="1"/>
        <pt x="236" y="384" on="0"/>
        <pt x="227" y="375" on="0"/>
        <pt x="227" y="370" on="1"/>
        <pt x="222" y="276" on="1"/>
        <pt x="335" y="280" on="1"/>
        <pt x="335" y="235" on="1"/>
        <pt x="238" y="212" on="1"/>
        <pt x="228" y="210" on="0"/>
        <pt x="219" y="201" on="0"/>
        <pt x="219" y="194" on="1"/>
      </contour>
    </TTGlyph>
    <TTGlyph name="dcaron" xMin="38" yMin="-8" xMax="557" yMax="685">
      <component glyphName="d" x="0" y="0" flags="0x204"/>
      <component glyphName="uni030C.calt" x="413" y="0" flags="0x4"/>
    </TTGlyph>
    <TTGlyph name="dcroat" xMin="38" yMin="-8" xMax="473" yMax="654">
      <contour>
        <pt x="236" y="51" on="1"/>
        <pt x="258" y="51" on="0"/>
        <pt x="302" y="66" on="0"/>
        <pt x="318" y="78" on="1"/>
        <pt x="318" y="352" on="1"/>
        <pt x="306" y="358" on="0"/>
        <pt x="270" y="367" on="0"/>
        <pt x="251" y="367" on="1"/>
        <pt x="204" y="367" on="0"/>
        <pt x="140" y="298" on="0"/>
        <pt x="140" y="205" on="1"/>
        <pt x="140" y="118" on="0"/>
        <pt x="195" y="51" on="0"/>
      </contour>
      <contour>
        <pt x="397" y="-7" on="1"/>
        <pt x="367" y="-7" on="0"/>
        <pt x="331" y="22" on="0"/>
        <pt x="323" y="46" on="1"/>
        <pt x="302" y="22" on="0"/>
        <pt x="241" y="-8" on="0"/>
        <pt x="201" y="-8" on="1"/>
        <pt x="133" y="-8" on="0"/>
        <pt x="38" y="87" on="0"/>
        <pt x="38" y="192" on="1"/>
        <pt x="38" y="302" on="0"/>
        <pt x="153" y="414" on="0"/>
        <pt x="251" y="414" on="1"/>
        <pt x="269" y="414" on="0"/>
        <pt x="304" y="410" on="0"/>
        <pt x="318" y="407" on="1"/>
        <pt x="318" y="478" on="1"/>
        <pt x="187" y="478" on="1"/>
        <pt x="187" y="524" on="1"/>
        <pt x="318" y="524" on="1"/>
        <pt x="318" y="564" on="1"/>
        <pt x="318" y="574" on="0"/>
        <pt x="308" y="585" on="0"/>
        <pt x="299" y="586" on="1"/>
        <pt x="246" y="593" on="1"/>
        <pt x="246" y="632" on="1"/>
        <pt x="280" y="642" on="0"/>
        <pt x="366" y="653" on="0"/>
        <pt x="400" y="654" on="1"/>
        <pt x="413" y="641" on="1"/>
        <pt x="413" y="524" on="1"/>
        <pt x="466" y="524" on="1"/>
        <pt x="466" y="478" on="1"/>
        <pt x="413" y="478" on="1"/>
        <pt x="413" y="74" on="1"/>
        <pt x="413" y="61" on="0"/>
        <pt x="424" y="52" on="0"/>
        <pt x="433" y="51" on="1"/>
        <pt x="473" y="46" on="1"/>
        <pt x="473" y="7" on="1"/>
        <pt x="461" y="3" on="0"/>
        <pt x="416" y="-7" on="0"/>
      </contour>
    </TTGlyph>
    <TTGlyph name="degree" xMin="36" yMin="339" xMax="301" yMax="601">
      <contour>
        <pt x="168" y="339" on="1"/>
        <pt x="114" y="339" on="0"/>
        <pt x="36" y="417" on="0"/>
        <pt x="36" y="470" on="1"/>
        <pt x="36" y="526" on="0"/>
        <pt x="114" y="601" on="0"/>
        <pt x="168" y="601" on="1"/>
        <pt x="225" y="601" on="0"/>
        <pt x="301" y="524" on="0"/>
        <pt x="301" y="470" on="1"/>
        <pt x="301" y="414" on="0"/>
        <pt x="223" y="339" on="0"/>
      </contour>
      <contour>
        <pt x="168" y="394" on="1"/>
        <pt x="200" y="394" on="0"/>
        <pt x="241" y="437" on="0"/>
        <pt x="241" y="470" on="1"/>
        <pt x="241" y="501" on="0"/>
        <pt x="198" y="547" on="0"/>
        <pt x="167" y="547" on="1"/>
        <pt x="136" y="547" on="0"/>
        <pt x="95" y="503" on="0"/>
        <pt x="95" y="470" on="1"/>
        <pt x="95" y="439" on="0"/>
        <pt x="138" y="394" on="0"/>
      </contour>
    </TTGlyph>
    <TTGlyph name="dieresis" xMin="47" yMin="482" xMax="316" yMax="587">
      <component glyphName="uni0308" x="182" y="0" flags="0x4"/>
    </TTGlyph>
    <TTGlyph name="divide" xMin="48" yMin="43" xMax="384" yMax="407">
      <contour>
        <pt x="269" y="357" on="1"/>
        <pt x="269" y="335" on="0"/>
        <pt x="240" y="307" on="0"/>
        <pt x="216" y="307" on="1"/>
        <pt x="192" y="307" on="0"/>
        <pt x="163" y="335" on="0"/>
        <pt x="163" y="357" on="1"/>
        <pt x="163" y="379" on="0"/>
        <pt x="192" y="407" on="0"/>
        <pt x="216" y="407" on="1"/>
        <pt x="240" y="407" on="0"/>
        <pt x="269" y="379" on="0"/>
      </contour>
      <contour>
        <pt x="384" y="194" on="1"/>
        <pt x="48" y="194" on="1"/>
        <pt x="48" y="256" on="1"/>
        <pt x="384" y="256" on="1"/>
      </contour>
      <contour>
        <pt x="269" y="92" on="1"/>
        <pt x="269" y="70" on="0"/>
        <pt x="240" y="43" on="0"/>
        <pt x="216" y="43" on="1"/>
        <pt x="192" y="43" on="0"/>
        <pt x="163" y="70" on="0"/>
        <pt x="163" y="92" on="1"/>
        <pt x="163" y="114" on="0"/>
        <pt x="192" y="142" on="0"/>
        <pt x="216" y="142" on="1"/>
        <pt x="240" y="142" on="0"/>
        <pt x="269" y="114" on="0"/>
      </contour>
    </TTGlyph>
    <TTGlyph name="dollar" xMin="40" yMin="-76" xMax="399" yMax="578">
      <contour>
        <pt x="234" y="-76" on="1"/>
        <pt x="175" y="-76" on="1"/>
        <pt x="175" y="8" on="1"/>
        <pt x="133" y="12" on="0"/>
        <pt x="63" y="34" on="0"/>
        <pt x="41" y="46" on="1"/>
        <pt x="40" y="78" on="0"/>
        <pt x="45" y="146" on="0"/>
        <pt x="49" y="175" on="1"/>
        <pt x="107" y="175" on="1"/>
        <pt x="120" y="104" on="1"/>
        <pt x="121" y="97" on="0"/>
        <pt x="127" y="86" on="0"/>
        <pt x="132" y="82" on="1"/>
        <pt x="143" y="71" on="0"/>
        <pt x="188" y="52" on="0"/>
        <pt x="218" y="52" on="1"/>
        <pt x="258" y="52" on="0"/>
        <pt x="303" y="90" on="0"/>
        <pt x="303" y="120" on="1"/>
        <pt x="303" y="155" on="0"/>
        <pt x="239" y="196" on="0"/>
        <pt x="187" y="220" on="1"/>
        <pt x="134" y="244" on="0"/>
        <pt x="48" y="307" on="0"/>
        <pt x="48" y="364" on="1"/>
        <pt x="48" y="415" on="0"/>
        <pt x="127" y="490" on="0"/>
        <pt x="203" y="495" on="1"/>
        <pt x="203" y="578" on="1"/>
        <pt x="262" y="578" on="1"/>
        <pt x="262" y="494" on="1"/>
        <pt x="292" y="492" on="0"/>
        <pt x="348" y="478" on="0"/>
        <pt x="370" y="469" on="1"/>
        <pt x="372" y="438" on="0"/>
        <pt x="369" y="375" on="0"/>
        <pt x="364" y="347" on="1"/>
        <pt x="308" y="346" on="1"/>
        <pt x="294" y="411" on="1"/>
        <pt x="293" y="417" on="0"/>
        <pt x="287" y="428" on="0"/>
        <pt x="280" y="433" on="1"/>
        <pt x="270" y="441" on="0"/>
        <pt x="236" y="452" on="0"/>
        <pt x="214" y="452" on="1"/>
        <pt x="176" y="452" on="0"/>
        <pt x="138" y="417" on="0"/>
        <pt x="138" y="392" on="1"/>
        <pt x="138" y="357" on="0"/>
        <pt x="203" y="319" on="0"/>
        <pt x="257" y="294" on="1"/>
        <pt x="319" y="264" on="0"/>
        <pt x="399" y="200" on="0"/>
        <pt x="399" y="148" on="1"/>
        <pt x="399" y="99" on="0"/>
        <pt x="320" y="13" on="0"/>
        <pt x="234" y="7" on="1"/>
      </contour>
    </TTGlyph>
    <TTGlyph name="dollar.tf" xMin="46" yMin="-76" xMax="405" yMax="578">
      <component glyphName="dollar" x="6" y="0" flags="0x4"/>
    </TTGlyph>
    <TTGlyph name="dotaccent" xMin="130" yMin="479" xMax="250" yMax="593">
      <component glyphName="uni0307" x="182" y="0" flags="0x4"/>
    </TTGlyph>
    <TTGlyph name="dotlessi" xMin="29" yMin="0" xMax="253" yMax="423">
      <contour>
        <pt x="191" y="410" on="1"/>
        <pt x="191" y="72" on="1"/>
        <pt x="191" y="62" on="0"/>
        <pt x="201" y="50" on="0"/>
        <pt x="210" y="49" on="1"/>
        <pt x="253" y="42" on="1"/>
        <pt x="253" y="0" on="1"/>
        <pt x="34" y="0" on="1"/>
        <pt x="34" y="42" on="1"/>
        <pt x="76" y="49" on="1"/>
        <pt x="86" y="50" on="0"/>
        <pt x="95" y="62" on="0"/>
        <pt x="95" y="71" on="1"/>
        <pt x="95" y="332" on="1"/>
        <pt x="95" y="341" on="0"/>
        <pt x="86" y="353" on="0"/>
        <pt x="77" y="354" on="1"/>
        <pt x="29" y="361" on="1"/>
        <pt x="29" y="403" on="1"/>
        <pt x="63" y="413" on="0"/>
        <pt x="144" y="423" on="0"/>
        <pt x="178" y="423" on="1"/>
      </contour>
    </TTGlyph>
    <TTGlyph name="dotlessiogonek" xMin="29" yMin="-188" xMax="253" yMax="423">
      <contour>
        <pt x="234" y="-161" on="1"/>
        <pt x="215" y="-174" on="0"/>
        <pt x="162" y="-188" on="0"/>
        <pt x="136" y="-188" on="1"/>
        <pt x="96" y="-188" on="0"/>
        <pt x="41" y="-153" on="0"/>
        <pt x="41" y="-116" on="1"/>
        <pt x="41" y="-77" on="0"/>
        <pt x="103" y="-18" on="0"/>
        <pt x="142" y="-2" on="1"/>
        <pt x="142" y="0" on="1"/>
        <pt x="34" y="0" on="1"/>
        <pt x="34" y="42" on="1"/>
        <pt x="76" y="49" on="1"/>
        <pt x="86" y="50" on="0"/>
        <pt x="95" y="62" on="0"/>
        <pt x="95" y="71" on="1"/>
        <pt x="95" y="332" on="1"/>
        <pt x="95" y="341" on="0"/>
        <pt x="86" y="353" on="0"/>
        <pt x="77" y="354" on="1"/>
        <pt x="29" y="361" on="1"/>
        <pt x="29" y="403" on="1"/>
        <pt x="63" y="413" on="0"/>
        <pt x="144" y="423" on="0"/>
        <pt x="178" y="423" on="1"/>
        <pt x="191" y="410" on="1"/>
        <pt x="191" y="72" on="1"/>
        <pt x="191" y="62" on="0"/>
        <pt x="201" y="50" on="0"/>
        <pt x="210" y="49" on="1"/>
        <pt x="253" y="42" on="1"/>
        <pt x="253" y="0" on="1"/>
        <pt x="211" y="0" on="1"/>
        <pt x="172" y="-15" on="0"/>
        <pt x="122" y="-65" on="0"/>
        <pt x="122" y="-92" on="1"/>
        <pt x="122" y="-112" on="0"/>
        <pt x="150" y="-132" on="0"/>
        <pt x="172" y="-132" on="1"/>
        <pt x="182" y="-132" on="0"/>
        <pt x="208" y="-127" on="0"/>
        <pt x="219" y="-122" on="1"/>
      </contour>
    </TTGlyph>
    <TTGlyph name="dotlessj" xMin="-22" yMin="-195" xMax="182" yMax="423">
      <contour>
        <pt x="169" y="423" on="1"/>
        <pt x="182" y="410" on="1"/>
        <pt x="182" y="41" on="1"/>
        <pt x="182" y="-33" on="0"/>
        <pt x="155" y="-109" on="0"/>
        <pt x="124" y="-135" on="1"/>
        <pt x="99" y="-156" on="0"/>
        <pt x="32" y="-184" on="0"/>
        <pt x="-2" y="-195" on="1"/>
        <pt x="-22" y="-153" on="1"/>
        <pt x="43" y="-115" on="0"/>
        <pt x="87" y="-36" on="0"/>
        <pt x="87" y="39" on="1"/>
        <pt x="87" y="332" on="1"/>
        <pt x="87" y="341" on="0"/>
        <pt x="78" y="353" on="0"/>
        <pt x="69" y="354" on="1"/>
        <pt x="21" y="361" on="1"/>
        <pt x="21" y="403" on="1"/>
        <pt x="55" y="413" on="0"/>
        <pt x="135" y="423" on="0"/>
      </contour>
    </TTGlyph>
    <TTGlyph name="e" xMin="37" yMin="-9" xMax="392" yMax="425">
      <contour>
        <pt x="225" y="380" on="1"/>
        <pt x="191" y="380" on="0"/>
        <pt x="146" y="329" on="0"/>
        <pt x="139" y="271" on="1"/>
        <pt x="299" y="271" on="1"/>
        <pt x="300" y="275" on="0"/>
        <pt x="301" y="283" on="0"/>
        <pt x="301" y="288" on="1"/>
        <pt x="301" y="328" on="0"/>
        <pt x="262" y="380" on="0"/>
      </contour>
      <contour>
        <pt x="390" y="91" on="1"/>
        <pt x="376" y="45" on="0"/>
        <pt x="288" y="-9" on="0"/>
        <pt x="225" y="-9" on="1"/>
        <pt x="129" y="-9" on="0"/>
        <pt x="37" y="110" on="0"/>
        <pt x="37" y="203" on="1"/>
        <pt x="37" y="308" on="0"/>
        <pt x="144" y="425" on="0"/>
        <pt x="236" y="425" on="1"/>
        <pt x="309" y="425" on="0"/>
        <pt x="392" y="349" on="0"/>
        <pt x="392" y="283" on="1"/>
        <pt x="392" y="271" on="0"/>
        <pt x="389" y="241" on="0"/>
        <pt x="387" y="229" on="1"/>
        <pt x="137" y="229" on="1"/>
        <pt x="137" y="223" on="1"/>
        <pt x="137" y="130" on="0"/>
        <pt x="198" y="54" on="0"/>
        <pt x="252" y="54" on="1"/>
        <pt x="286" y="54" on="0"/>
        <pt x="345" y="83" on="0"/>
        <pt x="363" y="108" on="1"/>
      </contour>
    </TTGlyph>
    <TTGlyph name="eacute" xMin="37" yMin="-9" xMax="392" yMax="647">
      <component glyphName="e" x="0" y="0" flags="0x204"/>
      <component glyphName="acutecomb" x="225" y="0" flags="0x4"/>
    </TTGlyph>
    <TTGlyph name="ebreve" xMin="37" yMin="-9" xMax="392" yMax="607">
      <component glyphName="e" x="0" y="0" flags="0x204"/>
      <component glyphName="uni0306" x="225" y="0" flags="0x4"/>
    </TTGlyph>
    <TTGlyph name="ecaron" xMin="37" yMin="-9" xMax="392" yMax="649">
      <component glyphName="e" x="0" y="0" flags="0x204"/>
      <component glyphName="uni030C" x="225" y="0" flags="0x4"/>
    </TTGlyph>
    <TTGlyph name="ecircumflex" xMin="37" yMin="-9" xMax="392" yMax="635">
      <component glyphName="e" x="0" y="0" flags="0x204"/>
      <component glyphName="uni0302" x="225" y="0" flags="0x4"/>
    </TTGlyph>
    <TTGlyph name="edieresis" xMin="37" yMin="-9" xMax="392" yMax="587">
      <component glyphName="e" x="0" y="0" flags="0x204"/>
      <component glyphName="uni0308" x="225" y="0" flags="0x4"/>
    </TTGlyph>
    <TTGlyph name="edotaccent" xMin="37" yMin="-9" xMax="392" yMax="593">
      <component glyphName="e" x="0" y="0" flags="0x204"/>
      <component glyphName="uni0307" x="225" y="0" flags="0x4"/>
    </TTGlyph>
    <TTGlyph name="egrave" xMin="37" yMin="-9" xMax="392" yMax="647">
      <component glyphName="e" x="0" y="0" flags="0x204"/>
      <component glyphName="gravecomb" x="225" y="0" flags="0x4"/>
    </TTGlyph>
    <TTGlyph name="eight" xMin="41" yMin="-10" xMax="426" yMax="511">
      <contour>
        <pt x="230" y="-10" on="1"/>
        <pt x="148" y="-10" on="0"/>
        <pt x="41" y="61" on="0"/>
        <pt x="41" y="124" on="1"/>
        <pt x="41" y="169" on="0"/>
        <pt x="97" y="239" on="0"/>
        <pt x="146" y="255" on="1"/>
        <pt x="114" y="276" on="0"/>
        <pt x="67" y="334" on="0"/>
        <pt x="67" y="377" on="1"/>
        <pt x="67" y="437" on="0"/>
        <pt x="162" y="511" on="0"/>
        <pt x="238" y="511" on="1"/>
        <pt x="310" y="511" on="0"/>
        <pt x="403" y="445" on="0"/>
        <pt x="403" y="393" on="1"/>
        <pt x="403" y="353" on="0"/>
        <pt x="349" y="289" on="0"/>
        <pt x="308" y="273" on="1"/>
        <pt x="356" y="249" on="0"/>
        <pt x="426" y="186" on="0"/>
        <pt x="426" y="132" on="1"/>
        <pt x="426" y="67" on="0"/>
        <pt x="317" y="-10" on="0"/>
      </contour>
      <contour>
        <pt x="155" y="399" on="1"/>
        <pt x="155" y="362" on="0"/>
        <pt x="218" y="317" on="0"/>
        <pt x="263" y="295" on="1"/>
        <pt x="291" y="313" on="0"/>
        <pt x="316" y="360" on="0"/>
        <pt x="316" y="385" on="1"/>
        <pt x="316" y="424" on="0"/>
        <pt x="270" y="466" on="0"/>
        <pt x="233" y="466" on="1"/>
        <pt x="196" y="466" on="0"/>
        <pt x="155" y="428" on="0"/>
      </contour>
      <contour>
        <pt x="236" y="37" on="1"/>
        <pt x="278" y="37" on="0"/>
        <pt x="326" y="80" on="0"/>
        <pt x="326" y="113" on="1"/>
        <pt x="326" y="155" on="0"/>
        <pt x="255" y="200" on="0"/>
        <pt x="208" y="222" on="1"/>
        <pt x="204" y="224" on="0"/>
        <pt x="193" y="229" on="0"/>
        <pt x="188" y="232" on="1"/>
        <pt x="160" y="214" on="0"/>
        <pt x="131" y="162" on="0"/>
        <pt x="131" y="132" on="1"/>
        <pt x="131" y="84" on="0"/>
        <pt x="194" y="37" on="0"/>
      </contour>
    </TTGlyph>
    <TTGlyph name="eight.tf" xMin="29" yMin="-10" xMax="414" yMax="511">
      <component glyphName="eight" x="-12" y="0" flags="0x4"/>
    </TTGlyph>
    <TTGlyph name="ellipsis" xMin="48" yMin="-7" xMax="601" yMax="108">
      <contour>
        <pt x="169" y="50" on="1"/>
        <pt x="169" y="25" on="0"/>
        <pt x="136" y="-7" on="0"/>
        <pt x="108" y="-7" on="1"/>
        <pt x="81" y="-7" on="0"/>
        <pt x="48" y="25" on="0"/>
        <pt x="48" y="50" on="1"/>
        <pt x="48" y="76" on="0"/>
        <pt x="81" y="108" on="0"/>
        <pt x="108" y="108" on="1"/>
        <pt x="136" y="108" on="0"/>
        <pt x="169" y="76" on="0"/>
      </contour>
      <contour>
        <pt x="601" y="50" on="1"/>
        <pt x="601" y="25" on="0"/>
        <pt x="569" y="-7" on="0"/>
        <pt x="541" y="-7" on="1"/>
        <pt x="514" y="-7" on="0"/>
        <pt x="481" y="25" on="0"/>
        <pt x="481" y="50" on="1"/>
        <pt x="481" y="76" on="0"/>
        <pt x="514" y="108" on="0"/>
        <pt x="541" y="108" on="1"/>
        <pt x="569" y="108" on="0"/>
        <pt x="601" y="76" on="0"/>
      </contour>
      <contour>
        <pt x="385" y="50" on="1"/>
        <pt x="385" y="25" on="0"/>
        <pt x="352" y="-7" on="0"/>
        <pt x="325" y="-7" on="1"/>
        <pt x="298" y="-7" on="0"/>
        <pt x="264" y="25" on="0"/>
        <pt x="264" y="50" on="1"/>
        <pt x="264" y="76" on="0"/>
        <pt x="298" y="108" on="0"/>
        <pt x="325" y="108" on="1"/>
        <pt x="352" y="108" on="0"/>
        <pt x="385" y="76" on="0"/>
      </contour>
    </TTGlyph>
    <TTGlyph name="ellipsis.gujr" xMin="83" yMin="-7" xMax="628" yMax="100">
      <contour>
        <pt x="195" y="46" on="1"/>
        <pt x="195" y="23" on="0"/>
        <pt x="164" y="-7" on="0"/>
        <pt x="139" y="-7" on="1"/>
        <pt x="114" y="-7" on="0"/>
        <pt x="83" y="23" on="0"/>
        <pt x="83" y="46" on="1"/>
        <pt x="83" y="70" on="0"/>
        <pt x="114" y="100" on="0"/>
        <pt x="139" y="100" on="1"/>
        <pt x="164" y="100" on="0"/>
        <pt x="195" y="70" on="0"/>
      </contour>
      <contour>
        <pt x="628" y="46" on="1"/>
        <pt x="628" y="23" on="0"/>
        <pt x="597" y="-7" on="0"/>
        <pt x="572" y="-7" on="1"/>
        <pt x="547" y="-7" on="0"/>
        <pt x="516" y="23" on="0"/>
        <pt x="516" y="46" on="1"/>
        <pt x="516" y="70" on="0"/>
        <pt x="547" y="100" on="0"/>
        <pt x="572" y="100" on="1"/>
        <pt x="597" y="100" on="0"/>
        <pt x="628" y="70" on="0"/>
      </contour>
      <contour>
        <pt x="411" y="46" on="1"/>
        <pt x="411" y="23" on="0"/>
        <pt x="380" y="-7" on="0"/>
        <pt x="355" y="-7" on="1"/>
        <pt x="330" y="-7" on="0"/>
        <pt x="299" y="23" on="0"/>
        <pt x="299" y="46" on="1"/>
        <pt x="299" y="70" on="0"/>
        <pt x="330" y="100" on="0"/>
        <pt x="355" y="100" on="1"/>
        <pt x="380" y="100" on="0"/>
        <pt x="411" y="70" on="0"/>
      </contour>
    </TTGlyph>
    <TTGlyph name="emacron" xMin="37" yMin="-9" xMax="392" yMax="555">
      <component glyphName="e" x="0" y="0" flags="0x204"/>
      <component glyphName="uni0304" x="225" y="0" flags="0x4"/>
    </TTGlyph>
    <TTGlyph name="emdash" xMin="55" yMin="184" xMax="757" yMax="249">
      <contour>
        <pt x="55" y="184" on="1"/>
        <pt x="55" y="249" on="1"/>
        <pt x="757" y="249" on="1"/>
        <pt x="757" y="184" on="1"/>
      </contour>
    </TTGlyph>
    <TTGlyph name="emdash.gujr" xMin="55" yMin="213" xMax="757" yMax="288">
      <contour>
        <pt x="74" y="213" on="1"/>
        <pt x="55" y="280" on="1"/>
        <pt x="63" y="288" on="1"/>
        <pt x="738" y="288" on="1"/>
        <pt x="757" y="220" on="1"/>
        <pt x="749" y="213" on="1"/>
      </contour>
    </TTGlyph>
    <TTGlyph name="endash" xMin="55" yMin="184" xMax="480" yMax="249">
      <contour>
        <pt x="55" y="184" on="1"/>
        <pt x="55" y="249" on="1"/>
        <pt x="480" y="249" on="1"/>
        <pt x="480" y="184" on="1"/>
      </contour>
    </TTGlyph>
    <TTGlyph name="endash.gujr" xMin="55" yMin="213" xMax="480" yMax="288">
      <contour>
        <pt x="74" y="213" on="1"/>
        <pt x="55" y="280" on="1"/>
        <pt x="63" y="288" on="1"/>
        <pt x="461" y="288" on="1"/>
        <pt x="480" y="220" on="1"/>
        <pt x="472" y="213" on="1"/>
      </contour>
    </TTGlyph>
    <TTGlyph name="eng" xMin="29" yMin="-186" xMax="455" yMax="423">
      <contour>
        <pt x="307" y="-186" on="1"/>
        <pt x="295" y="-186" on="0"/>
        <pt x="269" y="-184" on="0"/>
        <pt x="257" y="-183" on="1"/>
        <pt x="254" y="-140" on="1"/>
        <pt x="273" y="-136" on="0"/>
        <pt x="317" y="-124" on="0"/>
        <pt x="332" y="-108" on="1"/>
        <pt x="346" y="-92" on="0"/>
        <pt x="358" y="-32" on="0"/>
        <pt x="358" y="20" on="1"/>
        <pt x="358" y="251" on="1"/>
        <pt x="358" y="308" on="0"/>
        <pt x="325" y="361" on="0"/>
        <pt x="282" y="361" on="1"/>
        <pt x="259" y="361" on="0"/>
        <pt x="211" y="346" on="0"/>
        <pt x="191" y="332" on="1"/>
        <pt x="191" y="71" on="1"/>
        <pt x="191" y="62" on="0"/>
        <pt x="201" y="51" on="0"/>
        <pt x="209" y="49" on="1"/>
        <pt x="244" y="42" on="1"/>
        <pt x="244" y="0" on="1"/>
        <pt x="34" y="0" on="1"/>
        <pt x="34" y="42" on="1"/>
        <pt x="77" y="49" on="1"/>
        <pt x="86" y="50" on="0"/>
        <pt x="95" y="62" on="0"/>
        <pt x="95" y="71" on="1"/>
        <pt x="95" y="332" on="1"/>
        <pt x="95" y="341" on="0"/>
        <pt x="86" y="353" on="0"/>
        <pt x="77" y="354" on="1"/>
        <pt x="29" y="361" on="1"/>
        <pt x="29" y="403" on="1"/>
        <pt x="61" y="413" on="0"/>
        <pt x="135" y="422" on="0"/>
        <pt x="166" y="423" on="1"/>
        <pt x="181" y="410" on="1"/>
        <pt x="187" y="366" on="1"/>
        <pt x="216" y="397" on="0"/>
        <pt x="289" y="423" on="0"/>
        <pt x="328" y="423" on="1"/>
        <pt x="401" y="423" on="0"/>
        <pt x="455" y="341" on="0"/>
        <pt x="455" y="265" on="1"/>
        <pt x="455" y="7" on="1"/>
        <pt x="455" y="-86" on="0"/>
        <pt x="386" y="-186" on="0"/>
      </contour>
    </TTGlyph>
    <TTGlyph name="eogonek" xMin="37" yMin="-188" xMax="392" yMax="425">
      <contour>
        <pt x="225" y="379" on="1"/>
        <pt x="191" y="379" on="0"/>
        <pt x="146" y="328" on="0"/>
        <pt x="139" y="271" on="1"/>
        <pt x="299" y="271" on="1"/>
        <pt x="300" y="275" on="0"/>
        <pt x="301" y="283" on="0"/>
        <pt x="301" y="288" on="1"/>
        <pt x="301" y="328" on="0"/>
        <pt x="262" y="379" on="0"/>
      </contour>
      <contour>
        <pt x="370" y="-161" on="1"/>
        <pt x="351" y="-174" on="0"/>
        <pt x="298" y="-188" on="0"/>
        <pt x="272" y="-188" on="1"/>
        <pt x="234" y="-188" on="0"/>
        <pt x="178" y="-153" on="0"/>
        <pt x="178" y="-116" on="1"/>
        <pt x="178" y="-78" on="0"/>
        <pt x="233" y="-23" on="0"/>
        <pt x="258" y="-9" on="1"/>
        <pt x="258" y="-7" on="1"/>
        <pt x="251" y="-8" on="0"/>
        <pt x="234" y="-9" on="0"/>
        <pt x="225" y="-9" on="1"/>
        <pt x="129" y="-9" on="0"/>
        <pt x="37" y="110" on="0"/>
        <pt x="37" y="203" on="1"/>
        <pt x="37" y="308" on="0"/>
        <pt x="144" y="425" on="0"/>
        <pt x="236" y="425" on="1"/>
        <pt x="309" y="425" on="0"/>
        <pt x="392" y="349" on="0"/>
        <pt x="392" y="283" on="1"/>
        <pt x="392" y="271" on="0"/>
        <pt x="389" y="241" on="0"/>
        <pt x="387" y="229" on="1"/>
        <pt x="137" y="229" on="1"/>
        <pt x="137" y="223" on="1"/>
        <pt x="137" y="130" on="0"/>
        <pt x="198" y="54" on="0"/>
        <pt x="252" y="54" on="1"/>
        <pt x="286" y="54" on="0"/>
        <pt x="345" y="83" on="0"/>
        <pt x="363" y="108" on="1"/>
        <pt x="391" y="90" on="1"/>
        <pt x="384" y="72" on="0"/>
        <pt x="361" y="39" on="0"/>
        <pt x="343" y="25" on="1"/>
        <pt x="342" y="24" on="0"/>
        <pt x="337" y="21" on="0"/>
        <pt x="335" y="20" on="1"/>
        <pt x="298" y="-11" on="0"/>
        <pt x="258" y="-65" on="0"/>
        <pt x="258" y="-91" on="1"/>
        <pt x="258" y="-112" on="0"/>
        <pt x="286" y="-132" on="0"/>
        <pt x="306" y="-132" on="1"/>
        <pt x="318" y="-132" on="0"/>
        <pt x="343" y="-127" on="0"/>
        <pt x="354" y="-122" on="1"/>
      </contour>
    </TTGlyph>
    <TTGlyph name="equal" xMin="55" yMin="116" xMax="390" yMax="331">
      <contour>
        <pt x="390" y="266" on="1"/>
        <pt x="55" y="266" on="1"/>
        <pt x="55" y="331" on="1"/>
        <pt x="390" y="331" on="1"/>
      </contour>
      <contour>
        <pt x="390" y="116" on="1"/>
        <pt x="55" y="116" on="1"/>
        <pt x="55" y="180" on="1"/>
        <pt x="390" y="180" on="1"/>
      </contour>
    </TTGlyph>
    <TTGlyph name="estimated" xMin="43" yMin="-9" xMax="475" yMax="496">
      <contour>
        <pt x="160" y="409" on="1"/>
        <pt x="160" y="274" on="1"/>
        <pt x="365" y="274" on="1"/>
        <pt x="365" y="421" on="1"/>
        <pt x="352" y="436" on="0"/>
        <pt x="300" y="453" on="0"/>
        <pt x="271" y="453" on="1"/>
        <pt x="235" y="453" on="0"/>
        <pt x="177" y="428" on="0"/>
      </contour>
      <contour>
        <pt x="448" y="40" on="1"/>
        <pt x="418" y="17" on="0"/>
        <pt x="335" y="-9" on="0"/>
        <pt x="289" y="-9" on="1"/>
        <pt x="180" y="-9" on="0"/>
        <pt x="43" y="130" on="0"/>
        <pt x="43" y="246" on="1"/>
        <pt x="43" y="353" on="0"/>
        <pt x="164" y="496" on="0"/>
        <pt x="274" y="496" on="1"/>
        <pt x="361" y="496" on="0"/>
        <pt x="474" y="394" on="0"/>
        <pt x="475" y="293" on="1"/>
        <pt x="475" y="274" on="0"/>
        <pt x="473" y="241" on="0"/>
        <pt x="472" y="228" on="1"/>
        <pt x="160" y="228" on="1"/>
        <pt x="160" y="89" on="1"/>
        <pt x="180" y="66" on="0"/>
        <pt x="252" y="38" on="0"/>
        <pt x="295" y="38" on="1"/>
        <pt x="335" y="38" on="0"/>
        <pt x="402" y="61" on="0"/>
        <pt x="426" y="78" on="1"/>
      </contour>
    </TTGlyph>
    <TTGlyph name="eth" xMin="38" yMin="-8" xMax="424" yMax="653">
      <contour>
        <pt x="221" y="-8" on="1"/>
        <pt x="134" y="-8" on="0"/>
        <pt x="38" y="100" on="0"/>
        <pt x="38" y="199" on="1"/>
        <pt x="38" y="257" on="0"/>
        <pt x="70" y="337" on="0"/>
        <pt x="118" y="387" on="0"/>
        <pt x="179" y="409" on="0"/>
        <pt x="207" y="409" on="1"/>
        <pt x="232" y="409" on="0"/>
        <pt x="282" y="393" on="0"/>
        <pt x="301" y="376" on="1"/>
        <pt x="289" y="415" on="0"/>
        <pt x="249" y="483" on="0"/>
        <pt x="221" y="512" on="1"/>
        <pt x="117" y="437" on="1"/>
        <pt x="86" y="484" on="1"/>
        <pt x="183" y="546" on="1"/>
        <pt x="160" y="565" on="0"/>
        <pt x="104" y="599" on="0"/>
        <pt x="72" y="615" on="1"/>
        <pt x="90" y="653" on="1"/>
        <pt x="133" y="641" on="0"/>
        <pt x="209" y="606" on="0"/>
        <pt x="241" y="584" on="1"/>
        <pt x="335" y="651" on="1"/>
        <pt x="367" y="604" on="1"/>
        <pt x="283" y="552" on="1"/>
        <pt x="353" y="491" on="0"/>
        <pt x="424" y="324" on="0"/>
        <pt x="424" y="236" on="1"/>
        <pt x="424" y="133" on="0"/>
        <pt x="327" y="-8" on="0"/>
      </contour>
      <contour>
        <pt x="232" y="38" on="1"/>
        <pt x="281" y="38" on="0"/>
        <pt x="323" y="128" on="0"/>
        <pt x="323" y="221" on="1"/>
        <pt x="323" y="247" on="0"/>
        <pt x="319" y="296" on="0"/>
        <pt x="315" y="318" on="1"/>
        <pt x="299" y="334" on="0"/>
        <pt x="257" y="352" on="0"/>
        <pt x="233" y="352" on="1"/>
        <pt x="192" y="352" on="0"/>
        <pt x="142" y="285" on="0"/>
        <pt x="142" y="198" on="1"/>
        <pt x="142" y="130" on="0"/>
        <pt x="181" y="38" on="0"/>
      </contour>
    </TTGlyph>
    <TTGlyph name="exclam" xMin="65" yMin="-7" xMax="181" yMax="623">
      <contour>
        <pt x="69" y="557" on="1"/>
        <pt x="69" y="623" on="1"/>
        <pt x="176" y="623" on="1"/>
        <pt x="176" y="557" on="1"/>
        <pt x="151" y="174" on="1"/>
        <pt x="95" y="174" on="1"/>
      </contour>
      <contour>
        <pt x="181" y="47" on="1"/>
        <pt x="181" y="23" on="0"/>
        <pt x="149" y="-7" on="0"/>
        <pt x="123" y="-7" on="1"/>
        <pt x="97" y="-7" on="0"/>
        <pt x="65" y="23" on="0"/>
        <pt x="65" y="47" on="1"/>
        <pt x="65" y="72" on="0"/>
        <pt x="97" y="102" on="0"/>
        <pt x="123" y="102" on="1"/>
        <pt x="149" y="102" on="0"/>
        <pt x="181" y="72" on="0"/>
      </contour>
    </TTGlyph>
    <TTGlyph name="exclam.gujr" xMin="144" yMin="-7" xMax="251" yMax="510">
      <contour>
        <pt x="224" y="151" on="1"/>
        <pt x="171" y="151" on="1"/>
        <pt x="148" y="451" on="1"/>
        <pt x="148" y="510" on="1"/>
        <pt x="248" y="510" on="1"/>
        <pt x="248" y="451" on="1"/>
      </contour>
      <contour>
        <pt x="251" y="43" on="1"/>
        <pt x="251" y="21" on="0"/>
        <pt x="222" y="-7" on="0"/>
        <pt x="198" y="-7" on="1"/>
        <pt x="174" y="-7" on="0"/>
        <pt x="144" y="21" on="0"/>
        <pt x="144" y="43" on="1"/>
        <pt x="144" y="65" on="0"/>
        <pt x="174" y="93" on="0"/>
        <pt x="198" y="93" on="1"/>
        <pt x="222" y="93" on="0"/>
        <pt x="251" y="65" on="0"/>
      </contour>
    </TTGlyph>
    <TTGlyph name="exclamdown" xMin="59" yMin="-205" xMax="175" yMax="425">
      <contour>
        <pt x="175" y="371" on="1"/>
        <pt x="175" y="346" on="0"/>
        <pt x="143" y="317" on="0"/>
        <pt x="117" y="317" on="1"/>
        <pt x="91" y="317" on="0"/>
        <pt x="59" y="346" on="0"/>
        <pt x="59" y="371" on="1"/>
        <pt x="59" y="396" on="0"/>
        <pt x="91" y="425" on="0"/>
        <pt x="117" y="425" on="1"/>
        <pt x="143" y="425" on="0"/>
        <pt x="175" y="396" on="0"/>
      </contour>
      <contour>
        <pt x="171" y="-205" on="1"/>
        <pt x="64" y="-205" on="1"/>
        <pt x="64" y="-139" on="1"/>
        <pt x="88" y="244" on="1"/>
        <pt x="146" y="244" on="1"/>
        <pt x="171" y="-139" on="1"/>
      </contour>
    </TTGlyph>
    <TTGlyph name="f" xMin="28" yMin="0" xMax="375" yMax="654">
      <contour>
        <pt x="97" y="446" on="1"/>
        <pt x="97" y="487" on="0"/>
        <pt x="129" y="562" on="0"/>
        <pt x="179" y="620" on="0"/>
        <pt x="244" y="654" on="0"/>
        <pt x="277" y="654" on="1"/>
        <pt x="303" y="654" on="0"/>
        <pt x="353" y="635" on="0"/>
        <pt x="375" y="621" on="1"/>
        <pt x="358" y="563" on="1"/>
        <pt x="337" y="567" on="0"/>
        <pt x="291" y="573" on="0"/>
        <pt x="276" y="572" on="1"/>
        <pt x="233" y="572" on="0"/>
        <pt x="191" y="535" on="0"/>
        <pt x="191" y="482" on="1"/>
        <pt x="191" y="413" on="1"/>
        <pt x="312" y="413" on="1"/>
        <pt x="312" y="356" on="1"/>
        <pt x="192" y="356" on="1"/>
        <pt x="192" y="70" on="1"/>
        <pt x="192" y="61" on="0"/>
        <pt x="201" y="51" on="0"/>
        <pt x="211" y="50" on="1"/>
        <pt x="287" y="42" on="1"/>
        <pt x="287" y="0" on="1"/>
        <pt x="34" y="0" on="1"/>
        <pt x="34" y="42" on="1"/>
        <pt x="77" y="49" on="1"/>
        <pt x="86" y="50" on="0"/>
        <pt x="96" y="61" on="0"/>
        <pt x="96" y="70" on="1"/>
        <pt x="96" y="354" on="1"/>
        <pt x="28" y="363" on="1"/>
        <pt x="28" y="403" on="1"/>
        <pt x="97" y="414" on="1"/>
      </contour>
    </TTGlyph>
    <TTGlyph name="f_b" xMin="28" yMin="-8" xMax="757" yMax="654">
      <contour>
        <pt x="535" y="-8" on="1"/>
        <pt x="489" y="-8" on="0"/>
        <pt x="404" y="12" on="0"/>
        <pt x="384" y="20" on="1"/>
        <pt x="384" y="557" on="1"/>
        <pt x="360" y="566" on="0"/>
        <pt x="312" y="573" on="0"/>
        <pt x="290" y="573" on="1"/>
        <pt x="246" y="573" on="0"/>
        <pt x="190" y="533" on="0"/>
        <pt x="190" y="482" on="1"/>
        <pt x="190" y="413" on="1"/>
        <pt x="315" y="413" on="1"/>
        <pt x="315" y="356" on="1"/>
        <pt x="190" y="356" on="1"/>
        <pt x="190" y="70" on="1"/>
        <pt x="190" y="61" on="0"/>
        <pt x="200" y="51" on="0"/>
        <pt x="210" y="50" on="1"/>
        <pt x="285" y="42" on="1"/>
        <pt x="285" y="0" on="1"/>
        <pt x="34" y="0" on="1"/>
        <pt x="34" y="42" on="1"/>
        <pt x="77" y="49" on="1"/>
        <pt x="86" y="50" on="0"/>
        <pt x="96" y="61" on="0"/>
        <pt x="96" y="70" on="1"/>
        <pt x="96" y="354" on="1"/>
        <pt x="28" y="363" on="1"/>
        <pt x="28" y="403" on="1"/>
        <pt x="97" y="414" on="1"/>
        <pt x="97" y="450" on="1"/>
        <pt x="97" y="491" on="0"/>
        <pt x="133" y="565" on="0"/>
        <pt x="190" y="621" on="0"/>
        <pt x="263" y="654" on="0"/>
        <pt x="299" y="654" on="1"/>
        <pt x="320" y="654" on="0"/>
        <pt x="364" y="641" on="0"/>
        <pt x="386" y="629" on="1"/>
        <pt x="407" y="638" on="0"/>
        <pt x="448" y="651" on="0"/>
        <pt x="465" y="654" on="1"/>
        <pt x="479" y="642" on="1"/>
        <pt x="479" y="377" on="1"/>
        <pt x="501" y="399" on="0"/>
        <pt x="561" y="425" on="0"/>
        <pt x="598" y="425" on="1"/>
        <pt x="665" y="425" on="0"/>
        <pt x="757" y="331" on="0"/>
        <pt x="757" y="228" on="1"/>
        <pt x="757" y="118" on="0"/>
        <pt x="643" y="-8" on="0"/>
      </contour>
      <contour>
        <pt x="542" y="36" on="1"/>
        <pt x="596" y="36" on="0"/>
        <pt x="655" y="117" on="0"/>
        <pt x="656" y="206" on="1"/>
        <pt x="657" y="294" on="0"/>
        <pt x="603" y="364" on="0"/>
        <pt x="557" y="364" on="1"/>
        <pt x="535" y="364" on="0"/>
        <pt x="495" y="350" on="0"/>
        <pt x="479" y="337" on="1"/>
        <pt x="479" y="52" on="1"/>
        <pt x="491" y="45" on="0"/>
        <pt x="522" y="36" on="0"/>
      </contour>
    </TTGlyph>
    <TTGlyph name="f_f" xMin="28" yMin="0" xMax="671" yMax="654">
      <contour>
        <pt x="274" y="0" on="1"/>
        <pt x="34" y="0" on="1"/>
        <pt x="34" y="42" on="1"/>
        <pt x="77" y="49" on="1"/>
        <pt x="86" y="50" on="0"/>
        <pt x="96" y="61" on="0"/>
        <pt x="96" y="70" on="1"/>
        <pt x="96" y="354" on="1"/>
        <pt x="28" y="363" on="1"/>
        <pt x="28" y="403" on="1"/>
        <pt x="97" y="413" on="1"/>
        <pt x="98" y="434" on="1"/>
        <pt x="99" y="515" on="0"/>
        <pt x="211" y="633" on="0"/>
        <pt x="277" y="633" on="1"/>
        <pt x="302" y="633" on="0"/>
        <pt x="352" y="614" on="0"/>
        <pt x="374" y="600" on="1"/>
        <pt x="354" y="542" on="1"/>
        <pt x="334" y="546" on="0"/>
        <pt x="290" y="553" on="0"/>
        <pt x="276" y="552" on="1"/>
        <pt x="233" y="552" on="0"/>
        <pt x="190" y="515" on="0"/>
        <pt x="190" y="462" on="1"/>
        <pt x="190" y="413" on="1"/>
        <pt x="394" y="413" on="1"/>
        <pt x="394" y="446" on="1"/>
        <pt x="394" y="527" on="0"/>
        <pt x="507" y="654" on="0"/>
        <pt x="572" y="654" on="1"/>
        <pt x="598" y="654" on="0"/>
        <pt x="649" y="635" on="0"/>
        <pt x="671" y="622" on="1"/>
        <pt x="653" y="563" on="1"/>
        <pt x="632" y="567" on="0"/>
        <pt x="587" y="573" on="0"/>
        <pt x="571" y="572" on="1"/>
        <pt x="528" y="572" on="0"/>
        <pt x="487" y="535" on="0"/>
        <pt x="487" y="482" on="1"/>
        <pt x="487" y="413" on="1"/>
        <pt x="607" y="413" on="1"/>
        <pt x="607" y="356" on="1"/>
        <pt x="487" y="356" on="1"/>
        <pt x="487" y="70" on="1"/>
        <pt x="487" y="61" on="0"/>
        <pt x="497" y="51" on="0"/>
        <pt x="506" y="50" on="1"/>
        <pt x="583" y="42" on="1"/>
        <pt x="583" y="0" on="1"/>
        <pt x="333" y="0" on="1"/>
        <pt x="333" y="42" on="1"/>
        <pt x="374" y="49" on="1"/>
        <pt x="383" y="50" on="0"/>
        <pt x="393" y="61" on="0"/>
        <pt x="393" y="70" on="1"/>
        <pt x="393" y="356" on="1"/>
        <pt x="190" y="356" on="1"/>
        <pt x="190" y="70" on="1"/>
        <pt x="190" y="61" on="0"/>
        <pt x="200" y="51" on="0"/>
        <pt x="210" y="50" on="1"/>
        <pt x="274" y="42" on="1"/>
      </contour>
    </TTGlyph>
    <TTGlyph name="f_f_b" xMin="28" yMin="-8" xMax="1054" yMax="654">
      <contour>
        <pt x="1054" y="228" on="1"/>
        <pt x="1054" y="118" on="0"/>
        <pt x="940" y="-8" on="0"/>
        <pt x="832" y="-8" on="1"/>
        <pt x="786" y="-8" on="0"/>
        <pt x="701" y="12" on="0"/>
        <pt x="681" y="20" on="1"/>
        <pt x="681" y="557" on="1"/>
        <pt x="657" y="566" on="0"/>
        <pt x="608" y="573" on="0"/>
        <pt x="586" y="573" on="1"/>
        <pt x="544" y="573" on="0"/>
        <pt x="487" y="533" on="0"/>
        <pt x="487" y="482" on="1"/>
        <pt x="487" y="413" on="1"/>
        <pt x="611" y="413" on="1"/>
        <pt x="611" y="356" on="1"/>
        <pt x="487" y="356" on="1"/>
        <pt x="487" y="70" on="1"/>
        <pt x="487" y="61" on="0"/>
        <pt x="497" y="51" on="0"/>
        <pt x="506" y="50" on="1"/>
        <pt x="582" y="42" on="1"/>
        <pt x="582" y="0" on="1"/>
        <pt x="331" y="0" on="1"/>
        <pt x="331" y="42" on="1"/>
        <pt x="374" y="49" on="1"/>
        <pt x="383" y="50" on="0"/>
        <pt x="393" y="61" on="0"/>
        <pt x="393" y="70" on="1"/>
        <pt x="393" y="356" on="1"/>
        <pt x="190" y="356" on="1"/>
        <pt x="190" y="70" on="1"/>
        <pt x="190" y="61" on="0"/>
        <pt x="200" y="51" on="0"/>
        <pt x="210" y="50" on="1"/>
        <pt x="274" y="42" on="1"/>
        <pt x="274" y="0" on="1"/>
        <pt x="34" y="0" on="1"/>
        <pt x="34" y="42" on="1"/>
        <pt x="77" y="49" on="1"/>
        <pt x="86" y="50" on="0"/>
        <pt x="96" y="61" on="0"/>
        <pt x="96" y="70" on="1"/>
        <pt x="96" y="354" on="1"/>
        <pt x="28" y="363" on="1"/>
        <pt x="28" y="403" on="1"/>
        <pt x="97" y="413" on="1"/>
        <pt x="98" y="434" on="1"/>
        <pt x="99" y="515" on="0"/>
        <pt x="211" y="633" on="0"/>
        <pt x="277" y="633" on="1"/>
        <pt x="302" y="633" on="0"/>
        <pt x="352" y="614" on="0"/>
        <pt x="374" y="600" on="1"/>
        <pt x="354" y="542" on="1"/>
        <pt x="334" y="546" on="0"/>
        <pt x="290" y="553" on="0"/>
        <pt x="276" y="552" on="1"/>
        <pt x="233" y="552" on="0"/>
        <pt x="190" y="515" on="0"/>
        <pt x="190" y="462" on="1"/>
        <pt x="190" y="413" on="1"/>
        <pt x="394" y="413" on="1"/>
        <pt x="394" y="450" on="1"/>
        <pt x="394" y="491" on="0"/>
        <pt x="431" y="565" on="0"/>
        <pt x="488" y="621" on="0"/>
        <pt x="560" y="654" on="0"/>
        <pt x="595" y="654" on="1"/>
        <pt x="616" y="654" on="0"/>
        <pt x="661" y="641" on="0"/>
        <pt x="683" y="629" on="1"/>
        <pt x="703" y="638" on="0"/>
        <pt x="745" y="651" on="0"/>
        <pt x="761" y="654" on="1"/>
        <pt x="776" y="642" on="1"/>
        <pt x="776" y="378" on="1"/>
        <pt x="798" y="400" on="0"/>
        <pt x="857" y="425" on="0"/>
        <pt x="895" y="425" on="1"/>
        <pt x="962" y="425" on="0"/>
        <pt x="1054" y="331" on="0"/>
      </contour>
      <contour>
        <pt x="839" y="36" on="1"/>
        <pt x="893" y="36" on="0"/>
        <pt x="951" y="117" on="0"/>
        <pt x="952" y="206" on="1"/>
        <pt x="953" y="294" on="0"/>
        <pt x="900" y="364" on="0"/>
        <pt x="854" y="364" on="1"/>
        <pt x="832" y="364" on="0"/>
        <pt x="792" y="351" on="0"/>
        <pt x="776" y="338" on="1"/>
        <pt x="776" y="52" on="1"/>
        <pt x="788" y="45" on="0"/>
        <pt x="819" y="36" on="0"/>
      </contour>
    </TTGlyph>
    <TTGlyph name="f_f_h" xMin="28" yMin="0" xMax="1110" yMax="654">
      <contour>
        <pt x="274" y="0" on="1"/>
        <pt x="34" y="0" on="1"/>
        <pt x="34" y="42" on="1"/>
        <pt x="77" y="49" on="1"/>
        <pt x="86" y="50" on="0"/>
        <pt x="96" y="61" on="0"/>
        <pt x="96" y="70" on="1"/>
        <pt x="96" y="354" on="1"/>
        <pt x="28" y="363" on="1"/>
        <pt x="28" y="403" on="1"/>
        <pt x="97" y="413" on="1"/>
        <pt x="98" y="434" on="1"/>
        <pt x="99" y="515" on="0"/>
        <pt x="211" y="633" on="0"/>
        <pt x="277" y="633" on="1"/>
        <pt x="302" y="633" on="0"/>
        <pt x="352" y="614" on="0"/>
        <pt x="374" y="600" on="1"/>
        <pt x="354" y="542" on="1"/>
        <pt x="334" y="546" on="0"/>
        <pt x="290" y="553" on="0"/>
        <pt x="276" y="552" on="1"/>
        <pt x="233" y="552" on="0"/>
        <pt x="190" y="515" on="0"/>
        <pt x="190" y="462" on="1"/>
        <pt x="190" y="413" on="1"/>
        <pt x="394" y="413" on="1"/>
        <pt x="394" y="450" on="1"/>
        <pt x="394" y="491" on="0"/>
        <pt x="431" y="565" on="0"/>
        <pt x="490" y="621" on="0"/>
        <pt x="563" y="654" on="0"/>
        <pt x="599" y="654" on="1"/>
        <pt x="621" y="654" on="0"/>
        <pt x="669" y="640" on="0"/>
        <pt x="691" y="629" on="1"/>
        <pt x="712" y="638" on="0"/>
        <pt x="753" y="651" on="0"/>
        <pt x="770" y="654" on="1"/>
        <pt x="784" y="641" on="1"/>
        <pt x="784" y="369" on="1"/>
        <pt x="812" y="398" on="0"/>
        <pt x="883" y="423" on="0"/>
        <pt x="922" y="423" on="1"/>
        <pt x="994" y="423" on="0"/>
        <pt x="1048" y="340" on="0"/>
        <pt x="1048" y="265" on="1"/>
        <pt x="1048" y="71" on="1"/>
        <pt x="1048" y="61" on="0"/>
        <pt x="1057" y="50" on="0"/>
        <pt x="1066" y="49" on="1"/>
        <pt x="1110" y="42" on="1"/>
        <pt x="1110" y="0" on="1"/>
        <pt x="899" y="0" on="1"/>
        <pt x="899" y="42" on="1"/>
        <pt x="934" y="49" on="1"/>
        <pt x="942" y="51" on="0"/>
        <pt x="952" y="61" on="0"/>
        <pt x="952" y="71" on="1"/>
        <pt x="952" y="251" on="1"/>
        <pt x="952" y="308" on="0"/>
        <pt x="921" y="361" on="0"/>
        <pt x="878" y="361" on="1"/>
        <pt x="853" y="361" on="0"/>
        <pt x="805" y="347" on="0"/>
        <pt x="784" y="331" on="1"/>
        <pt x="784" y="71" on="1"/>
        <pt x="784" y="61" on="0"/>
        <pt x="794" y="51" on="0"/>
        <pt x="803" y="49" on="1"/>
        <pt x="838" y="42" on="1"/>
        <pt x="838" y="0" on="1"/>
        <pt x="630" y="0" on="1"/>
        <pt x="630" y="42" on="1"/>
        <pt x="672" y="49" on="1"/>
        <pt x="681" y="50" on="0"/>
        <pt x="690" y="61" on="0"/>
        <pt x="690" y="71" on="1"/>
        <pt x="690" y="556" on="1"/>
        <pt x="665" y="565" on="0"/>
        <pt x="613" y="573" on="0"/>
        <pt x="590" y="573" on="1"/>
        <pt x="547" y="573" on="0"/>
        <pt x="487" y="533" on="0"/>
        <pt x="487" y="482" on="1"/>
        <pt x="487" y="413" on="1"/>
        <pt x="611" y="413" on="1"/>
        <pt x="611" y="356" on="1"/>
        <pt x="487" y="356" on="1"/>
        <pt x="487" y="70" on="1"/>
        <pt x="487" y="61" on="0"/>
        <pt x="497" y="51" on="0"/>
        <pt x="506" y="50" on="1"/>
        <pt x="573" y="42" on="1"/>
        <pt x="573" y="0" on="1"/>
        <pt x="331" y="0" on="1"/>
        <pt x="331" y="42" on="1"/>
        <pt x="374" y="49" on="1"/>
        <pt x="383" y="50" on="0"/>
        <pt x="393" y="61" on="0"/>
        <pt x="393" y="70" on="1"/>
        <pt x="393" y="356" on="1"/>
        <pt x="190" y="356" on="1"/>
        <pt x="190" y="70" on="1"/>
        <pt x="190" y="61" on="0"/>
        <pt x="200" y="51" on="0"/>
        <pt x="210" y="50" on="1"/>
        <pt x="274" y="42" on="1"/>
      </contour>
    </TTGlyph>
    <TTGlyph name="f_f_k" xMin="28" yMin="0" xMax="1093" yMax="654">
      <contour>
        <pt x="274" y="0" on="1"/>
        <pt x="34" y="0" on="1"/>
        <pt x="34" y="42" on="1"/>
        <pt x="77" y="49" on="1"/>
        <pt x="86" y="50" on="0"/>
        <pt x="96" y="61" on="0"/>
        <pt x="96" y="70" on="1"/>
        <pt x="96" y="354" on="1"/>
        <pt x="28" y="363" on="1"/>
        <pt x="28" y="403" on="1"/>
        <pt x="97" y="413" on="1"/>
        <pt x="98" y="434" on="1"/>
        <pt x="99" y="515" on="0"/>
        <pt x="211" y="633" on="0"/>
        <pt x="277" y="633" on="1"/>
        <pt x="302" y="633" on="0"/>
        <pt x="352" y="614" on="0"/>
        <pt x="374" y="600" on="1"/>
        <pt x="354" y="542" on="1"/>
        <pt x="334" y="546" on="0"/>
        <pt x="290" y="553" on="0"/>
        <pt x="276" y="552" on="1"/>
        <pt x="233" y="552" on="0"/>
        <pt x="190" y="515" on="0"/>
        <pt x="190" y="462" on="1"/>
        <pt x="190" y="413" on="1"/>
        <pt x="394" y="413" on="1"/>
        <pt x="394" y="450" on="1"/>
        <pt x="394" y="491" on="0"/>
        <pt x="431" y="565" on="0"/>
        <pt x="490" y="621" on="0"/>
        <pt x="563" y="654" on="0"/>
        <pt x="599" y="654" on="1"/>
        <pt x="621" y="654" on="0"/>
        <pt x="669" y="640" on="0"/>
        <pt x="691" y="629" on="1"/>
        <pt x="712" y="638" on="0"/>
        <pt x="753" y="651" on="0"/>
        <pt x="770" y="654" on="1"/>
        <pt x="784" y="641" on="1"/>
        <pt x="784" y="195" on="1"/>
        <pt x="939" y="362" on="1"/>
        <pt x="868" y="374" on="1"/>
        <pt x="868" y="413" on="1"/>
        <pt x="1072" y="413" on="1"/>
        <pt x="1072" y="374" on="1"/>
        <pt x="1029" y="363" on="1"/>
        <pt x="1017" y="361" on="0"/>
        <pt x="1003" y="355" on="0"/>
        <pt x="996" y="348" on="1"/>
        <pt x="911" y="261" on="1"/>
        <pt x="922" y="247" on="0"/>
        <pt x="942" y="216" on="0"/>
        <pt x="953" y="196" on="1"/>
        <pt x="1022" y="74" on="1"/>
        <pt x="1028" y="64" on="0"/>
        <pt x="1041" y="54" on="0"/>
        <pt x="1049" y="53" on="1"/>
        <pt x="1093" y="42" on="1"/>
        <pt x="1093" y="0" on="1"/>
        <pt x="969" y="0" on="1"/>
        <pt x="953" y="0" on="0"/>
        <pt x="928" y="38" on="0"/>
        <pt x="915" y="66" on="1"/>
        <pt x="876" y="142" on="1"/>
        <pt x="869" y="157" on="0"/>
        <pt x="854" y="184" on="0"/>
        <pt x="847" y="196" on="1"/>
        <pt x="784" y="132" on="1"/>
        <pt x="784" y="71" on="1"/>
        <pt x="784" y="61" on="0"/>
        <pt x="794" y="50" on="0"/>
        <pt x="803" y="49" on="1"/>
        <pt x="846" y="42" on="1"/>
        <pt x="846" y="0" on="1"/>
        <pt x="630" y="0" on="1"/>
        <pt x="630" y="42" on="1"/>
        <pt x="672" y="49" on="1"/>
        <pt x="681" y="50" on="0"/>
        <pt x="690" y="62" on="0"/>
        <pt x="690" y="71" on="1"/>
        <pt x="690" y="556" on="1"/>
        <pt x="665" y="565" on="0"/>
        <pt x="613" y="573" on="0"/>
        <pt x="590" y="573" on="1"/>
        <pt x="547" y="573" on="0"/>
        <pt x="487" y="533" on="0"/>
        <pt x="487" y="482" on="1"/>
        <pt x="487" y="413" on="1"/>
        <pt x="611" y="413" on="1"/>
        <pt x="611" y="356" on="1"/>
        <pt x="487" y="356" on="1"/>
        <pt x="487" y="70" on="1"/>
        <pt x="487" y="61" on="0"/>
        <pt x="497" y="51" on="0"/>
        <pt x="506" y="50" on="1"/>
        <pt x="573" y="42" on="1"/>
        <pt x="573" y="0" on="1"/>
        <pt x="331" y="0" on="1"/>
        <pt x="331" y="42" on="1"/>
        <pt x="374" y="49" on="1"/>
        <pt x="383" y="50" on="0"/>
        <pt x="393" y="61" on="0"/>
        <pt x="393" y="70" on="1"/>
        <pt x="393" y="356" on="1"/>
        <pt x="190" y="356" on="1"/>
        <pt x="190" y="70" on="1"/>
        <pt x="190" y="61" on="0"/>
        <pt x="200" y="51" on="0"/>
        <pt x="210" y="50" on="1"/>
        <pt x="274" y="42" on="1"/>
      </contour>
    </TTGlyph>
    <TTGlyph name="f_f_l" xMin="28" yMin="0" xMax="853" yMax="654">
      <contour>
        <pt x="274" y="0" on="1"/>
        <pt x="34" y="0" on="1"/>
        <pt x="34" y="42" on="1"/>
        <pt x="77" y="49" on="1"/>
        <pt x="86" y="50" on="0"/>
        <pt x="96" y="61" on="0"/>
        <pt x="96" y="70" on="1"/>
        <pt x="96" y="354" on="1"/>
        <pt x="28" y="363" on="1"/>
        <pt x="28" y="403" on="1"/>
        <pt x="97" y="413" on="1"/>
        <pt x="98" y="434" on="1"/>
        <pt x="99" y="515" on="0"/>
        <pt x="211" y="633" on="0"/>
        <pt x="277" y="633" on="1"/>
        <pt x="302" y="633" on="0"/>
        <pt x="352" y="614" on="0"/>
        <pt x="374" y="600" on="1"/>
        <pt x="354" y="542" on="1"/>
        <pt x="334" y="546" on="0"/>
        <pt x="290" y="553" on="0"/>
        <pt x="276" y="552" on="1"/>
        <pt x="233" y="552" on="0"/>
        <pt x="190" y="515" on="0"/>
        <pt x="190" y="462" on="1"/>
        <pt x="190" y="413" on="1"/>
        <pt x="394" y="413" on="1"/>
        <pt x="394" y="450" on="1"/>
        <pt x="394" y="491" on="0"/>
        <pt x="431" y="565" on="0"/>
        <pt x="490" y="621" on="0"/>
        <pt x="563" y="654" on="0"/>
        <pt x="599" y="654" on="1"/>
        <pt x="621" y="654" on="0"/>
        <pt x="669" y="640" on="0"/>
        <pt x="691" y="629" on="1"/>
        <pt x="712" y="638" on="0"/>
        <pt x="753" y="651" on="0"/>
        <pt x="770" y="654" on="1"/>
        <pt x="784" y="641" on="1"/>
        <pt x="784" y="71" on="1"/>
        <pt x="784" y="61" on="0"/>
        <pt x="794" y="50" on="0"/>
        <pt x="803" y="49" on="1"/>
        <pt x="853" y="42" on="1"/>
        <pt x="853" y="0" on="1"/>
        <pt x="630" y="0" on="1"/>
        <pt x="630" y="42" on="1"/>
        <pt x="672" y="49" on="1"/>
        <pt x="681" y="50" on="0"/>
        <pt x="690" y="61" on="0"/>
        <pt x="690" y="70" on="1"/>
        <pt x="690" y="556" on="1"/>
        <pt x="665" y="565" on="0"/>
        <pt x="613" y="573" on="0"/>
        <pt x="590" y="573" on="1"/>
        <pt x="547" y="573" on="0"/>
        <pt x="487" y="533" on="0"/>
        <pt x="487" y="482" on="1"/>
        <pt x="487" y="413" on="1"/>
        <pt x="611" y="413" on="1"/>
        <pt x="611" y="356" on="1"/>
        <pt x="487" y="356" on="1"/>
        <pt x="487" y="70" on="1"/>
        <pt x="487" y="61" on="0"/>
        <pt x="497" y="51" on="0"/>
        <pt x="506" y="50" on="1"/>
        <pt x="573" y="42" on="1"/>
        <pt x="573" y="0" on="1"/>
        <pt x="331" y="0" on="1"/>
        <pt x="331" y="42" on="1"/>
        <pt x="374" y="49" on="1"/>
        <pt x="383" y="50" on="0"/>
        <pt x="393" y="61" on="0"/>
        <pt x="393" y="70" on="1"/>
        <pt x="393" y="356" on="1"/>
        <pt x="190" y="356" on="1"/>
        <pt x="190" y="70" on="1"/>
        <pt x="190" y="61" on="0"/>
        <pt x="200" y="51" on="0"/>
        <pt x="210" y="50" on="1"/>
        <pt x="274" y="42" on="1"/>
      </contour>
    </TTGlyph>
    <TTGlyph name="f_h" xMin="28" yMin="0" xMax="813" yMax="654">
      <contour>
        <pt x="276" y="42" on="1"/>
        <pt x="276" y="0" on="1"/>
        <pt x="34" y="0" on="1"/>
        <pt x="34" y="42" on="1"/>
        <pt x="77" y="49" on="1"/>
        <pt x="86" y="50" on="0"/>
        <pt x="96" y="61" on="0"/>
        <pt x="96" y="70" on="1"/>
        <pt x="96" y="354" on="1"/>
        <pt x="28" y="363" on="1"/>
        <pt x="28" y="403" on="1"/>
        <pt x="97" y="414" on="1"/>
        <pt x="97" y="450" on="1"/>
        <pt x="97" y="491" on="0"/>
        <pt x="134" y="565" on="0"/>
        <pt x="193" y="621" on="0"/>
        <pt x="267" y="654" on="0"/>
        <pt x="303" y="654" on="1"/>
        <pt x="324" y="654" on="0"/>
        <pt x="372" y="640" on="0"/>
        <pt x="394" y="629" on="1"/>
        <pt x="415" y="638" on="0"/>
        <pt x="457" y="651" on="0"/>
        <pt x="473" y="654" on="1"/>
        <pt x="488" y="641" on="1"/>
        <pt x="488" y="370" on="1"/>
        <pt x="516" y="398" on="0"/>
        <pt x="588" y="423" on="0"/>
        <pt x="626" y="423" on="1"/>
        <pt x="698" y="423" on="0"/>
        <pt x="751" y="340" on="0"/>
        <pt x="751" y="265" on="1"/>
        <pt x="751" y="71" on="1"/>
        <pt x="751" y="61" on="0"/>
        <pt x="761" y="50" on="0"/>
        <pt x="770" y="49" on="1"/>
        <pt x="813" y="42" on="1"/>
        <pt x="813" y="0" on="1"/>
        <pt x="602" y="0" on="1"/>
        <pt x="602" y="42" on="1"/>
        <pt x="637" y="49" on="1"/>
        <pt x="645" y="51" on="0"/>
        <pt x="655" y="61" on="0"/>
        <pt x="655" y="71" on="1"/>
        <pt x="655" y="251" on="1"/>
        <pt x="655" y="308" on="0"/>
        <pt x="624" y="361" on="0"/>
        <pt x="581" y="361" on="1"/>
        <pt x="557" y="361" on="0"/>
        <pt x="509" y="347" on="0"/>
        <pt x="488" y="332" on="1"/>
        <pt x="488" y="71" on="1"/>
        <pt x="488" y="61" on="0"/>
        <pt x="497" y="51" on="0"/>
        <pt x="506" y="49" on="1"/>
        <pt x="541" y="42" on="1"/>
        <pt x="541" y="0" on="1"/>
        <pt x="333" y="0" on="1"/>
        <pt x="333" y="42" on="1"/>
        <pt x="375" y="49" on="1"/>
        <pt x="384" y="50" on="0"/>
        <pt x="394" y="61" on="0"/>
        <pt x="394" y="71" on="1"/>
        <pt x="394" y="556" on="1"/>
        <pt x="369" y="565" on="0"/>
        <pt x="316" y="573" on="0"/>
        <pt x="293" y="573" on="1"/>
        <pt x="250" y="573" on="0"/>
        <pt x="190" y="533" on="0"/>
        <pt x="190" y="482" on="1"/>
        <pt x="190" y="413" on="1"/>
        <pt x="315" y="413" on="1"/>
        <pt x="315" y="356" on="1"/>
        <pt x="190" y="356" on="1"/>
        <pt x="190" y="70" on="1"/>
        <pt x="190" y="61" on="0"/>
        <pt x="200" y="51" on="0"/>
        <pt x="210" y="50" on="1"/>
      </contour>
    </TTGlyph>
    <TTGlyph name="f_k" xMin="28" yMin="0" xMax="796" yMax="654">
      <contour>
        <pt x="276" y="42" on="1"/>
        <pt x="276" y="0" on="1"/>
        <pt x="34" y="0" on="1"/>
        <pt x="34" y="42" on="1"/>
        <pt x="77" y="49" on="1"/>
        <pt x="86" y="50" on="0"/>
        <pt x="96" y="61" on="0"/>
        <pt x="96" y="70" on="1"/>
        <pt x="96" y="354" on="1"/>
        <pt x="28" y="363" on="1"/>
        <pt x="28" y="403" on="1"/>
        <pt x="97" y="414" on="1"/>
        <pt x="97" y="450" on="1"/>
        <pt x="97" y="491" on="0"/>
        <pt x="134" y="565" on="0"/>
        <pt x="193" y="621" on="0"/>
        <pt x="267" y="654" on="0"/>
        <pt x="303" y="654" on="1"/>
        <pt x="324" y="654" on="0"/>
        <pt x="372" y="640" on="0"/>
        <pt x="394" y="629" on="1"/>
        <pt x="415" y="638" on="0"/>
        <pt x="457" y="651" on="0"/>
        <pt x="473" y="654" on="1"/>
        <pt x="488" y="641" on="1"/>
        <pt x="488" y="196" on="1"/>
        <pt x="642" y="362" on="1"/>
        <pt x="571" y="374" on="1"/>
        <pt x="571" y="413" on="1"/>
        <pt x="776" y="413" on="1"/>
        <pt x="776" y="374" on="1"/>
        <pt x="733" y="363" on="1"/>
        <pt x="720" y="361" on="0"/>
        <pt x="706" y="355" on="0"/>
        <pt x="699" y="348" on="1"/>
        <pt x="614" y="261" on="1"/>
        <pt x="625" y="247" on="0"/>
        <pt x="645" y="216" on="0"/>
        <pt x="656" y="196" on="1"/>
        <pt x="726" y="74" on="1"/>
        <pt x="731" y="64" on="0"/>
        <pt x="744" y="54" on="0"/>
        <pt x="752" y="53" on="1"/>
        <pt x="796" y="42" on="1"/>
        <pt x="796" y="0" on="1"/>
        <pt x="672" y="0" on="1"/>
        <pt x="656" y="0" on="0"/>
        <pt x="631" y="38" on="0"/>
        <pt x="618" y="66" on="1"/>
        <pt x="579" y="142" on="1"/>
        <pt x="572" y="157" on="0"/>
        <pt x="557" y="184" on="0"/>
        <pt x="550" y="196" on="1"/>
        <pt x="488" y="133" on="1"/>
        <pt x="488" y="71" on="1"/>
        <pt x="488" y="61" on="0"/>
        <pt x="497" y="50" on="0"/>
        <pt x="506" y="49" on="1"/>
        <pt x="549" y="42" on="1"/>
        <pt x="549" y="0" on="1"/>
        <pt x="333" y="0" on="1"/>
        <pt x="333" y="42" on="1"/>
        <pt x="375" y="49" on="1"/>
        <pt x="384" y="50" on="0"/>
        <pt x="394" y="62" on="0"/>
        <pt x="394" y="71" on="1"/>
        <pt x="394" y="556" on="1"/>
        <pt x="369" y="565" on="0"/>
        <pt x="316" y="573" on="0"/>
        <pt x="293" y="573" on="1"/>
        <pt x="250" y="573" on="0"/>
        <pt x="190" y="533" on="0"/>
        <pt x="190" y="482" on="1"/>
        <pt x="190" y="413" on="1"/>
        <pt x="315" y="413" on="1"/>
        <pt x="315" y="356" on="1"/>
        <pt x="190" y="356" on="1"/>
        <pt x="190" y="70" on="1"/>
        <pt x="190" y="61" on="0"/>
        <pt x="200" y="51" on="0"/>
        <pt x="210" y="50" on="1"/>
      </contour>
    </TTGlyph>
</ttFont>
